<svg xmlns="http://www.w3.org/2000/svg" viewBox="0 0 872.17 946.44"><defs><style>.cls-1{fill:#faf9f8;}.cls-2{fill:#f7ba8e;}.cls-3{fill:#301d1a;}.cls-4{fill:#acc222;}.cls-5{fill:#5c2602;}.cls-6{fill:#ef880e;}.cls-7{fill:#dfd4cd;}.cls-8{fill:#f8da04;}.cls-9{fill:#feaa40;}.cls-10{fill:#93a61c;}.cls-11{fill:#ef890f;}.cls-12{fill:#401215;}.cls-13{fill:#ec6f6a;}.cls-14{fill:#fefefe;}.cls-15{fill:#fdfdfd;}.cls-16{fill:#faa27b;}.cls-17{fill:#faa27a;}.cls-18{fill:#faa17a;}.cls-19{fill:#faa079;}.cls-20{fill:#d1b1a2;}.cls-21{fill:#e1af90;}.cls-22{fill:#94a71c;}.cls-23{fill:#fefefd;}.cls-24{fill:#4c2d27;}.cls-25{fill:#4b2c27;}.cls-26{fill:#e0d2ca;}.cls-27{fill:#ded3c9;}.cls-28{fill:#f9cda5;}.cls-29{fill:#fefdfd;}.cls-30{fill:#f08f18;}.cls-31{fill:#b4c025;}.cls-32{fill:#ee8810;}.cls-33{fill:#ee880f;}.cls-34{fill:#b1bf22;}.cls-35{fill:#b3bf25;}.cls-36{fill:#afbe24;}.cls-37{fill:#b2bd22;}.cls-38{fill:#b1c024;}.cls-39{fill:#b0be22;}.cls-40{fill:#aec321;}</style></defs><title>Page1_Boy</title><g id="Layer_2" data-name="Layer 2"><g id="Layer_1-2" data-name="Layer 1"><path class="cls-1" d="M154.6,946.44c0-.34,0-.67,0-1,1.8-1.93,4.21-1.76,6.5-1.77q20.37-.12,40.73,0c2.29,0,4.71-.16,6.51,1.77,0,.34,0,.67,0,1Z"/><path class="cls-2" d="M661.59,261.12a2,2,0,0,0,2.39.67c21.47-8.16,41.66,9.12,44.7,29.72,2.56,17.36-6.22,37.31-21.58,45.77-10.87,6-22.06,7.13-33,.17-3.3-2.09-4.57-2-5.3,2.27-4.17,24.37-14.78,45.64-30.93,64.37C603,421.3,584.4,432.76,563.66,441.25c-6.08,2.49-12.06,5.21-18.09,7.82-1,2.29-3.28,2.62-5.27,3.3-15.94,5.49-32.13,10-48.91,12-5.1.61-8.28,2.94-10.63,7.64-4.75,9.5-11.46,17.71-18.4,25.69-2.87,3.29-4.69,3.07-7.89-.52-7-7.91-13.58-16.25-18.45-25.67-2.35-4.56-5.61-6.43-10.41-7.06A291.52,291.52,0,0,1,379,454.32c-3.54-1.08-7.4-1.51-10.29-4.22-5-4.73-11.82-5.52-17.76-8.14-33.55-14.8-56.94-39.16-70.58-73.13-3.95-9.86-6-20.18-8.49-30.42-1-4.15-2.08-5.66-6.26-2.48-14.37,11-33.29,6.13-44-5.38-12.76-13.66-16.7-29.34-10.78-47,6.34-18.89,23.68-27.44,42.66-21.7,5.07,1.27,8.56-1.54,11.83-4.71,10.81-10.46,18.82-22.88,25.24-36.39a243.47,243.47,0,0,0,9.89-24.36c1.24-3.57,3.08-4.94,7.05-4.79a270.65,270.65,0,0,0,70.31-6.42c27.06-6.15,52.06-16.72,73.69-34.51,6.33-5.21,7-5.22,13.22-.09,27,22.1,58.6,33,92.61,38.11a283.1,283.1,0,0,0,51.86,2.91c3.75-.12,5.62,1.36,6.76,4.61,2.66,7.61,5.47,15.15,8.78,22.5,6.77,15,15.47,28.58,27.45,40C655,261.42,657.83,262.69,661.59,261.12Z"/><path class="cls-3" d="M661.59,261.12c-1.44,3.6-3.92,3.92-6.66,1.72-8.2-6.56-14.52-14.78-20.35-23.43C625.52,226,619.79,211,614.49,195.85c-.72-2.06-1.61-3.15-4.57-3-36.51,1.28-72.21-3.22-106.21-17.21a159.79,159.79,0,0,1-43.46-26.89c-1.65-1.42-2.36-1.66-4.19-.11-22.09,18.7-47.48,30.8-75.62,37.22a277,277,0,0,1-41.39,6.37,331.23,331.23,0,0,1-34.22.48c-2.42-.07-2,1.08-2.46,2.16-3.39,8.13-6.32,16.42-10,24.47-6.62,14.66-15,28-26.75,39-3,2.84-6.3,8.93-12.23,3.57.55-3.83-2.2-6.63-3.25-10-4.43-14-4.12-28.26-2.81-42.41,1.63-17.48,4.29-34.89,9.27-51.84,13.39-45.56,39.3-81.37,81.15-104.88,23.25-13.07,48.47-20,74.62-24,2.8-.43,5.59-.92,8.63-1.42-2.46-8.88-.05-16.17,7-23.14a41.43,41.43,0,0,0,6.42,19.62C439.54,5.59,444.69-.58,454.44,0c-3.14,4.91-6.55,9.47-7,15.49-.57,8.1,1.08,10.08,9.19,10.06C491.1,25.49,524.77,30,557,42.72c37.18,14.63,65.8,39.21,85.53,74C655.16,139,662.31,163,666,188.14c1.62,10.94,3.16,21.85,3.28,33C669.45,235,667.35,248.39,661.59,261.12Z"/><path class="cls-4" d="M368.67,450.1c10.33,2.77,20.58,5.87,31,8.22,10.08,2.26,20.32,3.8,30.52,5.51a6.34,6.34,0,0,1,5.23,3.8c5.58,10.87,13,20.51,20.87,29.78,1.68,2,2.95,2.16,4.64,0,6.92-8.65,14.39-17,19.07-27.11,2.3-5,5.79-6.78,10.68-7.35,18.91-2.21,37-7.6,54.88-13.93,28.51,19.54,52.35,43.78,72.44,71.79,6.55,9.13,6.52,9.16-.52,17.25-4.32,8-12,12.63-18.56,18.28A134.09,134.09,0,0,1,576,572.18c-4.22,2.31-5.1,5.06-3.9,9.63,2.09,7.9,4.83,15.72,4.85,24.06,1.37,11.46,4.82,22.51,6.8,33.85,0,.18.15.33.18.5,1,5,3.37,10.27,2.7,15.08-.8,5.7-8.58,3.75-11.94,7.44a10.74,10.74,0,0,1-4.82,3.27c-28.08,10-56.72,17.6-86.43,20.91-4.83.54-7.6-1-10-5.13-6-10.42-10.21-21.62-14.72-33.63-3.42,8-5.89,15.52-9.22,22.71-2,4.24-4.32,8.23-6.68,12.24-1.83,3.12-4.3,4.26-8,3.89-22.35-2.25-44.09-7.32-65.62-13.58-7.16-2.08-13.94-5.67-21.59-6-3.79-3.41-8.39-5.38-13.08-7-4.51-1.61-5.89-4.21-4.87-9,3.5-16.42,6.92-32.87,10.75-49.22,1.35-7,2.86-14,4.88-20.88,1.08-3.68.26-5.75-3.21-7.8-14.67-8.65-28.54-18.43-40.37-30.84a21.16,21.16,0,0,1-4.15-5.54c-5.92-7.19-6-7.23-.22-15.28,19.35-27,41.92-50.91,69.35-69.95A22,22,0,0,0,368.67,450.1Z"/><path class="cls-5" d="M347.67,666.56c1-2.63,2.69-1,3.94-.52a392.34,392.34,0,0,0,62.09,16.57c7.72,1.41,15.58,2,23.34,3.28,2.84.45,3.28-1.63,4.27-3.16,6.61-10.12,10.89-21.31,14.94-32.61.63-1.77.79-3.78,2.76-5.62,3.52,9.09,6.25,18.11,10.49,26.51,1.13,2.23,2.15,4.53,3.4,6.69,5.17,8.94,5.15,8.59,15.28,7.24,29.73-4,58.44-11.82,86.52-22.2q2.68,21.78,5.35,43.57c2,15.92,3.81,31.86,5.84,47.78,2.28,17.86,4.67,35.7,7.06,53.54,1.28,9.53,2.66,19,4,28.72-1.37,1.12-3.3.09-5,.67-1.58,1.48-3.58,1.49-5.52,1.49-20.44,0-40.88.23-61.31-.08-6.3.72-9.7-2.2-12-8.08-16.32-41.27-30.93-83.13-43.52-125.68-2.61-8.82-7.6-11.58-16.33-9a3.37,3.37,0,0,0-2.64,3c-.41,2.47-1.1,5-1,7.43.31,10.39-1.05,20.7-1.35,31.06-.88,31.26-2.22,62.5-2.1,93.78,0,6.29-1,7-7.69,7.48q-33.19.39-66.37,0c-7.32-.18-8.51-1-9.64-7.92-4.48-27.54-8.18-55.17-10.8-83q-3.09-32.81-5.08-65.7C346.29,676.76,345.22,671.5,347.67,666.56Z"/><path class="cls-6" d="M98.88,874.32c0-.18,0-.39-.12-.52-8.39-10.63-5.61-20.13.67-31.25,18.29-32.39,39.45-62.41,66.28-88.27,5.13-5,10.26-10,17.92-10.71,1.59,3-.22,5.57-1.09,8.16A222.43,222.43,0,0,0,171.2,820c-.12,7.81.25,8,8.09,9.77,3.09.69,6.45.57,9.08,2.77,2.09,4.61.85,9.48,1.13,14.23.31,5.21.65,5.59,6.65,5.62,6.57,0,7-.36,7.35-5.5.29-4.18-1.08-8.58,1.47-12.5a80.84,80.84,0,0,1,21.31.15c12.22,1.69,24.25-1.12,36.38-.61,2.93.12,4-1.76,4.12-4.48s-.11-5.37.15-8c.2-2-.25-4.47,2.63-5.17,1.85,1.84,1.57,4.25,1.6,6.53.09,6.58,0,13.16,0,19.75,0,9.45.33,9.91,6.88,9.84,5.82-.07,5.91-.29,6-9.52,0-3.35-.55-6.78,1-10,3.64-3.13,8.41-2.56,12.63-3.81,5.55-1.63,5.8-2.14,5.39-7.85-1-14.44-1.56-28.9-4.75-43.13-2-8.91-3.9-17.82-7-26.45-.82-2.32-2-4.69-.63-7.24,5.16-1.72,8-.86,11.64,4.44A249.58,249.58,0,0,1,319.68,779c11.74,24,16.25,49.37,15.89,75.85-.15,10.89,0,21.8,0,32.7-.13,4.6.31,9.22-.24,13.81-1.53,5.32-6.82,8-9,12.93-4.84,4.07-10.59,4.76-16.64,4.75-44.76,0-89.53-.16-134.29.08-10.55,0-21.09-.09-31.63-.08a17.55,17.55,0,0,1-11-3.57,130.08,130.08,0,0,1-32-35.11A11.91,11.91,0,0,1,98.88,874.32Z"/><path class="cls-2" d="M297.55,537.09c14.42,14.44,30.21,27.09,48.11,37,1.3.72,2.45,1.38,2,3.25-2.08,8-4.09,16.1-6.12,24.15-17,21.2-32.57,43.5-49,65.16-4.81,6.35-5,6.55-.73,13,6.32,9.53,5.66,18.87,0,28.21-4.38,7.28-6.14,15.51-8.93,23.36-4.37,2.81-8.4,6.2-13.4,8-11.76,3.13-23.12.6-34.45-2.39-8.43-6.11-18-10.46-26.07-17.17-2.46-2-5.15-3.89-5-7.63a11.63,11.63,0,0,0-.71-2.56c-10.78-19.29-1.45-38.16,13-50.28,6.58-5.51,13.25-10.85,21-14.61,2-1,2.56-2.9,3.34-4.66,5.14-11.6,9.92-23.35,15.73-34.64A500.73,500.73,0,0,1,296.23,540,16.07,16.07,0,0,0,297.55,537.09Z"/><path class="cls-7" d="M598.32,858.33c30.29,2.26,60.53,5.09,90,12.94,11.49,3.07,23,6.3,33,13.49,8.52,6.16,8.79,12.4,0,18.41-10.76,7.37-23,11.21-35.54,14.21a424,424,0,0,1-60.36,9.85c-19,1.73-38,2.71-57,3.31-9.79.3-19.6,1.1-29.4.81-17.63-.53-35.3-.83-52.87-2.25-22.8-1.85-45.58-4.26-68-9.25-2.95-.66-6.11.53-8.91-1.17,1.72-2.07,4.15-1.69,6.39-1.73,5.64-.11,11.3,0,16.94-.07,6.49-.13,7.31-1.14,6.6-7.59-.78-9.79-.36-19.59-.31-29.39.23-5.43-1.14-11,1.15-16.25,2.72-2.12,6.05-2.06,9.2-2.47a533.68,533.68,0,0,1,57.19-4.65c7.84-.18,15.64-1.85,23.5-.22,2.33,1.21,2.68,3.66,3.43,5.79,2.17,6.19,5.32,12.06,6.37,18.64.3,9.51.25,19,.07,28.5.24,7.59.3,7.69,8,7.69q46.9,0,93.83,0c1.07,0,2.15,0,3.22-.07,2.19-.15,4.41-.43,5.4-2.75,1.14-2.66-.62-4.42-2.33-6a106.11,106.11,0,0,0-23.32-17c-6.82-4.4-14.91-6.41-21.47-11.34C600.52,872.84,597.36,866,598.32,858.33Z"/><path class="cls-2" d="M577,605.87q-3.68-14.42-7.37-28.84c-.63-2.43,1.2-3.09,2.72-4a222.67,222.67,0,0,0,45.18-34.95c5.43,10.95,14,15.35,27.35,13.77,19.25-2.28,37-8.89,53.5-19,3-1.81,3.19-2.87.83-5.5-8.69-9.71-11.12-21.41-9.19-33.94,1.14-7.45,6.2-12.61,12.09-17,2-1.48,4.61-2,6.15-4.09,3.07-3.27,6.66-2.45,10.29-1.3,2,.92,3.42,2.52,5.09,3.84a26.72,26.72,0,0,1,9.76,11.71,4.82,4.82,0,0,1-1.08,4.49,12.33,12.33,0,0,1-3.95,2.62,26.94,26.94,0,0,1-4.5,1.39c-4.29-.24-5.58,1.31-5.18,6,.71,8.45,6.18,13.92,11.08,19.62,10,11.65,22.78,19.28,37.41,23.84,2,.62,4.3.82,5.23,3.21-3.09,4.15-7.58,6.91-12,8.78-11.95,5.08-21,14-31,21.68a193.85,193.85,0,0,1-98.08,39.52c-13.23,1.47-26.37,1-39.56,0-2.21-.18-3.57-1.3-5-2.68C583.52,611.93,580.75,608.35,577,605.87Z"/><path class="cls-8" d="M234.14,735.64c6,1.07,11.87,2.41,17.86,3.15a59,59,0,0,0,18.6-1c4.07-1.7,8.12-.58,12.18.09,3.46,1.1,7.55,1.4,8.14,6.24,3.14,11.85,7.26,23.41,9.31,35.57,1.85,10.88,3.55,21.73,3.77,32.79.08,4.26.58,8.51,1,12.76.23,2.54-.59,3.79-3.32,4.35-5.21,1.06-10.28,2.85-15.68,2.88-2.85-2.52-1.88-5.94-1.83-9,.07-4.16-1.64-5.7-5.69-5.56-2.95.1-6.07.66-8.76-1.27-2.46,4.31-1,9-1,13.46-.05,4.19-1.47,5.6-5.63,5.64-9.78.1-19.63,1.49-29.32.72s-19.25.27-28.72-1.75c-2.57-3.54-1.21-7.61-1.5-11.44-.37-5-.72-5.32-7-5.32s-6.66.36-7,5.32c-.22,3.12.86,6.51-1.66,9.22-17.26-.61-19.77-4-18.15-22.43,2-22.76,6-45.06,13.95-66.55,1.12-3.13,4.23-3.31,6.67-4.49,4-2.54,8.46-2.5,12.92-2.68,7.68-1.44,15.52-1.17,23.25-2.12C229.06,734,231.82,733.87,234.14,735.64Z"/><path class="cls-7" d="M98.88,874.32c9.57,15.91,21,30.17,36.35,40.92a13,13,0,0,0,7.91,2.54q82.59-.1,165.17,0c6.46,0,12.39-1.19,17.87-4.57,3.32,3.14,7.29,4,11.75,3.73,4.25-.23,8.53-.12,12.79,0,2.09,0,4.33-.19,5.9,1.72a204.45,204.45,0,0,1-50,16.31c-13.59,2.51-27.22,4.69-41,6.15-17.16,1.82-34.32,3.31-51.6,3.25-1.91,0-3.83.69-5.74,1.06H154.59c-12.92-1.61-26-1-38.9-2.28-33.42-3.35-66.84-6.84-98.47-19.35A46.89,46.89,0,0,1,4.1,915.65c-5.78-4.94-5.36-10.62.71-15.22,10.93-8.3,23.89-11.69,36.78-15.23,17.86-4.9,36.22-7,54.46-9.68C97.13,875.36,98.2,875.34,98.88,874.32Z"/><path class="cls-9" d="M772.37,547.77c-9.92-3-19.57-6.73-28.25-12.55a81.43,81.43,0,0,1-25.59-27.64c-2-3.51-1.68-7.83-1.58-11.48.11-3.87,4.64-1.34,7.11-2.06,2.6,1.1,3.31,3.65,4.43,5.84,20,39,72.58,49.08,106.16,20.93,28.88-24.22,34.33-66.75,10.21-97.28-11.8-14.93-27.46-23.91-46.62-25.88C767.59,394.51,744.77,407.2,729,433c-6,9.78-8.37,20.86-8.93,32.3-.12,2.43.6,5.06-1.32,7.18-3.48-1.77-7-1-10.5-.09-2-37.92,21.37-76.61,65-85.62,44-9.07,86.61,17.7,96.94,62.6,10.42,45.29-21.7,92.19-67.45,98.6C792.51,549.42,782.49,548.51,772.37,547.77Z"/><path class="cls-2" d="M538.32,879.91c-2.22-7.75-6.17-14.91-8-22.82-3.12-5.35-4.73-11.32-6.86-17.08a2.85,2.85,0,0,1,.54-3l68,0c2.34,7,3,14.56,6.31,21.31l5.37,21.14c-1.61,2.24-4.07,2-6.34,2q-26.49.13-53,0C542.24,881.51,540,881.56,538.32,879.91Z"/><path class="cls-10" d="M356.62,918.66c-7.79,0-15.57-.11-23.36,0-3.93.05-6.53-1.26-7.08-5.44.48-5,5.19-6.87,7.78-10.31,2.5-5,7.83-6.73,11.8-10,3.23-1.38,5.72-5.36,10.06-2.88a26.43,26.43,0,0,1,5.83,12.47c.78,4.8,3.42,5.89,7.78,5.86,21-.12,42.07-.08,63.1,0,2.62,0,5.39-.46,7.69,1.43,2.29,6.43.85,8.84-5.46,8.89-8.52.07-17.05,0-25.58.07Z"/><path class="cls-11" d="M203.17,737.77l-12.87,1.31c1.32-5.3,2.69-10.58,4-15.89s4.88-8.85,9.75-11.15c1.79,2.24,3,5,5.5,6.6-6.29,3.71-6.5,9.42-5.24,15.68A4,4,0,0,1,203.17,737.77Z"/><path class="cls-12" d="M454.6,356.45c1.08-5.21,6.36-7.71,14-6.6,1.53,10.45,4.74,13.71,13.85,14.06,5.15.2,6.68-1.2,7.07-6.31.17-2.23-.53-4.69,1.51-6.5,6.32,2.44,9.47,8.42,8.16,16-2.44,14.15-10.46,24.53-23.44,29.89-21.38,8.84-42.95,8.8-63.36-3.16-11.73-6.88-19-17.19-19.21-31.41,0-2.47,0-5,1.95-7,6.82,5.29,14,9.85,22.85,10.85a135.23,135.23,0,0,0,24.64.22c4.52-.31,8.16-2.54,9.84-7.15A4.56,4.56,0,0,1,454.6,356.45Z"/><path class="cls-5" d="M320.71,283.74c.8-12.38,2.57-24.84,11.89-34.42,16.18-16.62,48.28-8.3,54.33,14a58.72,58.72,0,0,1-.32,32.3c-.71,2.44-1.71,4.68-4.68,3.89s-2.83-3.07-2.25-5.65c2.33-10.22,3.39-20.51-.41-30.62-4-10.52-12.09-15.24-25.62-15.24A22.89,22.89,0,0,0,332,263.47c-3,8.29-4.69,16.84-3.7,25.74a15,15,0,0,1,.06,3.21c-.22,1.92-1.1,3.55-3.21,3.7-2.34.17-3.69-1.29-3.91-3.52C320.92,289.75,320.87,286.88,320.71,283.74Z"/><path class="cls-5" d="M550,258.28c25.18.18,35.15,16.07,34,40.69a96.49,96.49,0,0,1-2,13.24c-.47,2.46-1.12,5.38-4.64,4.51-3.29-.82-3.13-3.68-2.41-6.16,2.21-7.72,2.19-15.48,1.32-23.39-1.85-16.83-15.66-23.21-30.13-21.63-9.78,1.06-15.8,6.7-19.11,15.72a59.26,59.26,0,0,0-3.75,24.21c.18,3,1.72,7.46-3,7.73s-3.77-4.46-4-7.38a60.07,60.07,0,0,1,6.39-32.22C527.94,263.17,537.1,258.27,550,258.28Z"/><path class="cls-13" d="M448.09,303.67c4.38-.6,10.29.89,16.09,2.61,9.07,2.68,11.15,9.75,4.74,16.67-14.41,15.57-27.61,11.28-39.58-5-4.11-5.57-1.69-10.55,4.79-13C438.11,303.45,442.22,303.94,448.09,303.67Z"/><path class="cls-14" d="M454.6,356.45c-.84,6.09-3.8,10.41-10.22,11.32-12.67,1.81-25.25,1.62-37.41-2.95-4.87-1.84-9.32-4.47-11.88-9.36a15.1,15.1,0,0,1,11-8.71,27.72,27.72,0,0,1,10.7,0c10.73,3.54,21.5,6.87,33,5.47C453.18,351.77,454.68,353.12,454.6,356.45Z"/><path class="cls-15" d="M491,351.1a19,19,0,0,1,.11,2.13c-.24,4.49,2,10.06-4.72,11.87-6.37,1.72-15.81-2.05-18.17-7.05-1.32-2.8-.84-5.51.35-8.2a16.67,16.67,0,0,1,6.28-2.1,11.78,11.78,0,0,1,6.29,0A20.71,20.71,0,0,1,491,351.1Z"/><path class="cls-16" d="M370.28,322.1c1.26-.1,2.38.56,2.41,2.67a3,3,0,0,1-3.19,3.38,2.78,2.78,0,0,1-3.16-2.79C366.3,323.18,367.58,322.23,370.28,322.1Z"/><path class="cls-17" d="M594,343.18c-.18,2.21-.9,3.58-2.88,3.45-2.16-.14-2.86-2.05-3.16-3.7-.36-2,1.48-2.81,3-2.88C593.19,340,593.62,341.87,594,343.18Z"/><path class="cls-18" d="M306.86,310.4c-.59,1.65-1.64,2.92-3.36,3s-3.26-1-3.13-2.82,1.09-3.56,3.36-3.26A3.66,3.66,0,0,1,306.86,310.4Z"/><path class="cls-19" d="M523.74,342.6c1.61.56,3.25,1.18,2.91,3.2-.28,1.62-1.18,3.15-3.16,3-1.66-.11-2.43-1.31-2.47-2.94A2.9,2.9,0,0,1,523.74,342.6Z"/><path class="cls-20" d="M416.74,346.72l-10.7,0A13,13,0,0,1,416.74,346.72Z"/><path class="cls-21" d="M481.13,347.75h-6.29A5.15,5.15,0,0,1,481.13,347.75Z"/><path class="cls-22" d="M519.36,518.75c-5.54,0-11.07-.13-16.6,0-3.15.1-4.73-.84-4.39-4.22a35.38,35.38,0,0,0,0-5.35c-.14-2.59,1.13-3.4,3.56-3.39q17.4.09,34.8,0c2.43,0,3.69.8,3.57,3.39a48.23,48.23,0,0,0,0,5.89c.2,2.87-1.19,3.71-3.85,3.66C530.78,518.67,525.07,518.75,519.36,518.75Z"/><path class="cls-2" d="M439.45,837c0,7.22,0,14.45,0,21.67,0,1.69-.6,3.56.92,5q-.06,8.09-.11,16.17c-1.72,1.62-3.9,1.63-6,1.64q-26,.11-52,0c-2.28,0-4.71.17-6.43-1.89q-2.19-21.29-4.37-42.58Z"/><path class="cls-8" d="M196,864.72c5.91,0,11.82.12,17.72-.06,3.18-.09,4.48.88,4.41,4.25-.18,8.77-.13,17.55,0,26.32,0,2.64-.72,4.39-3.24,5.5q-19.32,8.5-38.26-.72a4.16,4.16,0,0,1-2.65-4.18c.09-9.13.11-18.26,0-27.39,0-2.78,1-3.82,3.77-3.76C183.82,864.8,189.91,864.72,196,864.72Z"/><path class="cls-8" d="M277.77,864.72c5.72,0,11.45.14,17.17-.06,3.31-.12,4.87.68,4.77,4.41-.22,8.76-.12,17.53,0,26.29a4.54,4.54,0,0,1-2.69,4.69c-12.67,6.47-25.4,6.14-38.19.51-2.28-1-3.35-2.75-3.29-5.51.18-8.77.15-17.53,0-26.3,0-3,.93-4.17,4-4.08C265.6,864.83,271.69,864.72,277.77,864.72Z"/><path class="cls-23" d="M128.47,873.58c-5.09-6.69-7.44-13.2-3.43-22,6.75-14.73,11.33-30.42,18.84-44.87a.7.7,0,0,1,1.12,0c-4.7,21.25-6,42.8-5.68,64.49C136.33,874.93,132.57,875,128.47,873.58Z"/><path class="cls-24" d="M187.83,832.55c.06-4.3.22-8.59.14-12.88,0-2.31.77-3.36,3.1-3.07a3.25,3.25,0,0,0,.54,0c13.19-.63,13.18-.63,13.2,12.27,0,2,.13,3.93.2,5.9,0,5.15-.24,10.3-.09,15.45.08,2.86-1,3.52-3.71,3.62-13.22.52-13.21.6-13.23-12.77C188,838.23,187.88,835.39,187.83,832.55Z"/><path class="cls-25" d="M269.69,816.7c5.22.16,12.14-2.32,15.16,1,2.61,2.91.91,9.7,1.12,14.77-.07,5.54-.38,11.08-.12,16.59.18,3.88-1.26,5.08-4.91,4.72a45.81,45.81,0,0,0-7.5,0c-2.92.2-4.15-.75-4.08-3.9C269.59,838.84,269.6,827.77,269.69,816.7Z"/><path class="cls-26" d="M128.47,873.58c3.68-.51,7.38-.9,10.85-2.35v20.54C134.89,885.4,131.24,879.77,128.47,873.58Z"/><path class="cls-27" d="M334.21,887.36c2.83,4.07,8.23,3.5,11.66,6.48L334,902.91Q334.08,895.14,334.21,887.36Z"/><path class="cls-28" d="M145,806.74l-1.12,0a3.77,3.77,0,0,1,1.51-3.06C146.43,805,146.05,805.9,145,806.74Z"/><path class="cls-29" d="M203.17,737.77c-.13-2.11-.13-4.23-.41-6.31-1.26-9.35-1.29-9.35,6.75-12.82,7.78,5.16,14.78,11.59,23.89,14.63.46.15.5,1.55.74,2.37Z"/><path class="cls-30" d="M282.35,731.59c-.06,2.55,1.63,4.87,1,7.5l-12.72-1.26C274.57,735.84,277.56,732,282.35,731.59Z"/><path class="cls-25" d="M538.32,879.91l57.88-.25c2.49,0,5-.12,7.49-.19,7,3.15,14.09,6,20.56,10.19-.74,6.8-4,12.82-5.87,19.3-.77,2.77-4,2.52-6.53,2.56-9.82.13-19.64,0-29.46.05-12.14,0-24.28,0-36.42,0-2.62,0-5.43.45-7.53-1.84Z"/><path class="cls-25" d="M375.85,879.62l64.43.26-.06,29.85c-24.62,0-49.25-.09-73.88,0-3.48,0-5.42-.29-5.75-4.64-.42-5.53-3-10.56-6.15-15.21A153,153,0,0,1,375.85,879.62Z"/><path class="cls-10" d="M538.44,909.7c24.67,0,49.33-.09,74,.06,3.69,0,5.34-.75,5.79-4.76.61-5.54,3-10.61,6-15.34,8.44,3,14.82,9.08,21.67,14.44a32,32,0,0,1,5.38,5.22c3,3.82,1.09,8.46-3.68,9.19a27.82,27.82,0,0,1-4.29.11H545.59C537.89,918.62,537,917.55,538.44,909.7Z"/><path class="cls-9" d="M728.42,492.6l2.73-1.78c2.05-.89,3.87-2.2,6.41-3-1.91-.88-3.68.14-4.88-1.23-3.09-3.59-5.25-8-9.59-10.47-1.25-11.31-1.33-22.47,4-33,4-4.05,7.26,1.23,11.22,1-2.31-2.7-5.9-2.68-8.19-4.87-.76-1.67-.05-3.16.67-4.58,6.71-13.46,17.52-22.6,30.86-29a3.75,3.75,0,0,1,3.11-.19c2.68,2,2.4,5.75,4.78,8.45.39-3.8-3.49-6.72-1.47-10.38,9.67-5.26,20.11-5.08,30.56-4,5.79.58,11.6,1.64,16.63,5,2.09,3.93-2.21,6.61-2.18,10.5,2.62-2.55,2.16-6.71,5.48-8.37,3.26-.12,5.54,1.64,7.54,3.93a80.11,80.11,0,0,1,15.58,23.86c1.23,3.08,2.86,6.13,2.38,9.66-2.66,2.67.74,3.31,1.62,4.79,2.5,10.51,1.63,20.89-1.1,31.2a51.13,51.13,0,0,1-2.15,6.62c-.68,1.51-1.64,2.87-2.27,4.41C835,501.83,828,511,818.2,518c-1.44,1-2.82,2.16-4.65,2.45-3.43-2.4-3.94.54-4.89,2.69-6.73,5.25-14.86,6.33-22.88,7.78a39.74,39.74,0,0,1-16.29.06,6.52,6.52,0,0,1-4.57-1.79c-1.62-3.78,1.72-6.61,2.24-10.45-2.69,2.8-2.45,7.38-6.72,8.24-7.48-2-13.19-6.93-18.51-12a59.36,59.36,0,0,1-12.65-18.26A6.81,6.81,0,0,1,728.42,492.6Z"/><path class="cls-25" d="M815.3,405.91c-15.6-7.06-31.37-7.39-47.31-1.22-.74,1.28-1.94,1.35-3.22,1.2C749,412.46,737,423,730.36,439c.28,1.57-.59,2.53-1.76,3.33-3.85,8.64-5.12,17.72-4.88,27.11,0,2.19,1.22,4.59-.63,6.64l-4.37-3.63c-.91-29.8,11-52.66,36.82-67.92,30-17.7,71.9-8.53,92,20.06,18.73,26.58,18.58,59.53-.38,85.09-32,43.09-98.89,36.36-121.61-12.24-.53-1.14-1-2.29-1.53-3.44l4.35-1.44c6.19,12.64,14.25,23.67,26.73,30.86,1.83,1.06,3.76,2,5.65,2.93,1.52.3,3.09.53,4.13,1.89l4,1.42c14.1,3.25,28.11,3.2,42-1.14a37.29,37.29,0,0,0,3.82-1.29,65.28,65.28,0,0,0,34.24-32.48,20.16,20.16,0,0,0,1.77-4.45,67.24,67.24,0,0,0,.9-44.17,15.52,15.52,0,0,0-1.6-4.47c-4.8-13.11-15.26-21.64-24.9-30.83a16.26,16.26,0,0,0-6.53-3.63A3,3,0,0,1,815.3,405.91Z"/><path class="cls-31" d="M732.68,486.59c2.39.62,6-3.26,6.85.17.8,3.27-4,2.7-6.29,4-.55.3-1.38.08-2.09.1A7.15,7.15,0,0,0,732.68,486.59Z"/><path class="cls-6" d="M852.51,444.8c5.68,15.86,5.41,31.57-1.1,47.14-4.45.92-7.76-.9-10.38-4.36,3-10.39,5.26-20.85,4.47-31.79a34.84,34.84,0,0,0-1.15-7.82C846.48,445.39,849.1,444.1,852.51,444.8Z"/><path class="cls-6" d="M849.79,495.29c-6.94,15.65-18.61,26.37-34.33,32.86-2.64-2.23-4-4.83-2.39-8.29,11.61-7.06,20-17,26-29.11C843.49,490.2,846.84,492.27,849.79,495.29Z"/><path class="cls-8" d="M792.71,478.07c-5.2,1.16-9.67-.37-12.24-4.89s-2.87-9.42,1.13-13.69a21.64,21.64,0,0,0,1.57-2.1c1.26-2.15,3-2.89,5.42-2,5.92-.09,10.26,2.47,12.37,8,1.92,5.07.17,9.38-4.84,13.23C795.48,478.34,794.4,479,792.71,478.07Z"/><path class="cls-24" d="M792.71,478.07a4.54,4.54,0,0,0,3.41-1.41c3.22,2.93,3.82,7.19,5.07,11,1.46,4.36,3.45,5.28,7.31,3a34.72,34.72,0,0,1,4.8-1.8c-2.5,5.66-4.72,10.45-6.72,15.33-1,2.35-2.19,2.13-4.12,1.24-4.69-2.18-9.48-4.16-14.29-6.25.16-.32.23-.67.41-.75,8.74-3.88,8.64-3.84,5.36-12.93C793.1,483.18,790.69,480.93,792.71,478.07Z"/><path class="cls-24" d="M788.59,455.38l-5.42,2c-1.25-3.16-2.87-6.23-3.66-9.5-1.26-5.22-3.82-6.16-8.24-3.5-.89.54-2,.68-4.15,1.36,2.67-6,5-11.17,7.32-16.43.68-1.59,1.62-1,2.54-.54,4.86,2.18,9.7,4.41,14.56,6.62-.29.65-.35,1.14-.58,1.24-8,3.52-8,3.51-4.83,11.67C787,450.64,787.77,453,788.59,455.38Z"/><path class="cls-32" d="M812.06,529.37c-14.35,5.55-28.75,5.48-43.19.33a67.56,67.56,0,0,0,40-7.69C812.49,523.39,812.45,526.3,812.06,529.37Z"/><path class="cls-33" d="M825.1,410.87C837,418.23,846,428,851,441.31c-1.85,2.7-4.34,3.88-7.62,3.14-2.27-11.22-7.85-20.74-15.13-29.39C827.08,413.73,825.38,412.83,825.1,410.87Z"/><path class="cls-34" d="M812.06,529.37c-1-2.46-2.09-4.91-3.14-7.36.23-1.58-2-3.51.29-4.7s2.5,1.77,3.86,2.55c.8,2.77,1.59,5.53,2.39,8.29Z"/><path class="cls-35" d="M728.6,442.37a5.75,5.75,0,0,1,1.76-3.33c3.33.19,5.95,2.17,8.83,3.48,1.14.52,2.31,1.34,1.45,2.86s-2,1-3.23.52C734.48,444.71,731.94,442.53,728.6,442.37Z"/><path class="cls-36" d="M764.92,528.28a6,6,0,0,1-4.13-1.9c2.62-2.11,3.2-5.34,4.5-8.18.48-1.06,1.2-2.46,2.73-1.8s1.19,2,.67,3.18C767.45,522.48,766.18,525.38,764.92,528.28Z"/><path class="cls-37" d="M843.33,444.45l7.62-3.14a4.94,4.94,0,0,1,1.56,3.49L844.35,448c-1.3.38-2.94,1.48-3.69-.37C839.73,445.35,842.35,445.45,843.33,444.45Z"/><path class="cls-38" d="M764.77,405.89c.82-1.08,2-1.18,3.22-1.2q1.72,4.44,3.44,8.89c.52,1.33.47,2.55-1.14,2.94-1.23.3-1.89-.51-2.29-1.66C767,411.85,765.85,408.88,764.77,405.89Z"/><path class="cls-39" d="M849.79,495.29,839,490.76a3,3,0,0,1,2-3.18l10.38,4.36A5.07,5.07,0,0,1,849.79,495.29Z"/><path class="cls-38" d="M815.3,405.91a4.91,4.91,0,0,1,3.27,1.33c-1.3,2.88-2.58,5.76-3.92,8.62-.54,1.17-1.35,2.3-2.81,1.49a2.15,2.15,0,0,1-.58-2.86C812.52,411.59,813.94,408.77,815.3,405.91Z"/><path class="cls-40" d="M785.21,465.79c.16-2.22,1.82-4,5-4,3.52.1,4.89,2.27,4.8,5.64-.1,3.72-2.62,5-5.63,4.88C786.14,472.24,785.07,469.74,785.21,465.79Z"/></g></g></svg>