<svg xmlns="http://www.w3.org/2000/svg" viewBox="0 0 785.13 854.7"><defs><style>.cls-1{fill:#4b2c27;}.cls-2{fill:#beb2b0;}.cls-3{fill:#fbe7d4;}.cls-4{fill:#fadabd;}.cls-5{fill:#301d1a;}.cls-6{fill:#f7ba8e;}.cls-7{fill:#acc222;}.cls-8{fill:#ef880e;}.cls-9{fill:#f0caa9;}.cls-10{fill:#93a61c;}.cls-11{fill:#3d1501;}.cls-12{fill:#401805;}.cls-13{fill:#5b3a29;}.cls-14{fill:#e2ca7f;}.cls-15{fill:#f1ddca;}.cls-16{fill:#52352a;}.cls-17{fill:#ef9d9d;}.cls-18{fill:#fefefe;}.cls-19{fill:#ec6f6a;}.cls-20{fill:#ed746c;}.cls-21{fill:#ba805a;}.cls-22{fill:#c48961;}.cls-23{fill:#bf845c;}.cls-24{fill:#d0c96a;}.cls-25{fill:#d7c369;}.cls-26{fill:#f1b489;}.cls-27{fill:#fbf9f8;}.cls-28{fill:#ce936a;}.cls-29{fill:#e1ab81;}.cls-30{fill:#94a61c;}.cls-31{fill:#d05111;}.cls-32{fill:#4f312a;}.cls-33{fill:#4f3029;}.cls-34{fill:#4e2f29;}.cls-35{fill:#4e3029;}.cls-36{fill:#50312a;}.cls-37{fill:#51332b;}.cls-38{fill:#54352c;}.cls-39{fill:#52332b;}.cls-40{fill:#53342c;}.cls-41{fill:#51322b;}.cls-42{fill:#52342b;}.cls-43{fill:#51322a;}.cls-44{fill:#ec736e;}.cls-45{fill:#ec706c;}.cls-46{fill:#ec706b;}.cls-47{fill:#ed736c;}.cls-48{fill:#cb9067;}.cls-49{fill:#c78d64;}.cls-50{fill:#ca9067;}.cls-51{fill:#c98e66;}.cls-52{fill:#c1865e;}</style></defs><title>Page2_Boy</title><g id="Layer_2" data-name="Layer 2"><g id="Layer_2-2" data-name="Layer 2"><path class="cls-1" d="M217.37,620.83c-8.54,2.25-17.37,2.29-26.07,3.22-45.29,4.84-90.61,9.39-135.91,14.11-13.93,1.45-22.31-5.54-23.72-19.51q-7.94-78.2-16.09-156.36c-4.08-39.87-8-79.76-12.25-119.61C2.56,335.49,3.28,328,0,321.16v-2.35a12,12,0,0,0,0-8.23v-1.17c2.17-.43,2.16-2.58,3.08-4,3.4-5.15,7.78-8.47,14.21-9.12Q92,288.78,166.6,281q42.29-4.36,84.54-8.91c13.59-1.46,21.94,4.69,23.4,18.31,3.45,32.26,6.58,64.56,9.89,96.83q6.78,65.91,13.63,131.81c.18,1.73.08,3.5.11,5.25-1,2.92-.35,5.75.46,8.58a156,156,0,0,1,4.75,19.81,16.45,16.45,0,0,1-1.3,7.27c-2.69,4.9-5.51,9.66-12.06,9.84-2.62-1.26-2.44-3.77-2.67-6.07q-6.9-66.86-13.76-133.71c-4.09-40.31-8.47-80.58-12.22-120.92-1.11-11.91-6.25-17-18.08-16.68-18.59.54-37,3.34-55.49,5.13-29.22,2.83-58.4,6-87.6,8.89-22.2,2.22-44.41,4.3-66.56,7-12.41,1.5-17.1,8.15-15.85,20.59Q23.22,388.36,29,442.64c3.69,35.42,7.26,70.86,11.1,106.27,1.86,17.11,3.8,34.23,5.2,51.4,1.05,12.89,6.06,17.79,19.07,17.54,14.49-.28,28.81-2.72,43.22-4.06,29-2.7,58-5.93,87-8.79,6-.59,12.05-1.45,18.12-1.57,5,1,7,4.12,5.8,8.87C217.75,615.15,219.13,618.19,217.37,620.83Z"/><path class="cls-2" d="M0,310.58a6.61,6.61,0,0,1,0,8.23Z"/><path class="cls-3" d="M151.59,854.7c0-.32,0-.65-.05-1,2-2.18,4.29-1.86,6.68-.81a1.26,1.26,0,0,1,.42,1.78Z"/><path class="cls-4" d="M158.64,854.7l0-1c2.39-2.19,4.77-2.2,7.15,0,0,.32,0,.64-.07,1Z"/><path class="cls-5" d="M397.48,162.27c-1-6.13-3.7-12-2.39-19-10.14,3.93-19.86,6.1-30.12,4-7.23-1.5-12.56-6.35-13.58-12.68-1.26-7.81,1.94-14.06,8.86-18,8.45-4.88,17.76-5.55,27.53-5.77-5.9-16-7.42-32.19-3.34-48.51,3.53-14.14,10.25-26.62,22.37-35.37,12.3-8.88,31.37-4,38.35,9.5.71,1.37,1.22,2.83,2,4.67,4.12-11.28,9.59-21.26,18.75-28.73C476.41,3.81,488.17-1.17,502,.24c14.46,1.47,22.38,12.41,19.3,26.76-1.1,5.1-2.17,10.25-4.9,15.55,7.44-.6,14.08-1.89,20.8-2.44a157.3,157.3,0,0,1,61.11,7.25c28.16,8.93,56.94,16,84.48,26.79C720.69,89,748.84,115,767.28,151.23c19.88,39.11,22.89,79.93,10.32,121.7q-19.67,65.4-40.68,130.39c-13.16,40.64-39.29,70.89-76.55,91.56-3.8,2.1-4.47,3.49-.81,6.3,1.48,1.13,2.41,3,3.43,4.69,2.23,3.65,3.8,7.67.83,11.41a11.32,11.32,0,0,1-12.08,4.13c-2.88-.67-5.65-1.56-7.88-3.61-2-1.78-3.84-3.64-6.76-6.43a35,35,0,0,1,1,13.93c-1.37,9.84-8.11,14.9-18.09,13.85-10.2-1.07-19-5.35-27.36-10.88-2.53,1.22-4.28-.28-5.41-2.08-2.32-3.7-5.53-6.45-8.79-9.21a21.82,21.82,0,0,0-5-7.21c-13.43-12.39-14.8-28.22-12.76-44.94a37.76,37.76,0,0,1,3-11.34c2.42-5.18,1.28-9.54-1-14.46a72.16,72.16,0,0,1-4.68-50.37c1.79-7,3.95-7.61,9.77-3.32,16,11.87,32.82,12.78,50,2.88,16.38-9.43,26.81-23.67,29.91-42.21,3.89-23.21-6.82-36.92-29.59-44.3-7.83-2.53-15.22-1.16-22.1,2.58-12.1,6.57-22.56,14.54-25.34,29.49-2.13,11.45-9.37,16.64-20.32,15.89-10.79-.73-19.73-9.21-20.54-19.92-1.07-14.3,4.23-26,15.14-35.21,6.77-5.72,14.8-9.53,22.23-14.25,14.46-9.19,24.27-21.37,26.24-39a42.76,42.76,0,0,0-1.4-16.26,87.5,87.5,0,0,0-17.22-32.44c-3.08-3.73-5.75-4.29-9.89-1.32-11.21,8.06-24,12.28-37.66,13.69-22.81,2.35-35.73-11.31-32.54-34.16.41-2.89,1.43-5.67,1.53-9.08-3.45.45-6.38,2-9.46,2.91-5.65,1.71-11.33,3.18-17.29,2.84-7.64-.44-12.57-4.45-14.8-11.9a19.14,19.14,0,0,1,.08-3.12c0-.77-.79-.62-.33,0s-.94.54-.18.54c-11.55,13.5-24.95,23.11-43.89,20.15C404.11,172.24,398.76,169.42,397.48,162.27Z"/><path class="cls-6" d="M397.48,162.27c6.34,9.94,17.29,13,31.6,7.42,10-3.86,18.64-9.67,24.48-19,3.06-.32.87,2.85,2.38,3.57.68,8.18,9.38,13.39,20.31,11.23a87.51,87.51,0,0,0,19.34-6c1.08-.49,2.1-1.05,3.56-.16-1.83,6.57-3.37,13.26-3.09,20.28.54,13.88,8.83,23.09,22.71,23.68a70,70,0,0,0,45.69-14c4-2.95,6.6-4,10.34.55,11.49,13.89,20.26,29.15,20.7,47.42.27,11-3.6,21.54-11,30.45-7.81,9.44-18.06,15.46-28.46,21.33-15.66,8.85-25.58,21.2-24.75,40.13.35,8,4.9,13.56,11.66,16.87,6,2.95,12.63,4,18.73-.43,5.08-3.66,7.18-9.11,7.77-15a18.36,18.36,0,0,1,3.7-9.56c8.58-11.33,19.5-19.35,33.45-22.62,2.93-.68,6.11.47,9.18,1.17,27.16,6.24,39.08,24.69,32.93,49.76-5.94,24.23-21.16,40.68-45.87,46.44-13.49,3.15-26.34-.24-36.86-9.59-4-3.55-5.23-2.48-6.29,1.76-4.4,17.77-3.07,35.05,5,51.54,2.23,4.53,3.16,8.17,1,13.46A58.84,58.84,0,0,0,563.09,489a37.68,37.68,0,0,0,10.56,18.32c2.86,2.85,6.16,5.47,6.24,10.07.55,3.27-2.06,3.86-4.16,4.66A217.52,217.52,0,0,1,528.88,534c-2.12.29-4.3.53-6-1.29-.19-12-3.69-23.35-6.43-34.86-.52-2.18-2.08-3.18-4.46-4-20.32-6.65-41.15-11.76-61-19.77-17.48-7-33.3-16.78-46.86-30-11.31-11.05-22.27-22.33-29.75-36.52-3.36-6.36-2.1-10.27,5.18-10.91,11-1,19.92-5.93,28.82-11.73,4-2.58,6.23-6.37,9.05-9.77,1.56-1.87,1.62-3.9-1.74-4.59a51.2,51.2,0,0,1-7.11-2.55c5.31-5.44,10.45-11.14,18.58-12.36,1.22,2.16.87,4.55,1,6.87a35,35,0,0,0,30,33.25c17.06,2.36,34.2-8.05,38.61-24.54,6.93-25.91-12.41-45.45-32.54-45-2.5.06-5.12.38-7.36-1.27-1.74-2.83,0-5.52.3-8.27.78-2.07.77-4.3,1.3-6.42,1.05-4,.4-8.12.56-12.18,1.58-11,6-21.52,6.52-32.71.78-15.39,2.33-30.85-3.37-45.81a62.1,62.1,0,0,0-7.49-13.86c-7.73-11-23-12-32.81-7.9-17.7,7.44-28.75,21.8-38.15,37.62-8,13.52-13.56,28.13-17.57,43.34-1.53,5.81-3.2,6.3-6.92,2.61,6.89-18.12,11.59-36.93,17.48-55.37,2.32-7.27,4.58-14.56,6.71-21.89.7-2.44,1.6-4.84,1.25-7.45a18.36,18.36,0,0,1,3.07-8.49C394.22,180.75,394.66,171.06,397.48,162.27Z"/><path class="cls-7" d="M340.77,730.18c-2.95-4.93-7.52-8.38-11.57-12.25-2.87-2.75-3.39-4.67-1.19-8.25a291.78,291.78,0,0,1,46.1-57.77c1.24-1.19,3-2,3.22-4,4.7-7.11,12.28-10.69,19.13-14.94,11.59-7.19,24.26-11.43,38.16-11.36,14.66.08,27.15,6.33,39.37,13.4a158.15,158.15,0,0,1,25.37,18.74c23.14,21.29,43,45.36,60.94,71.15,2.79,4,6.17,7.69,8.32,12.07,3.13,6.4,7.48,9.17,14.49,6.56,3,.39,6.08.67,9.07-.36,7-1.76,14.28-1.56,21.38-2.73a20.18,20.18,0,0,0,6.21-1c5.68-1.59,11.58-1.85,17.32-3.1,1.52-.33,3.12-.49,4.42.75,2.51,6,1.33,12.32.86,18.45-1.76,22.65-8.15,43.44-25.45,59.44-9.87,9.13-21.74,14.49-34.81,17.09-13.28,2.64-26.77,3.25-40.27,3.45-4.34-2.25-9.27-2.08-13.85-3.49-23-7.06-42.21-19.75-58.67-37.33-11.92-12.73-21.21-27.05-29.54-42.17-2.63-4.78-3.06-4.74-6.15-.33-3.94,5.61-8.17,11-12.2,16.55-2.38,3.28-5.33,4.3-9.2,3.35-4.76-1.16-9.39-2.73-14.12-4-10.61-5.69-21.65-10.5-31.86-17-7.75-4.94-14.76-10.77-22-16.31C342.61,733.57,341.84,731.78,340.77,730.18Z"/><path class="cls-8" d="M641.51,737.11l-22.32,3.67c-1.79,1.23-4.09-.3-5.85,1.09l-21.09,2.4a19.29,19.29,0,0,1-9.34.11c-8.95,3.06-8.94,3-14.11-4.72-20.25-30.49-42.86-59-69.43-84.34,4.7-3.38,4.08-6.83,1.28-11.53-10.42-17.48-20.35-35.26-30.43-52.95-1.16-2-2.67-3.91-2.57-6.44-.46-4.24-3.5-7.28-5.16-11.22a218.23,218.23,0,0,1,41.17-19.81c6.35-2.29,10.53-5.27,11.07-12.23.39-5,2.91-8.08,8.15-8.48,19.12-1.33,37.31-6.59,55.17-13.2.76-.29,1.23-1.37,1.84-2.09,4.12.22,5.66,3.7,7.31,6.48a8.62,8.62,0,0,0,5.44,4.42c2.47,8.34,7.77,15.28,11.58,23,21.17,42.65,33.16,88.1,41.71,134.63,2.61,14.22,4.7,28.54,7.37,42.75.75,4-.08,5.59-4.14,6.15C646.58,735.12,643.64,735,641.51,737.11Z"/><path class="cls-9" d="M467.65,584.4c10.56,16.38,19.49,33.72,29.39,50.48,2,3.36,3.85,6.79,5.76,10.18,4,7,4,7-3.43,10.26-8.7-6.55-16.92-13.77-26.43-19.24-11.4-6.56-23.06-12.26-36.55-12.87-14.15-.65-26.95,3.71-38.82,10.86-7,4.21-13.51,9.21-20.24,13.86a116.82,116.82,0,0,1-32.68-28.68c-3.32-4.29-4.32-4.17-6.36.65-9.27,21.85-26,34.39-49,38.48-15.43,2.74-30.72,2.52-44.76-5.78-7.44-4.4-14-9.58-16.11-18.84-1.36-6-7.62-8.37-11-12.93-.69-2.4-2-5-.65-7.29,2.41-4.27.19-6.72-2.83-9.1-4.07-4.15-3.73-9.15-1.34-13.54,3.31-6.07,9.36-6.3,16-5.06-.2-2.16-.91-4-.93-5.81-.06-6.09,3.69-10.55,9.72-11.18a24.27,24.27,0,0,1,11.56,1.27,49.34,49.34,0,0,0,34.45.73,38.29,38.29,0,0,1,8-1.48,28,28,0,0,0,9.59-9.66c1.57-2.14,2.41-4.41,1.18-7-2.07-8.32-4.1-16.64-6.23-24.94-.55-2.16-1.08-4,2.31-3.43,24,.66,34,16,37.72,37.64,1.13,6.53,2.81,10.94,9.35,13.58,21.37,8.62,43.09,14.65,66.36,16.28C431.09,593.18,449.36,589.84,467.65,584.4Z"/><path class="cls-10" d="M398.47,767.71c4.71-1.19,8.6,1.8,12.85,2.76s6.73.83,9.36-3.07c5-7.41,10.61-14.38,16.65-22.43,23.11,45.11,54.15,80.19,106.65,89.2l-2.14,1.37c-16.94.91-33.88,1.87-50.82,2.72q-58.74,2.91-117.49,5.73c-6.23.3-12.46.38-18.69.56-1.9-1.89-1.65-4.36-1.49-6.62.61-8.87,0-17.53-3.7-25.74.16-2.29,2-3.22,3.59-4.28,15.31-10.3,27.59-23.9,40.36-37C395,769.54,395.6,766.88,398.47,767.71Z"/><path class="cls-8" d="M350.12,811.46c7.28,10.22,4.46,21.88,4.72,33.09-18,2-36.2,2.09-54.31,3.1-22,1.24-44,2.17-66.07,3.18-3.29.15-6.64.54-9.76-1.06-4.14-4.77-4-11.79.26-17,2.71-3.28,6.38-5.11,10.11-6.86,6.19-2.92,12.66-5.19,19-7.83,12.56-4.73,24.47-10.87,36.44-16.89,2.41-1.21,4.73-2.77,7.63-2.56,10.19,4.42,20.3,9,31.56,10.24,4.48.5,8.94.54,13.41.7C345.54,809.69,348.24,809.09,350.12,811.46Z"/><path class="cls-8" d="M165.76,853.74l-7.15,0h-7.07c-3.71.1-4.67-1.67-4.81-5.35q-2.37-59.24-5.19-118.44c-.18-3.82,1.06-5.86,4.57-7,5.43-1.78,11-.12,14,4.28,4.75,7,7.54,15,10.57,22.83a470.26,470.26,0,0,0,21,45.84c1.33,2.34.54,4.54-.52,6.69-6.13,12.47-8.67,25.82-9.71,39.54-.17,2.34-.12,4.71-1.8,6.64C175.35,851.27,170.92,853.51,165.76,853.74Z"/><path class="cls-11" d="M387.74,188.16c.77,3.18-.8,5.75-2.16,8.37-3.18,6.19-9,10.15-13.13,15.58-13.8,18.13-21.57,38.78-26.47,60.74-.8,3.58-.28,5.47,4.26,4.89a10.06,10.06,0,0,1,9.45,3.55c3.82,3.71,4,.46,4.74-2.35,5.93-21.9,14.55-42.52,28.91-60.4,6.31-7.86,13.5-14.63,22.34-19.62,18.95-10.68,37.61-4.31,46.3,15.67,7.14,16.42,6.67,33.54,5.23,50.8-.92,11-4.45,21.39-6.78,32.07a28.29,28.29,0,0,0-1.16,5.63c-2.21,8.58-6.79,16.13-10.55,24-4.47,7.55-8.94,15.11-14.76,21.75-2.16,2.45-4,5.37-7.42,6.33-5.85,4.45-11.48,9.22-18,12.77-2.65.54-5.34,1-8,1.63-11.79,3-20.92-1.4-28.58-10.08-1.28-1.46-2.65-2.84-4-4.26-4.27-3.16-5.28-8.14-6.43-12.74-3.17-12.7-4.76-25.56-2.9-38.73.67-4.78,2.45-10.2-2.85-13.92-8.23-4.82-11.8-2.75-12.72,7.44a12,12,0,0,1-5.59,6.67,2.25,2.25,0,0,1-2.47-.49c.74-38.66,12.08-73.46,37.6-103.06C377,195.47,381.05,190.2,387.74,188.16Z"/><path class="cls-9" d="M179.68,848.75c.5-17.47,2.93-34.47,11.65-50a8.08,8.08,0,0,0,.38-2.84c4.62,2.86,9.12.06,13.54-.55,16.28-2.24,32.48-5,48.71-7.52,1.66,1.72,1.58,3.93,1.64,6.07.18,6.64-.3,13.31.79,19.93a6.77,6.77,0,0,1-1.49,5.5c-7.34,3.13-14.85,5.91-22,9.48-10.14,5.1-12,10.32-8.24,21-13.77.85-27.43-.69-41.11-1.88A8.58,8.58,0,0,0,179.68,848.75Z"/><path class="cls-6" d="M337.07,303.49c1.6-1.87,3.19-3.75,4.79-5.63,4.63-3.47,8.83-7.57,14.33-9.76,4.1,2.08,5.52,4.93,4.81,9.88-2.84,19.66-1.57,39,7,57.29-2.83,1.67-5.1.19-7.36-1.32-4.43-3.6-8.14-7.71-9.47-13.49-.37-4.18-.35-8.37-.46-12.56,4.38-6.08,4.38-6.09-3.34-8.76a32.62,32.62,0,0,1-10.09-5.78c-.84-1.33-.64-2.92-1.14-4.33C336.1,307.12,335.84,305.19,337.07,303.49Z"/><path class="cls-12" d="M337,309.48l1.41,3.45c2.81,3.52,6,6.81,6.88,11.51,1.89,5.87,5.2,11.15,7.1,17l8.25,12.5c-6.67,0-10.47-4.78-14-9.26-7.66-9.85-10.32-21.53-10.86-33.78C335.38,309.71,335.91,309.35,337,309.48Z"/><path class="cls-13" d="M337,309.48l-1.18,1.43c-1.36-2.36-1-4.89-.78-7.41h2Z"/><path class="cls-9" d="M350.12,811.46c-18.64.61-36.49-2.22-52.77-12-1.13-2.68.89-4.4,2.07-6.27,4.47-7.08,8.61-14.36,13-21.48,1.23-2,2.6-4,1.31-6.49,9.67-.34,11.55-8.89,15.52-15,4.17-6.45,8.73-12.74,11.51-20,16.8,14.08,34.56,26.64,55.14,34.74,1.3.51,2.53,1.11,2.56,2.8-12.46,13.12-24.37,26.82-39.17,37.5C356.3,807.39,353.18,809.39,350.12,811.46Z"/><path class="cls-10" d="M313.74,765.23c3.46-.14,4,.82,2,3.9-6.3,10-12.3,20.22-18.42,30.34-14,7-27.77,14.38-42.45,19.84a280.68,280.68,0,0,1-.94-31.5c-.58-9.72,6.23-10.74,13.49-12.21C283,772.48,298.32,768.72,313.74,765.23Z"/><path class="cls-14" d="M291.32,569.37c-14.57,7.06-29.34,8-44.44,1.67-3.71-1.57-7.81-1.2-11.54-.48-5.51,1.06-8.13,9.25-5,14.36.66,1.08,2.08,1.77,1.76,3.44-2,.79-3.32-.87-4.92-1.29-9.15-2.44-15.5,2.89-14.46,12.27a43.63,43.63,0,0,0,1.16,5.1c-13.78,1.54-27.55,3.16-41.35,4.6q-49.87,5.19-99.78,10.22a109,109,0,0,1-12.88.77c-8.19-.14-14.35-5.12-15.38-13.32-2.21-17.45-3.88-35-5.72-52.47q-5.12-48.72-10.16-97.44Q24.29,415.09,20,373.36c-1.4-13.62-2.7-27.25-4.28-40.84-1.28-10.95,4.9-19.61,15.75-20.76,34.61-3.65,69.24-7.08,103.87-10.63Q184.65,296.08,234,291c2.72-.28,5.46-.42,8.19-.61,13.13-.89,19.62,4.77,20.95,17.91q7.5,73.83,15.13,147.64,5.53,54.28,11,108.57C289.38,566.27,288.67,568.58,291.32,569.37Z"/><path class="cls-15" d="M302.09,552.69c1.81,2.71,1.73,5.1-1.18,7Q301.51,556.2,302.09,552.69Z"/><path class="cls-16" d="M455.94,154.27c-1.79-.52-.22-3.29-2.38-3.57.22-1.34.86-2.39,1.81-.68C456,151.19,455.78,152.84,455.94,154.27Z"/><path class="cls-17" d="M426.54,355.21A164.22,164.22,0,0,0,447.48,327c2.31-2,4.84-3.34,8-3.17a3.81,3.81,0,0,1,1.54.84c8.4-.17,16.46.12,24.35,4.37,17.9,9.65,24.17,36.24,12.16,52.72-13.44,18.45-38,21.56-55.76,5.92a32.92,32.92,0,0,1-11.2-24.24C426.48,360.68,426.54,357.94,426.54,355.21Z"/><path class="cls-18" d="M385.58,196.53c2.26,5.57-1.54,10.14-2.92,14.91-6.34,22.06-13.33,43.93-20.17,65.85-.47,1.51-.44,3.69-2.8,4-4.58-1.42-9-3.62-14-1.5-1.49.63-2.55-.06-2.12-2.12"/><path class="cls-19" d="M586.39,353.53c0-2.12-.35-3.78.06-5.22,1.52-5.29.76-12.72,6.69-14.71,7.6-2.56,16.12-3.82,23.71,1.17,7,4.6,8.07,14.88,2.86,25.44-5,10.2-15.67,13.64-25.58,8.3C587.87,365.15,585.25,360,586.39,353.53Z"/><path class="cls-20" d="M511.11,351.84c-.23,2.26-1.45,4.13-3.85,4.29a3.69,3.69,0,0,1-4.09-4c.06-2.27,1.29-4.1,4.08-4C509.51,348.3,510.94,349.29,511.11,351.84Z"/><path class="cls-21" d="M458.35,302.4c-.05-2,1-3.45,2.08-4.94-.09,4.38,1.38,8.88-1,13.08l-.61-.61C457.41,307.5,458.93,304.89,458.35,302.4Z"/><path class="cls-22" d="M457,324.64l-1.1,0c-2.11-3.2-1.06-5.87,1.41-8.29l.93.06C458.82,319.32,457.07,321.85,457,324.64Z"/><path class="cls-23" d="M459.43,310.54c-.3,2,.88,4.26-1.17,5.9l.05,0c-1.42-2.32-2.61-4.59,1.17-5.87Z"/><path class="cls-24" d="M582.91,744.38l9.34-.11A9.28,9.28,0,0,1,582.91,744.38Z"/><path class="cls-25" d="M613.34,741.87c1.67-1.86,3.86-1,5.85-1.09C617.53,742.66,615.31,741.59,613.34,741.87Z"/><path class="cls-6" d="M456.05,286.07c-7.68,28.56-19.7,54.61-44.72,72.24-16.49,11.63-31.89,6.58-39.67-12.15-6.38-15.35-6.21-31.35-3.87-47.39,4-27.52,12.75-53.27,30.28-75.31,6.71-8.44,14.36-16.08,24.62-20.37,14.47-6.06,27.38-.6,33.25,14.11,5.18,13,6.46,26.58,5.36,40.37-.67,8.35-1.57,16.73-4.24,24.78-1.3.56-1.53-.53-2-1.28a5.16,5.16,0,0,0,.77,1.82A3,3,0,0,1,456.05,286.07Z"/><path class="cls-26" d="M459.48,310.59c-1.93,1.65-1,3.88-1.17,5.87-2,2.38-2.48,5.22-2.39,8.21l-8.44,2.3c3.82-8.1,8-16.05,10.87-24.57C460.58,304.88,459,307.88,459.48,310.59Z"/><path class="cls-27" d="M356.19,288.1c-4.14,4.19-8.48,8.08-14.33,9.76"/><path class="cls-28" d="M456.05,286.07c-.5-3-2.36-5.34-4.68-8.05,3.71.16,3.87,3.2,5.69,4.33Z"/><path class="cls-29" d="M344.18,324.58c-.76-4.45-4.83-7.27-5.73-11.65,4.12,2.11,7.8,5.14,12.58,5.85,2.32.35,5.42.77,5.57,3.27.17,2.9-2.5,4.52-5.4,5.09C347.92,328.85,346.76,324.78,344.18,324.58Z"/><path class="cls-10" d="M165.83,410.55c-9.7,1-19.39,2.06-29.1,3-3,.3-6.35,1.5-8.73-1.54s-.12-5.54,1-8.15q18.48-41.55,37-83.07c1.2-2.7,1.65-6.34,5.7-6.71s5,3.27,6.68,5.69c6.47,9.3,12.75,18.72,19.61,28.83,2.41-2.68,4.53-4.92,6.53-7.27,2.82-3.31,5.77-3.12,8.44-.07q22.62,25.83,45,51.81c3.45,4,2.09,7.42-3.26,8.06-14.13,1.71-28.31,3.13-42.47,4.6-8.55.89-17.1,1.68-25.65,2.51-3.17,1.18-4.87-.9-5.71-3.24-1.06-2.92,1.4-4.44,3.48-5.87,11.22-2.92,22.86-2.57,34.25-4.25,7.87-1.16,15.88-1.31,24.42-2.85-11.39-13.48-22.82-26.23-34.22-39.55-2.41,1.58-3.88,3.91-5.87,5.65-4.78,4.15-8,4-11.69-1.2-5.11-7.16-9.65-14.73-14.8-21.87-3-4.14-3.58-4-5.6.47-9.19,20.53-18.5,41-27.54,61.59-2.4,5.46-2.4,5.16,3.78,5s12.38-2.1,18.7-1.23c2.79.69,5.32,2,5,5.25A4.56,4.56,0,0,1,165.83,410.55Z"/><path class="cls-30" d="M68.07,574.17c0-10.61,7.46-18.08,18.07-18.06s18.34,7.47,18.44,17.87A18.46,18.46,0,0,1,86,592.63C75.85,592.71,68.08,584.72,68.07,574.17Z"/><path class="cls-31" d="M184.87,399.64c-4.34,5.25-4.34,5.25,1.83,8.63,2,3.23,5.6,4.75,8.23,7.33,1.89,1.86,3.94,3.86,1.8,6.46s-4.48,1.12-6.59-.62c-3.44-2.86-7.1-5.47-10.4-8.48-2.56-2.35-4.19-2.61-6.4.53-2.78,4-6.19,7.49-9.24,11.27-1.55,1.92-3.26,3-5.4,1.24s-1.6-3.79-.32-5.78c2.21-3.43,5.72-5.87,7.45-9.67,5.66-5.06,5.66-5.26-.06-8.47-3.85-1.64-6.86-4.49-9.93-7.19-2.51-2.22-4.27-5-1.42-8.1s5.74-1.43,8.25.67c2.71,2.26,5.53,4.38,8.15,6.72,3.05,2.73,5.47,2.29,7.77-1,2.15-3,4.81-5.67,7.12-8.58,1.94-2.42,4.44-4.44,7.5-2s2.32,5.65.2,8.33C190.89,394.15,188.92,397.94,184.87,399.64Z"/><path class="cls-32" d="M172,455.18c-2.73-.08-5.52.85-6-2.11-.55-3.45,2.58-3.64,4.78-3.57,4.32.14,4.82-2.11,4.17-5.5a27.08,27.08,0,0,1-.73-4.62,2.82,2.82,0,0,1,2.35-3,2.36,2.36,0,0,1,3,2.1c.73,4,1.4,8.09,1.8,12.17.24,2.36-1.34,3.42-3.64,3.64C175.61,454.53,173.49,455,172,455.18Z"/><path class="cls-32" d="M68,531.69c-2.38-.07-5.63,1.55-6.67-1.66-1.24-3.82-2-8-.78-12a2.11,2.11,0,0,1,2.81-1.41,3.56,3.56,0,0,1,2.31,3.71c-.36,4.6,1.46,6.31,6.06,5.48,1.76-.32,4.29-.72,4.59,2.11s-2,3.4-4.24,3.57C70.69,531.57,69.32,531.61,68,531.69Z"/><path class="cls-33" d="M212.92,559.11c-.27,2.37,1.39,5.61-2.11,6.53-3.9,1-8,2.07-12,.54a2,2,0,0,1-1.06-2.48,2.94,2.94,0,0,1,3.07-2.27c5.57.28,7-2.46,6.12-7.46-.28-1.59.36-3.24,2.31-3.48s2.82,1.28,3.15,2.82A49.07,49.07,0,0,1,212.92,559.11Z"/><path class="cls-34" d="M99.94,367.56a32.44,32.44,0,0,1,.41,4.39c-.09,1.37-.44,2.88-2.09,3.13a2.6,2.6,0,0,1-3.14-2.68c.07-5.56-2.37-7.64-7.84-6.53-1.59.32-3.24-.33-3.26-2.39a3,3,0,0,1,3-3.05c3.1-.33,6.29-.85,9.34-.47C101.85,360.64,98.78,365.6,99.94,367.56Z"/><path class="cls-33" d="M201.32,512.5c2.41.25,5.66-1.39,6.64,1.92,1.15,3.86,2,8,.77,12-.2.63-1.51,1.22-2.35,1.3a2.16,2.16,0,0,1-2.3-2.17c0-5.8-2.47-8.3-8.4-7.11a2.46,2.46,0,0,1-2.86-2.3c-.26-2,1.29-2.77,2.79-3.09A46.36,46.36,0,0,1,201.32,512.5Z"/><path class="cls-35" d="M44.59,371.17c.22-2.38-1.09-5.61,2-6.16,4-.72,8.48-3.16,12.33-.45,2.57,1.8.7,4.31-1.68,4.39-5.3.16-7.85,1.93-6.61,7.6.32,1.5-.1,3.25-2.16,3.47-2.3.23-3-1.46-3.3-3.26S44.75,372.91,44.59,371.17Z"/><path class="cls-33" d="M102.33,451.51c.09-1.77-.76-4.62,2.25-4.9,3.24-.31,3.6,2.55,3.45,4.92-.28,4.11,1.41,5,5.15,4.06,2.27-.56,5.27-.53,5.35,2.69.07,2.81-2.76,2.73-4.9,2.88l-.59,0C102.87,462.2,102.67,462,102.33,451.51Z"/><path class="cls-36" d="M147.18,572.7c-1.86-.16-4.62.81-4.89-2.38s2.46-3.08,4.5-3.32c5-.6,10.05-1.06,15.08-1.46,1.75-.14,3.75-.15,3.92,2.32.16,2.3-1.64,3-3.41,3.2C157.37,571.7,152.34,572.16,147.18,572.7Z"/><path class="cls-37" d="M139,524.54c-2.33-.26-5.57,1.13-5.87-2.25-.31-3.6,3.12-3.26,5.52-3.57,3.07-.41,6.17-.73,9.26-1,1.89-.17,3.69.3,4,2.47s-1.23,3-3.24,3.2C145.37,523.73,142.1,524.17,139,524.54Z"/><path class="cls-37" d="M109.19,527.61c-2,.22-3.73-.47-4-2.45-.29-2.15,1.49-2.91,3.38-3.11,4.06-.42,8.11-.86,12.18-1.18,1.66-.14,3.21.45,3.44,2.35s-1.3,2.84-2.86,3.06C117.31,526.86,113.24,527.19,109.19,527.61Z"/><path class="cls-37" d="M55.31,419.21c-.25,2.65,1,6.16-2.79,6.2-3.1,0-2.71-3.27-3-5.49-.41-2.9-.67-5.82-1-8.74-.25-2.15.18-4.23,2.57-4.52,2.14-.25,2.83,1.65,3.07,3.53C54.54,413.29,54.94,416.39,55.31,419.21Z"/><path class="cls-36" d="M61,475.55c-.06,1.53.54,3.92-2.18,4.31-3,.44-3.3-2-3.56-4.18-.42-3.67-.83-7.33-1.13-11a2.91,2.91,0,0,1,2.55-3.36c2-.3,2.72,1.41,3,2.91C60.23,467.86,60.55,471.54,61,475.55Z"/><path class="cls-36" d="M58.27,448.23c.26,2.07-.05,4.2-2.46,4.46-2.69.29-2.86-2-3.06-4-.38-3.66-.83-7.32-1.13-11-.12-1.6.19-3.28,2.12-3.62,2.33-.41,3.09,1.42,3.35,3.16C57.63,440.89,57.9,444.57,58.27,448.23Z"/><path class="cls-38" d="M135.15,458.64c-.74-.08-3.92,1-4-2.4-.09-3.06,2.9-3.06,5.22-3.27.77-.07,1.55-.11,2.32-.12,2.11,0,4.86-.51,5.13,2.36.3,3.23-2.57,3.26-4.91,3.42C138.12,458.68,137.34,458.64,135.15,458.64Z"/><path class="cls-39" d="M157.71,450.7c2.4,0,4.94.36,4.37,2.86-1.09,4.81-5.82,2.41-8.81,3.55-1.78.68-4.08-.53-3.77-2.45C150.31,449.55,155.32,452.4,157.71,450.7Z"/><path class="cls-40" d="M106.63,433.87c0,2.38-.26,4.54-2.7,4.77s-3.19-1.8-3.18-3.9c0-3-2.74-7.84,1.7-8.46C107.82,425.54,104.8,431.66,106.63,433.87Z"/><path class="cls-40" d="M103.49,402.78c-.2,2.14.94,4.92-2.13,5.34-3.34.45-3.57-2.53-3.59-4.73,0-2.76-2.2-7.33,2.22-7.65C104.13,395.45,102.74,400.24,103.49,402.78Z"/><path class="cls-39" d="M121,575.21c-2.55.17-5.11.54-5.54-2.26-.49-3.23,2.57-3,4.42-3.14,2.77-.3,7.17-2.61,7.86,1.49C128.66,576.58,123.23,574.16,121,575.21Z"/><path class="cls-41" d="M63.27,496.27c.33,3.07-.37,5.62-2.55,5.14-4.79-1.07-2.73-5.64-3.4-8.76-.36-1.71.06-4.25,2.16-3.95C64.59,489.44,61.84,494.42,63.27,496.27Z"/><path class="cls-42" d="M88.46,529.54c-2.23.19-4.58.36-4.79-2.25s2-3,4.08-3.2c2.67-.25,5.42-1.47,7.93.4a2.11,2.11,0,0,1,.5,2.69C94.34,530.52,90.89,528.73,88.46,529.54Z"/><path class="cls-43" d="M187.31,563c1.7,0,4.83-1.11,5.12,2.21s-3,2.89-5.19,3.28a15.33,15.33,0,0,1-2.31.34c-2.09.06-4.8.68-5-2.39-.21-2.9,2.33-3.12,4.54-3.28Z"/><path class="cls-36" d="M46.72,390.41c0-1.77-.73-4.66,1.92-5.09,3.08-.51,3.26,2.56,3.74,4.79a22.12,22.12,0,0,1,.32,2.29c.26,2.41.32,5.29-2.57,5.59-3.14.33-3.11-2.67-3.27-5C46.81,392.24,46.77,391.47,46.72,390.41Z"/><path class="cls-32" d="M165.72,521.86c-2.38,0-4.64,0-4.81-2.59s2.06-3.21,4-3c3,.23,8-2.35,8.37,2.09S168.07,520.54,165.72,521.86Z"/><path class="cls-44" d="M463.84,349.33c-.49,2.75-2.14,4.33-4.7,4.49s-3.18-1.76-3.21-3.9.85-3.83,3.26-4S463.13,347.12,463.84,349.33Z"/><path class="cls-45" d="M438.48,364.62c-3-.3-4.29-2-4.15-4.32.11-1.95,1.25-3.9,3.67-3.67,2,.18,3.87,1.08,3.75,3.57C441.64,362.49,440.68,364.27,438.48,364.62Z"/><path class="cls-46" d="M482.18,369.86c-2.23-.57-4.41-1.56-4.56-3.89s2.05-3.76,4.18-4c2.34-.29,3.35,1.58,3.46,3.68A3.89,3.89,0,0,1,482.18,369.86Z"/><path class="cls-47" d="M420.56,335.63a4.09,4.09,0,0,1,3.54,3.94c.18,2.62-1.27,3.95-3.9,4a3.37,3.37,0,0,1-3.77-3.56C416.4,337.55,418.14,336.22,420.56,335.63Z"/><path class="cls-48" d="M384.15,281.12c4.42-9.89,12.52-15.36,22.44-18.65.4.25.54.51.41.77s-.27.39-.4.39c-9.36,3.45-16.06,10.23-22.23,17.68Z"/><path class="cls-49" d="M406.6,263.63c0-.39,0-.77,0-1.16a33.84,33.84,0,0,1,21.53,1.07A64.24,64.24,0,0,0,406.6,263.63Z"/><path class="cls-50" d="M431,264.45c6.54,1.49,12.72,3.66,17.09,9.07A158.68,158.68,0,0,0,431,264.45Z"/><path class="cls-48" d="M384.37,281.31a39.85,39.85,0,0,1-6.38,12c1.17-4.5,2.65-8.85,6.16-12.19Z"/><path class="cls-51" d="M374.79,305.87c-1.29,3.12-.3,6.86-2.82,10.64-.9-4.41.6-7.49,1.71-10.63C374,305.37,374.41,305.34,374.79,305.87Z"/><path class="cls-52" d="M374.79,305.87c-.37,0-.74,0-1.11,0,0-1.46-.18-3,1.45-4C376.39,303.34,374.5,304.53,374.79,305.87Z"/><path class="cls-14" d="M184.87,399.64c2.67-3.35,5.39-6.67,8-10.07,1.55-2,2.22-4.29-.24-6.12s-4-.07-5.44,1.61a128.34,128.34,0,0,0-8,10c-2.53,3.7-4.81,4.39-8.25,1.06-3.07-3-6.53-5.55-9.89-8.22-1.9-1.51-4-2.83-6.11-.33s-.54,4.18,1.38,5.91c3.17,2.86,7,5,9.51,8.57l-27.37,2.4L173,327.33c6.4,9.46,12.15,17.93,17.87,26.43,5.53,8.21,6.72,8.32,13.36,1.13,1.44-1.56,2.85-3.15,4.41-4.88,12.53,14.4,24.93,28.66,38,43.62Z"/></g></g></svg>