<svg xmlns="http://www.w3.org/2000/svg" viewBox="0 0 1034.41 1009.41"><defs><style>.cls-1{fill:#4b2c27;}.cls-2{fill:#9d8c89;}.cls-3{fill:#b5a7a5;}.cls-4{fill:#301d1a;}.cls-5{fill:#f7ba8e;}.cls-6{fill:#acc222;}.cls-7{fill:#f8da04;}.cls-8{fill:#dee3ed;}.cls-9{fill:#cdcdcd;}.cls-10{fill:#cbc9c7;}.cls-11{fill:#ef880e;}.cls-12{fill:#f6976b;}.cls-13{fill:#e5e5e5;}.cls-14{fill:#fe8787;}.cls-15{fill:#efa64f;}.cls-16{fill:#5c2603;}.cls-17{fill:#5c2703;}.cls-18{fill:#cccac8;}.cls-19{fill:#dcd8d5;}.cls-20{fill:#dbd6d2;}.cls-21{fill:#f4f4f4;}.cls-22{fill:#f5e8e4;}.cls-23{fill:#e8ebf1;}.cls-24{fill:#502f2a;}.cls-25{fill:#ae8a78;}.cls-26{fill:#ec6f6a;}.cls-27{fill:#ed6a69;}.cls-28{fill:#ed6b69;}.cls-29{fill:#ed6868;}.cls-30{fill:#5d2703;}.cls-31{fill:#ed6969;}.cls-32{fill:#ed6968;}.cls-33{fill:#fefefd;}.cls-34{fill:#cbc9c8;}.cls-35{fill:#fefefe;}.cls-36{fill:#f9e7df;}.cls-37{fill:#b7aba8;}.cls-38{fill:#b4b4b4;}.cls-39{fill:#b6b6b7;}.cls-40{fill:#b3b3b3;}.cls-41{fill:#b5b5b6;}.cls-42{fill:#b5b5b5;}.cls-43{fill:#aaa;}.cls-44{fill:#b7b7b7;}.cls-45{fill:#bbb;}.cls-46{fill:#adadad;}.cls-47{fill:#bebebe;}.cls-48{fill:#b6b6b6;}.cls-49{fill:#acacac;}.cls-50{fill:#fefcfb;}.cls-51{fill:#dad0cb;}.cls-52{fill:#dfd3cd;}.cls-53{fill:#dcccc5;}.cls-54{fill:#dad1cd;}.cls-55{fill:#dfcbc2;}.cls-56{fill:#fdeee1;}.cls-57{fill:#d4734f;}.cls-58{fill:#ee6869;}.cls-59{fill:#ed6869;}.cls-60{fill:#362c2f;}.cls-61{fill:#ee696a;}.cls-62{fill:#8cc63f;stroke:#93c74a;stroke-width:18px;}</style></defs><title>Page3_Boy_1</title><g id="Layer_2" data-name="Layer 2"><g id="Layer_3" data-name="Layer 3"><path class="cls-1" d="M113.16,775.51c-6.75-6.19-11.11-13.67-10.74-23a52.14,52.14,0,0,1,5.91-22.4c2.09-4,4.26-7.9,6.56-12.12-1.89-.36-3,.79-4.23,1.35-18.46,8.39-35.79,7.32-51.7-6a31.12,31.12,0,0,1-5.65-6.49c-5.13-7.57-3.15-16.17,5.36-23.31,7.41-6.21,15.89-10.62,24.75-14.37,1.45-.61,2.9-1.26,5.31-2.31-5.62,0-9.42-1.79-12.36-5.36a29.22,29.22,0,0,1-6.22-11.88c-1-4.28.76-7.66,4.71-10,5.4-3.23,11.43-4.48,17.57-5.08,5.87-.57,11.76-1.28,17.67-.84,2.1.16,2.59-.41,2-2.46-4.93-18.13-3.77-36.29-.22-54.46,4.18-21.39,13.21-40.42,27.84-56.67,1.61-1.79,1.25-2.77,0-4.46A194.47,194.47,0,0,1,124,489.29c-5-10-3.51-14.57,5.25-21.26,9.71-7.42,20.33-12.12,32.49-13.35.29,0,.54-.48.81-.74h5c.55.6,1.28.38,1.95.43,1-.15,2.09.36,3-.43h1.65c2.94,1.56,6.3.73,9.37,1.67,6.72,2,11.45,4.25,8.94,13.39-1.36,5-2,10.16-3,15.23-.58,2.81-.5,4,3.11,2.87,22.46-7,45.58-9.11,69-8.17,22.77.92,45.22,3.73,66.47,12.73,24.5,10.38,42.18,27.05,49.48,53.32a64,64,0,0,1,2.29,16.18c.81,5.26-1,9.59-4.39,13.57-5.08,5.93-11.61,9.62-18.67,12.46a93,93,0,0,1-30.91,6.38A115.19,115.19,0,0,1,282.37,587c-7.21-2.51-14.66-3.68-22.28-1.52a22.9,22.9,0,0,0-13.6,10c-4.84,7.62-6.73,16.1-7.82,24.91-1.17,9.45-.67,18.91-.79,28.37A41.76,41.76,0,0,1,235,664.08,18.59,18.59,0,0,1,217.32,676a11,11,0,0,1-6.93-2.14,40,40,0,0,0-11.72-5.93c-6.08-2-12-1.09-16.78,2.83-13,10.62-16,24.37-3.48,38.55a63.57,63.57,0,0,0,16.38,13,44.56,44.56,0,0,1,16.41,15.85c3.92,6.5,3.57,10.44-1.11,15.63-8.16,6-17.44,7-27.09,5.78A59.56,59.56,0,0,1,164.94,754c-3.33-1.6-3.75-1.35-3.75,2.39,0,5.82-.6,11.49-2.92,16.92-4.28,10-12.35,14.57-23.09,12.86A56,56,0,0,1,116,778.87,5.36,5.36,0,0,1,113.16,775.51Z"/><path class="cls-2" d="M172.41,453.94c-.88,1.36-2.18.69-3.34.7-.24-.17-.31-.33-.22-.48s.17-.22.26-.22Z"/><path class="cls-3" d="M169.11,453.94a5.37,5.37,0,0,1,0,.7c-.68.1-1.4.29-1.61-.7Z"/><path class="cls-4" d="M631.17,614.61c1.39-22.81,2.23-45.69,7.44-68.07,3.21-13.78,10.66-24.9,21.31-34.19,22.39-19.49,47.87-32.75,77-38.8,38.16-7.92,74.2-1.87,108.25,16.81.6.33,1.08.82,2,.64,1.21-4.24.72-8.89,2.35-13.12a18.75,18.75,0,0,1,1.81-4.08c1.75-2.45,3.79-2.53,5.66-.05,2.6,3.45,2.79,7.64,3.41,11.66.35,2.29.44,4.62.68,7.29,3.73-1.84,7.1-3.73,10.66-5.2,3.1-1.27,7.3-3.39,9.46-.25,2.38,3.48-1.56,6.39-3.85,8.95a64,64,0,0,1-10.7,9.12c10.43,9.39,19.13,19.74,25.45,31.91a117.93,117.93,0,0,1,13,45.31c1.94,23.72-2.25,46.21-11.78,67.84-6.76,15.32-16.61,28.57-27.63,41-.68.77-1.3,1.85-2.67,1.47-1.71-2.08-.09-3.93.55-5.74,3-8.45,3.17-16.67-1.79-24.49-6.79-10.7-20.38-10.72-27.26-.07-3.83,5.93-5.31,12.59-5.92,19.5-.11,1.23,0,2.48-.16,3.7-.53,3.38-2.42,4.55-5.56,3.08a28.45,28.45,0,0,1-10.41-8.53c-8.27-10.61-8-22.38-4.63-34.48,2.6-9.39,5.76-18.62,7.76-28.17,1.47-7,2.86-14,1.53-21.17-1.87-10.09-9.35-15.64-19.58-14.32a111.67,111.67,0,0,0-14.9,3.21,110.85,110.85,0,0,1-53.8,1.55c-12.33-2.75-23.61-8.09-34.5-14.3-6.56-3.74-13-7.75-19.26-11.92-7.9-5.23-13.66-4.3-19.75,3a52,52,0,0,0-7.3,12.37c-4.45,10.07-7.5,20.62-10.92,31.05a38,38,0,0,1-2.42,6.12C633.92,614.73,633,616,631.17,614.61Z"/><path class="cls-5" d="M631.17,614.61c1.56.28,1.87-.59,2.44-1.92,4.19-9.87,6.4-20.4,10.46-30.3,3.08-7.53,5.92-15.19,11.79-21.15,6.24-6.34,11.93-7,19.31-2.06C686,566.44,697,573.29,708.9,578.73a104.09,104.09,0,0,0,55.3,8.86c10.9-1.15,21.17-4.67,31.85-6.56,11.78-2.08,21.2,4.65,22.55,16.45,1.28,11.1-2,21.47-4.57,31.95-2.07,8.39-5.15,16.5-6.81,25-2.41,12.38,4.16,27,15.37,33,4,2.14,4.57,1.82,4.66-2.7.17-8.85,2-17.13,7.29-24.53,5.47-7.7,15.47-8.83,23-3.79,9.66,6.44,11.83,20.76,6.69,32.64-.53,1.23-1.38,2.37-1.22,3.82a99,99,0,0,1-22.31,17.46,41.1,41.1,0,0,1-9.75,4.24c-1.13.3-2.49.54-2.7,2.11-3.36,20-13,35.85-30.42,46.75-6.2,3.88-13.18,5.42-20.13,7-5.38,1.21-6.92-.15-8-5.85.86-2.72-.89-5-1.29-7.54-.26-1.66-2-1.49-3.43-1a141.33,141.33,0,0,1-45.06,7.61c-14.61.09-29.1-2.07-42.92-7.59-12.14-4.85-22.44-12.37-32.18-20.81-.91-.79-2-1.52-2.23-2.86,2.17-1.12,4,.21,5.84.91a103.73,103.73,0,0,0,37.73,7.1,71.84,71.84,0,0,0,17.06-2.26,12.82,12.82,0,0,1,4.83-.74c2.49.43,3.9,2.42,5.61,4,13.61,12.3,34.65,10.31,45.31-4.3a28.69,28.69,0,0,0-7-40.34c-1.53-1.07-3.55-1.63-4.17-3.73.35-3.25,2.52-5.73,3.68-8.64a46.5,46.5,0,0,0,3-21,18,18,0,0,0-5.86-12.39c-8.47-7.58-18.47-11-29.66-8.26-9,2.22-14.36,9.23-18.48,17.13-2,3.79-3.09,7.93-4.31,12-.38,1.27-.81,2.68.37,3.94,1.77-.89,1.68-2.73,2.08-4.22a52,52,0,0,1,8.62-18.11c6.26-8.33,14.7-10.92,24.47-8.83,16.6,3.56,23.84,15.57,19.68,32-1.42,5.6-3.16,11.09-7.42,15.34a5.67,5.67,0,0,1-3.23.29,32.55,32.55,0,0,0-23.29,4.35,5.61,5.61,0,0,1-1.52.58c-2.51,0-3.87,1.37-4.2,3.83-4.56,6-7.2,12.73-7,20.43a33.44,33.44,0,0,0,1.38,8c.47,1.68,1.26,3.37.15,5.11-7.35,3.61-15.24,4.48-23.23,4A108.39,108.39,0,0,1,646,729.84c-1.51-.65-3.13-1.11-4.15-2.55-.71-1.93,1-2.64,1.95-3.64,8-8.16,11.2-17.6,7.82-28.83-.52-1.72-1.09-3.44.18-5.08.75-1,2.47-1.69,1.63-3.29-1.19-2.28-3.11-.35-4.69-.55a7.1,7.1,0,0,1-3.33-2.31,31.84,31.84,0,0,0-24-9.86,2.25,2.25,0,0,1-1.88-.56,79.16,79.16,0,0,1,9-23.5c3-5.13,1.31-11.25,2.38-16.84.68-3.56-.8-7.33.93-10.82,9.92-1.67,19.36-1,27.84,5.26,7,5.24,9.31,12.31,8.46,20.63a55.25,55.25,0,0,1-4.2,15.88c-.62,1.47-1.63,2.91-1.1,4.8,1.71.32,2.06-1.11,2.45-2.1,2.75-7.05,5.25-14.14,5.12-21.9-.18-11.15-6.67-20.08-17.36-23.42-5.85-1.82-11.75-2.92-17.86-1.35a4.87,4.87,0,0,1-3.24,0Z"/><path class="cls-5" d="M209.46,753.33c4.32-5.34,4.55-9.27.43-15.28s-8.91-11.13-15.41-14.59a62.91,62.91,0,0,1-17.78-14.52c-13.33-15.27-6.77-38.18,12.24-42.57,7.7-1.78,14.33,1.37,20.53,5.38,8.53,5.52,18.31,3.19,23.35-5.78,2.84-5.05,3.79-10.59,3.94-16.24.26-9.87-.43-19.77.76-29.63.95-7.81,2.47-15.47,6.37-22.4,6.36-11.29,16.56-16,29.45-14,9.7,1.46,18.57,5.9,28.25,7.41,21.13,3.28,41.63,1.82,61-7.88A37.09,37.09,0,0,0,374,574.5a20.93,20.93,0,0,0,5.63-13.35c1.4,5.79,2.11,11.76,4.59,17.26-.7,1.45.19,2.67.58,4a13.88,13.88,0,0,0,1.11,5c2.5,18.37,3.1,36.86,3.92,55.35.4,9,1.14,18,6.32,26a21.51,21.51,0,0,1,3.76,13.65c-.76,1.65-2.26,1.11-3.57,1.21-9,.64-17.2,3-23.08,10.52a4.08,4.08,0,0,1-3,1.86,9.65,9.65,0,0,1-2-.44c-1.06-.24-2,0-2.36,1.06-.32.94.41,1.49,1.12,2a3,3,0,0,1,1.4,1.45c-.3,4.45-2.16,8.6-1.95,13.23A29.16,29.16,0,0,0,374,731.73c1.39,1.58,3.51,2.75,3.33,5.33-.67,1.55-2.15,2-3.53,2.6a109,109,0,0,1-40.31,8.76,46.42,46.42,0,0,1-20-3.69,3.41,3.41,0,0,1-1.15-4.05c3.68-10.87,1.8-20.75-5.21-29.73-.5-2.26-1.53-4-4.18-3.94-7.51-3.93-15.24-6.77-23.94-5.08a7.12,7.12,0,0,1-4-.11c-1.47-.7-2.08-2.11-2.84-3.41a46.56,46.56,0,0,1-5.68-17.1c-1.94-13.53,6.12-23.94,20.59-27.12,11-2.42,19.37,1.23,25.86,10.06a49,49,0,0,1,7.67,17.2c.36,1.37.23,3.06,1.75,4,1-1,.76-2.1.48-3.11-2.21-7.83-4.82-15.4-10.42-21.69-7.12-8-15.65-10.8-25.94-8.1-4.24,1.11-8.45,2.45-12.11,5.05-8.75,6.22-11.17,14.88-9.71,25a47.4,47.4,0,0,0,4.86,14.81c.86,1.7,2,3.34,1.78,5.4-.44,2-2.2,2.67-3.62,3.7-15.35,11.13-15.83,29.41-6.31,41.55,11.28,14.38,34.16,14,45.36,1.34.9-1,1.66-2.19,3.06-2.65A6,6,0,0,1,313,747c19.63,5.58,38.66,3,57.4-4.07,2.61-1,5-3,8.08-2.38,1.06,2.43-1.08,3.46-2.29,4.69A88.79,88.79,0,0,1,335.34,769c-23.41,6.36-46.77,5.43-70.07-.67-.66-.17-1.31-.39-2-.58-6-1.7-6-1.7-8.37,4.13-3.36,7.46-3.41,7.66-11.3,5.65-12.79-3.26-24.21-8.91-32.36-19.81C210.29,756.44,209.05,755.21,209.46,753.33Z"/><path class="cls-6" d="M209.46,753.33c9.33,14.76,23.6,21.36,40.09,24.33a2,2,0,0,0,2.5-1.47c.57-1.38,1.22-2.73,1.84-4.09,5.18,2.43,8.56,7,8.35,12.18C261.88,793.33,268,797,274,800.91s12.39,2.28,18.63.15c1.62-.55,3.07-2,5-1.07,9.16,6.18,19.07,11.08,28.59,16.64,5.88,3.45,11.79,6.85,17.82,10,1.91,1,2.13,2.16,1.55,3.89-.26.33-.62.72-1,.67-8.11-1.21-12.2,4.3-16,9.85a52.69,52.69,0,0,0-7,15.2c-1.52,5.25-.35,6.57,5,5.82,1.75-.25,3.51-.69,5.14.45.35,4.5-1.08,6.21-5.07,5.41-24.37-4.85-47.51-12.59-66.81-29.08A72.28,72.28,0,0,1,248,825.8c-1.36-1.91-2.67-2.56-3.85,0-4.64,9.93-9.38,19.83-13.89,29.83a6.93,6.93,0,0,0-.45,3.64c7.87,20,16.19,39.78,24.32,59.66.47,1.14.93,2.28,1.37,3.43,1.86,4.93,1.54,5.61-3.49,7.52-9.76,3.24-19.67,6-29.33,9.57-10.47,3.39-8.73,3.67-14.91-4.93-8.33-11.61-16.72-23.19-23.63-35.72-1.84-3.34-4.22-4.57-8-4.44-14.41.5-28.82,1.25-43.25.88-11.91-.3-23.53-2.08-34.52-6.93-5.67-2.5-11.17-5.31-15.69-9.69-.33-.58-.63-1.17-.93-1.76-2.9-3.8-7-6.47-9.61-10.6a3.77,3.77,0,0,1-.53-3.65A384.66,384.66,0,0,1,97.51,798a124.13,124.13,0,0,1,15.65-22.53,52.19,52.19,0,0,0,20.49,9.14c13.81,2.7,23.36-4.1,25.62-18.1a98.47,98.47,0,0,0,.82-16C176.45,758.54,192.63,763.07,209.46,753.33Z"/><path class="cls-7" d="M769.71,764.58c4,6,4.14,5.87,12,4,20.52-4.93,33.46-18.3,41.58-37,1.61-3.71,2.28-7.85,3.25-11.82.31-1.23.44-2.43,1.73-3,28.12,10.76,53.88,25.69,78.06,43.54,11.23,8.29,19.21,19.12,25.69,31.15,11.41,21.18,19.57,43.71,27,66.53.7,2.16.11,3.56-1.12,5.24-3,4-6.75,7.19-10.07,10.83-3.2,5.22-8.7,7.45-13.75,10-11.24,5.63-23.37,7.88-35.87,8-13.32.14-26.64,0-40,0a60.22,60.22,0,0,1-13-1.51c-1.74-2.35.17-4.17,1.12-5.92a150.92,150.92,0,0,0,9.12-19.81c4.64-12.63,6.07-25.94,7.7-39.12,1.83-14.69,3.31-29.47,2.75-44.33a110.61,110.61,0,0,0-3-22.82,36.77,36.77,0,0,0-2.86-7.26c-4.66-9.41-13.3-10-21.13-5a26.83,26.83,0,0,0-7.5,7.55c-7.73,11.23-12.55,23.76-16.59,36.64C810.5,804.07,807.52,818,804.51,832a124.91,124.91,0,0,1-5.16,17.36c-.61,1.64-1,3.47-2.7,4.48-2.09-.51-2.32-2.46-3-4-2.57-5.58-5.13-11.16-8-16.56-4.64-11-11.08-21-16.89-31.33a67.86,67.86,0,0,1-7.57-19.39c-.34-1.61-.86-3.21.38-4.68C762.39,772.32,766,768.44,769.71,764.58Z"/><path class="cls-8" d="M387.73,833.93l22.19-10.69c3.24-1.56,5.68-2.17,8.76,1.4,13,15.07,28.82,27.19,43.46,40.56,12.22,11.17,24.76,22.12,34.39,35.79,7.24,10.29,9.83,22.1,10.82,34.38.14,1.72-.35,3.57,1.28,5.1,4.35-11.84,10.85-22.24,20.39-30.42a153.25,153.25,0,0,1,27.07-18.49c22.34-12.07,43.69-25.57,62.83-42.42,6.4-5.64,12.3-11.75,18.3-17.77,2.29-2.29,3.57-2.3,5.86,0,15.66,15.82,31.45,31.49,47.21,47.21a33.26,33.26,0,0,0,3,2.81c4.62,3.56,4.63,3.91.05,7.72a122.31,122.31,0,0,1-35.49,20.3,165.31,165.31,0,0,1-55.62,11.05c-3.56,1.44-7.39.84-11.06,1.45a6.84,6.84,0,0,1-2,.07,26.62,26.62,0,0,0-8.77-.23,19,19,0,0,0-4.76.38A66.35,66.35,0,0,0,534,936.68a75.49,75.49,0,0,0-20.19,24.16c-2.52,2.89-3,6.87-5.25,9.91a2.3,2.3,0,0,1-1.12.48,2,2,0,0,1-1.16-.37,3.43,3.43,0,0,1-.62-1.06c-2.2-14.4-7.65-27.49-17.06-38.6a128.86,128.86,0,0,0-33-27.6,8.56,8.56,0,0,1-3-2.14c-2.59-3.52-6.69-5.07-10.05-7.57a196.4,196.4,0,0,0-22.43-14.21c-7.41-4.63-14.84-9.25-22.52-13.46-.34-.19-.67-.4-1-.62-8.9-5.09-17.72-10.32-26.93-14.83-1.34-.66-2.77-1.25-3.33-2.85a4.53,4.53,0,0,1,.7-3.61,51.18,51.18,0,0,1,13.52-8C383.2,836,385.1,833.9,387.73,833.93Z"/><path class="cls-1" d="M297.62,800c-3.55,1.4-6.92,3.13-10.81,3.73-9.6,1.48-20.76-3.87-25.36-12.51a2.36,2.36,0,0,1-.43-1.51c2.26-7.41-2-12.23-6.62-17-.19-.2-.34-.43-.51-.64,2.13-7.71,2.09-7.56,9.49-5.53,28,7.7,55.88,8.48,83.21-2.72,12.41-5.08,23.46-12.37,32-23,.63-1.63,2.07-2.36,3.48-3.08a5.39,5.39,0,0,0,3.18-4.26c1.54-3.52,3.91-6.56,5.79-9.88,7.18-12.67,9.32-26.36,8.56-40.68-.94-4.43-1.52-9.09-4-12.91-4.58-7.17-6.35-14.88-6.68-23.27-.77-20-2.09-40-3.77-59.89-.24-.82-.77-1.74.75-1.84q6.6,21.27,11.29,43.06c.79,3.69,2.69,4.34,5.82,4.74,11,1.37,21.83,3.35,32.2,7.38,1,.39,2,.81,3,1.29,10.33,5.12,10.56,10.53,1.61,18.55-3.92,3.51-9.11,4.83-14.29,5.74-1.42.25-2.84.56-4.91,1a73.93,73.93,0,0,1,16.54,15c7.88,10,11.69,20.95,8.19,33.63-3.27,11.83-11.27,15.59-22.58,10.77-.95,1.22.27,2,.68,2.87,4.15,8.36,7.69,17,8.54,26.31,1.39,15.25-5.2,25.38-23.22,28.36-14.31,2.36-28-1-41.69-4.45-1.56-.39-3.08-.86-5.18-1.46,4.77,7,8.27,13.86,9.89,21.61,2.35,11.25-6.5,19.77-17.87,17.79-12.11-2.11-20.61-9.68-28.87-17.7A96,96,0,0,1,313.24,785C308.9,791.33,303.43,795.85,297.62,800Z"/><path class="cls-1" d="M844.8,889.9a544.5,544.5,0,0,0,56.27.83A77.9,77.9,0,0,0,947.8,874v3c.41,5.23-2.12,9.42-4.81,13.54-.9,1.38-1.77,2.77-2.55,4.18,1.89,1.85,4.18.43,6.25.75,1.7.27,3.48,0,5.21.26,8.72,3.56,14.22,10.34,18.14,18.52,1.67,3.49,3.83,7,3.16,11.19.84,2.25,0,3.69-1.86,5.18a193.44,193.44,0,0,1-86.8,40.26c-23,4.36-45.73,3.4-68.48-1.17a6.42,6.42,0,0,1-1.09-.45c-3.83.81-6.78-1.36-9.81-3-1.53-.84-1.53-2.46-1-4a56.93,56.93,0,0,0,1.85-6.68c.91-4-.23-7.49-2.47-10.8-1.34-2-3.23-3.86-2.19-6.66,1.63-1.89,3.6-1.1,5.29-.38,3,1.24,4.75.36,6.58-2.13,10.16-13.83,19.61-28.12,28.58-42.74C842.56,891.63,842.76,889.78,844.8,889.9Z"/><path class="cls-1" d="M82.46,877.46c14.12,11.12,30.4,15.9,48.14,16.47,15.93.5,31.83-.27,47.73-.83,2.43-.08,4,.37,5.3,2.71,8.39,15,18.5,28.83,28.38,42.83,1.32,1.87,2.5,2.51,4.68,1.61,1.88-.77,3.77-1.67,5.89-1.64,2,2.19.62,4.22-.63,5.88-3.95,5.26-3.88,10.91-1.81,16.69,1.11,3.06.42,5.13-2.5,6.25-4.13,1.58-7.41,5.12-12.17,5.2-37,7.18-72.49,2.25-106.53-13.77a188.69,188.69,0,0,1-37.86-23.49c-2.77-2.22-3.71-4.26-2.64-7.44-.07-6.4,3.31-11.42,6.75-16.35a40,40,0,0,1,8.48-8.3c5.23-4.12,11-2.77,16.43-2.57C86.05,893.87,79.72,887.18,82.46,877.46Z"/><path class="cls-9" d="M472.72,992.94c-13.17,0-26.33.59-39.46,1.11-14.64.58-29.29.92-43.91,1.63-14,.69-27.93.91-41.86,1.63-14.64.77-29.27,1.27-43.92,1.65-5,.13-10.11.41-15.16.75-4.14.27-4.51-2.22-3.59-4.88,1.7-4.9,3.85-9.64,6-14.37,3.58-7.7,10.3-8.68,17.47-9.76,14.6-2.21,29.07-5.08,43.08-9.88,3.63-3,8.44-3.42,12.43-5.64a154.58,154.58,0,0,0,20.87-10.64c14.25-8.45,29.5-13.6,46.21-14.55,31.41-1.79,55,11.61,72.73,36.66a6.49,6.49,0,0,1,1.6,3.71c-.84,2.72-3.45,3.79-5.36,5.4-6.45,5.45-13.21,10.51-19.78,15.82C477.75,993.49,475,991.75,472.72,992.94Z"/><path class="cls-9" d="M719.33,974.94c5.49,6.41,8.87,14,12.23,21.63,1.11,2.5-.24,3.86-3.31,3.87-12.89,0-25.63-2.07-38.56-1.82-18.21.35-36.4-1.33-54.6-1.93-13.66-.45-27.42-.29-41-1.49-14.1-1.26-28.18-1-42.27-1.58-5.18-.22-10.38-.48-15.58-.68a16.42,16.42,0,0,1-9.17-5.67c-4.2-5.26-10.48-8.17-14.87-13.2-1-1.2-2.58-2.08-2.65-4a4.7,4.7,0,0,1,1.84-2.66c12.75-10,25.75-19.58,41.37-25,19.74-6.89,39.11-5.52,58.41,1.51,11.37,4.14,22.29,9.34,33.33,14.24a140.06,140.06,0,0,0,28.91,9.43c1.44.29,3.07.29,4,1.72,5.94,2.13,12.19,2.69,18.37,3.52C703.6,973.91,711.46,974.5,719.33,974.94Z"/><path class="cls-5" d="M802.05,937.52a5.6,5.6,0,0,0,1.5,5.29c5.12,5.8,4.74,12.31,1.93,18.77-1.32,3-.44,4.09,2.22,5,2.45.8,4.85,1.79,7.27,2.69,0,3.29,3.6,3.47,4.85,5.67.79,1.39,3.59,2,2.08,4.24a5.12,5.12,0,0,1-5.79,2.1c-4-1-8.08-1.44-11.78-3.36a5.21,5.21,0,0,0-3.9-.19c2.61,3.5,5,6.84,7.52,10a30.81,30.81,0,0,1,3.9,7.17c1.1,2.52,1,4.6-1.31,6.61s-4.39,1.77-6.82.78c-7.42-3-12.25-9.09-17.41-14.72-1.35-1.48-2.34-3.33-4.55-2.62-2.42.77-1.38,3.09-1.17,4.62.45,3.23,1.42,6.38,2.11,9.57,1.11,5.14-.65,8.31-5.45,10-3.29,1.14-6.35-.76-8.46-5.29-2.19-4.71-2.65-9.71-2.53-14.83.1-4.52.07-9.05,0-13.58,0-1,.47-2.51-1-2.72s-1.68,1.29-1.92,2.27c-1.21,4.89-2.33,9.81-3.42,14.73a13.25,13.25,0,0,1-2.61,5.51c-3.22,4-6.39,3.68-8.95-.81-2.73-4.8-2.89-10.18-3.39-15.45-.18-1.84-.58-2.77-2.43-3.6-4.92-2.17-5.77-4.92-3.35-9.82,1.74-3.56,3.84-6.94,5.5-10.53.55-1.18,1.83-2.8.2-4.13-1.79-1.45-3.45-.24-4.85.77a88,88,0,0,1-14.19,8.21,20,20,0,0,1-7.49,1.94c-2.49.14-5.08.17-6.39-2.56-1.39-2.9-.76-5.49,1.45-7.83A62.22,62.22,0,0,1,726,940.92c.91-.56,2.9-.71,2-2.4-.63-1.23-2.21-.6-3.39-.37a25.49,25.49,0,0,1-11.78-.25c-2.22-.6-5.23-1-5.33-3.61-.08-2.06,2.17-3.51,4.43-4.21.69-.21,1.18-1.05,1.77-1.6,2.39-2.84,5.94-2.53,9.06-3,3.38-.55,4.87-2,4.55-5.4-.64-6.67,1.49-12,7.15-16,2.73-1.9,3.12-4.64,1.83-7.68-.62-1.47-1.61-3-.65-4.67,6-2.34,12.28-2.56,18.52-2.88,4.18-.21,8.54-.94,12.58,1.07,4.2,5,5.63,11.34,8,17.23,0,4.86-2.61,8.87-4.29,13.18-1.85,4.77-2,4.8,2.73,6.38,8.06,2.69,16.28,4.91,24.27,7.83C799.21,935.15,801.36,935.26,802.05,937.52Z"/><path class="cls-10" d="M452.85,900.79a136.12,136.12,0,0,1,32.23,25c11,11.42,18.3,24.7,20.71,40.5.19,1.21.48,2.39.73,3.59-2.38-.35-2.5-2.59-3.34-4.14-2.42-4.45-3.94-9.33-6.61-13.68-10.64-17.27-26.84-25.46-46.22-28.84-15.88-2.77-31.67-1.4-47.48.28a42.79,42.79,0,0,1-6.09.19c-7.89.83-15.75,1.73-23.72,1.82-19.51.23-38.33-3.77-57.07-8.49-1.38-.35-3-1.51-3.42,1.07-2-.5-3.21-2.3-5.28-2.9-6-1.74-6.19-2.92-1.79-7.44,9-9,17.24-18.67,26.08-27.79.76-.79,1.54-1.55,2.32-2.32,5.63-5.62,6.32-5.7,13.42-1.72a13.07,13.07,0,0,0,4,1.89,6,6,0,0,1,1,.52,23.72,23.72,0,0,0,10.85,3.21,12.36,12.36,0,0,1,4.13,1.07,49.18,49.18,0,0,0,8.2,2.61,13.16,13.16,0,0,0,6.74,1.2c2.61.49,5.23.82,7.87,1.07,2.33.64,4.76.4,7.13.68,2.84.69,5.77.84,8.65,1.27a6.42,6.42,0,0,1,1.77.62c4,1.78,8.09,1.45,12.23.9,1.73-.14,3.4.4,5.12.36C434.83,892.89,444.5,894.92,452.85,900.79Z"/><path class="cls-11" d="M767.34,890.91c-8-2.09-15.91-.92-23.8.31-2.64.41-5.48-.32-7.94,1.23a4.08,4.08,0,0,1-5.54-.05c-1.88-3.13-.43-6.62-1.12-9.95-2-9.74-4.62-19.35-7.16-29-1.65-6.27-1.49-12.35,1.91-17.82,11.17-18,21.59-36.45,33.75-53.83a10.89,10.89,0,0,1,4-4c.89,9.15,4.66,17.25,9,25.18,5.46,9.88,12,19.19,15.75,30,.37,4.07-2.88,6.6-4.29,9.91-.64,1.51-1.69,2.8-2.45,4.25-1.33,2.52-3.16,3-5.79,2-4.9-1.75-10-2.82-15.21-2.14a15.42,15.42,0,0,0-2,.15c1.87-.18,3.3-.1,4.73-.19a3.65,3.65,0,0,1,1.23-.08c12,2.33,13.71,1.69,13.85,17.78-.52,7.93-2.83,15.47-5.17,23C770.62,889.43,770.1,891.67,767.34,890.91Z"/><path class="cls-12" d="M205.47,972.63c4.24-2.2,8.43-4.54,12.76-6.55,2.07-1,2.06-1.89,1.26-3.76-2.79-6.55-3.29-12.94,1.91-18.74a5.11,5.11,0,0,0,1.18-5c9.4-4.09,19.4-6.4,29-9.79,4.16,3.42,7.92,7.17,9.95,12.31a14.12,14.12,0,0,0,4.21,5.5c6.18,5.69,10.08,12.52,11.07,21,.86,7.38,1.21,14.72-.67,22-.28,1-.7,2.07-1.08,3.1-.87,2.38-2.61,4.1-5,4.28-2.72.2-4.48-1.67-5.68-4-2-4-2.65-8.31-3.61-12.59-.56-2.51-.44-5.4-3.33-8,0,5.64.06,10.5,0,15.36-.08,5.22-.47,10.42-2.74,15.25-1.93,4.11-5,5.65-8.95,4.61-3.61-1-5.36-3.65-4.78-8.3.41-3.38,1.5-6.67,2.12-10,.31-1.66,1.2-3.76-.78-4.85s-2.81,1.21-3.75,2.29a76.17,76.17,0,0,1-11.07,11,25.14,25.14,0,0,1-7.15,4c-2.29.78-4.39.58-6.06-1.22a6.2,6.2,0,0,1-1.5-6.44c1.81-5.8,5.91-10.11,9.57-14.7l1.31-1.65c-2.65-.47-4.56.73-6.43,1.43a32.12,32.12,0,0,1-9.63,2c-1.51.08-3.47,0-4.35-1.75s0-3.14,1.13-4.47A10.69,10.69,0,0,0,205.47,972.63Z"/><path class="cls-13" d="M677.31,969.91c-4.59-1.19-9.17-2.41-13.77-3.58-11.23-2.87-21.53-8.06-32-12.74-13.4-6-26.84-11.77-41.49-14-13.72-2.07-27,.14-39.82,4.91-14.74,5.47-27,14.94-39.12,24.6a7.75,7.75,0,0,0-1.23,1.63,1.23,1.23,0,0,1-1.69,0c1.51-3.36,1.82-7.32,5-9.86,3.64-.91,5-4.35,7.12-6.79a108.66,108.66,0,0,1,39.34-29c5.19-2.28,10.73-2.95,16.25-3.76a3.41,3.41,0,0,1,4.11,0,22.17,22.17,0,0,1,9.07,0h1.66a13.15,13.15,0,0,1,9.09.81,67.77,67.77,0,0,1,22,6.17c12.93,6,25.71,12.39,38.49,18.75,7.72,3.84,16,7.06,24.38,6.08,8.71-1,15,2.85,21.6,6.72,4.5,2.63,8.79,5.55,12.21,9.61,1.62,1.92,1.89,3.4-.71,4.56-5.18,1.18-10.31,0-15.45-.37C693.89,973,685.49,972.22,677.31,969.91Z"/><path class="cls-1" d="M261.56,941.14l-9.95-12.31c3.93-.58,4.62-2.2,3-6.06-8.84-21-17.38-42.19-26-63.31,1.48-1.24,2.89-.42,4.21.24C254.46,870.43,275.65,882,295,896.55a70.35,70.35,0,0,1,9,7.76c1,1.05,2.42,1.94,2,3.77-3.85,4.62-3.86,4.69,2.16,6.43,2,.59,3.74,1.34,4.3,3.59,1.55,7-4.35,12.25-12.71,15.66-9.93,4-20.42,5.43-31,6.55C266.44,940.57,264,940.86,261.56,941.14Z"/><path class="cls-12" d="M424.82,892.39l-5-.6c-4.35-.56-8.85.51-13.1-1.2l-.76-.65c-2.54-1.14-3-4.1-5-5.71-.81-.65-1.42-2-2.68-1.24-1,.55-.51,1.7-.45,2.63.07,1.18.79,2.38-.1,3.53-2.52-.31-5.17.67-7.55-.81-2.69-.47-5.39-.91-8.09-1.28-1.66-.5-3.46-.17-5.09-.82-3.21-1.26-6.65-1.74-9.9-2.86-1.38-.13-2.56-1.27-4.06-.86-3.71-1.81-8-1.91-11.59-4.16l0,0c-2.17-.43-3.3-2.1-4.44-3.75s-1.61-3.46-2.11-5.32c-1.38-5.18-2.79-6.22-8.06-6.31-1.76,0-3.56.59-5.28-.24-2.5-.31-4.86.61-7.3.77-3.83.25-5.11-1-4.28-4.83a49.48,49.48,0,0,1,9.76-20.91c1.88-2.32,3.63-4.75,6.31-6.35,3.09-1.84,6.29-1.13,9.5-.88,11.75,1.66,23.58,1.72,35.4,1.79,1.86.88,4-.24,6.27.92-1.81,2.08-4.35,2.58-6.37,3.85a87.69,87.69,0,0,0-13,7.43c-1.26.92-2.46,1.87-.84,3.48q14.28,7.92,28.57,15.84a20.39,20.39,0,0,1,2,1.37c-6.33,5-10.35,5.14-17.41.73-5.26-3.29-9.72-7.53-14.37-12.32-2,4.83-3.8,9.44-7.08,10,3-.63,5.14-4.64,6.89-9.67,3.87,2.74,6.53,6.48,10.23,9a53.82,53.82,0,0,0,8.79,5.21c5.2,2.25,9.28.88,13-2.93,7.95,4.23,15.85,8.55,23,14C425.45,883.24,426.88,887.76,424.82,892.39Z"/><path class="cls-13" d="M396.78,923.7c4.33-2,9.08-1.74,13.6-2.19,18.6-1.85,37.17-2,55.11,4.43,17.11,6.16,29.56,17.29,36.41,34.42,1.3,3.24,2.14,6.82,4.62,9.53l0,1c.1.74-.32,1-1,1.07-.59-.18-1-.43-.74-1.17a84.6,84.6,0,0,0-30.26-30,74.12,74.12,0,0,0-38-10.14,95.73,95.73,0,0,0-39.39,8.65c-9.9,4.41-18.64,11-28.65,15.16-1.51.63-2.87,1.69-4.63,1.52-4.38,1.52-8.62,3.46-13.27,4.1-9,1.78-17.84,4.06-26.92,5.3-6.11.84-12.19,1.72-18.38,1.2-.07-.25-.27-.62-.18-.72,6.87-7.27,13.73-14.55,20.68-21.75,2.47-2.56,6-1.5,9-1.95A255.31,255.31,0,0,0,395.88,925C396.34,924.8,397.47,924.8,396.78,923.7Z"/><path class="cls-5" d="M973.2,925.42c-3.58-12.29-9.36-22.95-21.36-29-3.36-.55-6.73-.06-10.09-.27-.91-.05-2.39.54-2.2-1.38.58-3.05,3.15-4.94,4.43-7.61A67.39,67.39,0,0,0,947.8,877c.35.81.63,1.37,1.78.82,6.15-2.92,12.09-2.08,16.68,2.82,7.17,7.67,15.84,10.76,26.31,11.17s21.31.47,31.75,3a19.48,19.48,0,0,1,7.14,2.92c3.88,2.81,3.93,5.46.15,8.31-6.72,5.05-14.69,7.15-22.51,9.54-10.57,3.23-21.34,5.68-32.16,7.9C975.62,923.73,973.74,923.46,973.2,925.42Z"/><path class="cls-5" d="M82.46,877.46c-.77,9.3,4.08,16.41,9.7,24a77,77,0,0,1-8.38-.06c-4.61-.53-8.13,1.42-11.51,4.19-7.16,5.88-11.07,13.72-13.83,22.29-11.83-3.2-23.95-5.27-35.62-9.08C16,916.61,9,914.49,3,910.22c-4.16-3-4-6.18.31-8.87,4.08-2.52,8.67-3.45,13.25-3.91,8.69-.87,17.44-1.11,26.14-1.87,6.35-.54,12.9-.7,18.27-4.92a52.16,52.16,0,0,0,4.54-4.14c3.8-3.79,8.35-6.38,13.66-6.74,2.59-.18,2.41-1.36,2.56-2.95Z"/><path class="cls-14" d="M652.59,689.75c-1.94,2.68.38,5,.83,7.36,2.31,12.3-2.07,21.87-11.56,29.5-3.25.57-5.64-1.35-8.17-2.84-6.55-9.68-12.2-19.8-13.82-31.58-.86-6.29-2.4-12.65-.33-19,9.94-1.51,18.17,2.05,25.43,8.53,1.43,1.27,2.84,2.56,4.25,3.85A30.85,30.85,0,0,0,652.59,689.75Z"/><path class="cls-15" d="M505.63,971.52l.92-.68a1.22,1.22,0,0,0,.63,0c1.13.43,2.37.55,3.32,1.44,7.33,6.86,15.22,13.1,22.51,20a6.12,6.12,0,0,1,.82,1.4c2.17,1.88,2.12,3.26-.42,5.06-17.06,12.15-38.67,12.18-55.44,0-2.42-1.75-2.8-3.16-.34-5,4.55-5.14,10.36-8.77,15.66-13C497.31,977.6,500.86,973.73,505.63,971.52Z"/><path class="cls-1" d="M730.06,892.4l5.54.05c.69,1.33,1.47,2.63,2,4,1.38,3.26,1.1,6.29-2.13,8.26-6.7,4.08-8,10.38-7.19,17.4.33,2.93-.65,3.73-3.37,4.08-3.77.49-7.48,1.5-11.22,2.29-6.87-6.6-7.32-10.39-2.09-18.34C716.44,902.84,723.58,898,730.06,892.4Z"/><path class="cls-16" d="M633.69,723.77c3.13-.22,5.27,2.41,8.17,2.84,20.64,9.46,41.79,14.46,64.33,7.37,4.37-3.15,9.8-4.15,14.28-7.15,3.41-2.29,7-4.28,10-7.19a5.7,5.7,0,0,1,3.16-1.8,3,3,0,0,1,3.21,1.31,2.74,2.74,0,0,1-.27,3.09,11.5,11.5,0,0,1-2.6,2.61A79.5,79.5,0,0,1,712,737.58a12.42,12.42,0,0,1-3.63.49c-22.09,6.44-43.39,3.51-64.21-5.36a7.35,7.35,0,0,0-1.59-.32c-2.61-1.45-5.22-2.88-7.81-4.36C633,727,632.08,725.69,633.69,723.77Z"/><path class="cls-17" d="M632,619.76c11-3.87,21.09-1.46,30.18,5.18,8.88,6.49,10.51,15.93,9,26.1a61.13,61.13,0,0,1-5.4,17.13c-.76,1.6-1.59,3.24-3.59,2.31s-1.18-2.7-.49-4.23a75.24,75.24,0,0,0,5.1-16.36c3.16-15.9-8.16-25.16-20.53-27.09-3.42-.53-6.77-.91-10.16.08a4.38,4.38,0,0,1-4.24-.87C631.91,621.26,632,620.51,632,619.76Z"/><path class="cls-18" d="M677.31,969.91c9.3,1,18.61,2,27.89,3.15,4.18.52,8.48-.72,12.57.93l1.56,1c-1.54,1.37-3.42.78-5.11.7a214.49,214.49,0,0,1-37.08-4.89,4.27,4.27,0,0,1-.67-.27Z"/><path class="cls-19" d="M533.83,993.69Q522.4,983.82,511,973.94c-1.24-1.06-2.52-2.06-3.79-3.09l1-.14,1.69,0c4.73,4,9.65,7.88,14.13,12.19,3.83,3.69,7.61,7.34,12.24,10C535.38,993.06,534.43,992.81,533.83,993.69Z"/><path class="cls-20" d="M505.63,971.52l-28,22.26c-1.43-1.48-3.3-.44-4.91-.84,9.61-1.61,15-9.66,22.46-14.65,3.39-2.27,6.46-5,9.67-7.55Z"/><path class="cls-21" d="M350.6,960a59.66,59.66,0,0,1,13.27-4.1c-3.81,2.51-8.13,3.71-12.46,4.91Z"/><path class="cls-22" d="M380.88,837.13c1.24-1.87,3.65-2,5.32-3.66-1.68-1-3.73.12-5.22-1.11,2,0,4-.1,6-.09,1.38,0,.94.9.72,1.66A13.78,13.78,0,0,1,380.88,837.13Z"/><path class="cls-23" d="M599.77,922.1c-3.06,0-6-1.33-9.09-.81,3.75-1.73,7.71-.43,11.56-.81Z"/><path class="cls-24" d="M385.92,585l-.75,1.84c-.9-1.63-.65-3.41-.71-5.15.24-.35.46-.34.67,0C385.4,582.84,385.66,583.93,385.92,585Z"/><path class="cls-25" d="M385.13,581.75c-.22,0-.45,0-.67,0a2.11,2.11,0,0,1-.22-3.31C384.54,579.52,384.84,580.64,385.13,581.75Z"/><path class="cls-14" d="M708.4,738.07c8.84-3.67,17.49-7.66,24.87-13.93.52-.45,1.07-.86,1.58-1.32,1-.93,2.28-1.94,1.14-3.42-1.26-1.65-2.7-.78-3.87.27A69.6,69.6,0,0,1,718.69,729a45.65,45.65,0,0,1-12.5,5c-1.78-6.68-3.47-13.25-1.83-20.37a33.1,33.1,0,0,1,6.79-13.23c4.24.16,4.24.16,4.08-4,6.68-3.79,13.65-6.53,21.55-5.82,2.41.22,4.81.56,7.22.84a4.93,4.93,0,0,1,4.25,1.73c9,5.17,14.86,12.23,16.8,22.89,2,10.85-4.39,24.68-14.37,30.26-13,7.26-29.55,5-39.48-5.76A30.76,30.76,0,0,0,708.4,738.07Z"/><path class="cls-16" d="M748.25,693.08c-1.6-.13-3.15-.37-4.25-1.73,5.2-9,9.14-18.35,6.9-29.19A17.69,17.69,0,0,0,742,649.94c-13.69-7.89-27.91-7.49-36.86,8.39a77.27,77.27,0,0,0-5.8,14.44c-.63,1.94,0,5.88-3.29,5-3-.83-1.37-4.17-.81-6.42,1.91-7.65,4.84-14.83,10.14-20.84,9.89-11.22,20.33-12.1,33.45-7.07,17.54,6.72,20.13,21.53,14.48,38.88A65.72,65.72,0,0,1,748.25,693.08Z"/><path class="cls-26" d="M668.81,680.59c5.91-.06,11.3,1.94,16.41,4.58,4.75,2.46,5,7.34.62,10.55-10.56,7.7-16.72,5.15-24.21-4.5-1.81-2.33-2.66-5.36-1-8.09C662.47,680.11,665.79,680.54,668.81,680.59Z"/><path class="cls-26" d="M839.48,674c7.92,0,11.08,2.29,11.12,8.11.06,8.32-4.1,13.35-11,13.37-6.39,0-9.68-3-9.7-8.94C829.83,676.82,832,674,839.48,674Z"/><path class="cls-27" d="M652.59,689.75c-3.05.14-3.56-1.75-3.37-4.2,1.7-1.65,3.53-2.42,5.12-.06C655.71,687.53,655.08,689.11,652.59,689.75Z"/><path class="cls-28" d="M771.74,706.53c1.5.41,2.84,1,2.86,2.89a2.85,2.85,0,0,1-5.69.06C768.86,707.58,770.21,707,771.74,706.53Z"/><path class="cls-29" d="M715.23,696.33c.87,1.41,2.55,2.6.78,4.54-1.93,2.11-3.33.51-4.86-.49C710.79,697.29,712.05,695.85,715.23,696.33Z"/><path class="cls-14" d="M274.9,701.24c6.52-.76,13-1.65,19.47.67,3.27,1.17,6,3.18,9.24,4.35-.86,3.57.91,4.48,4.06,4,7.82,9.08,9.55,19.31,5.68,30.56-.37,1.09-.68,2.06.08,3.07-1.6,1.43-3.11.27-4.54-.27A65.32,65.32,0,0,1,289,732.39c-1.17-1-2.34-2.26-4.2-2.24-.16,1.91,1.27,2.46,2.24,3.31a69.34,69.34,0,0,0,18.56,11.18c1.47.64,3.22.92,3.82,2.77-8.47,14.39-32.4,15.8-44.24,6.05-15.27-12.56-15.53-37.45,3.57-48.85a4.42,4.42,0,0,0,2-1.93A6,6,0,0,1,274.9,701.24Z"/><path class="cls-14" d="M399.58,682.94c1.74.79,1,2.37,1,3.6.93,17-3.93,32.24-13.9,45.94a10.81,10.81,0,0,0-.77,1.42c-3.1.51-5.57,3.1-8.94,2.71-4.62-4.54-8.72-9.49-10.59-15.79-2.13-7.19-1.12-14.28,1.48-21.2a6.82,6.82,0,0,1,1.69-4.16c1.39,0,2.18-1,3-1.93C379.52,684.81,388.85,682.09,399.58,682.94Z"/><path class="cls-16" d="M274.9,701.24a4.33,4.33,0,0,1-4.15,1.44c-4.24-8.36-8.05-16.8-7.62-26.53.44-10,5.26-17.06,14.09-21.48a40.22,40.22,0,0,1,15.36-4.27,23.46,23.46,0,0,1,18,6.72c7.8,7.27,11.71,16.73,13.69,27,.27,1.37.43,3.07-1.26,3.45-1.94.45-2.5-1.24-2.84-2.78A59.3,59.3,0,0,0,315,669.71c-8.2-15.45-21.62-19.42-36.92-10.88-9.72,5.43-13,14.55-9.69,27.37A49.33,49.33,0,0,0,274.9,701.24Z"/><path class="cls-16" d="M377,736.61c3.1-.49,5.28-4.05,8.94-2.71.66,2.48-1.13,3.43-2.79,4.41s-3.06,1.69-4.59,2.53c-12.68,5.39-25.66,9.53-39.56,10.25-10.11.52-19.91-1.12-29.62-3.68-8.58-3.68-17-7.65-24.05-14a13.37,13.37,0,0,1-2.09-2,1.93,1.93,0,0,1,.1-2.63,1.81,1.81,0,0,1,2.28-.27,34.78,34.78,0,0,1,3.58,2.72,63.89,63.89,0,0,0,24.22,12.58c16.13,5.24,32.12,3.58,48-1.13C366.81,741.19,372.21,739.65,377,736.61Z"/><path class="cls-26" d="M345.33,709.53c-6.32.1-10.13-2.43-13.52-5.43-2.83-2.5-2.28-6.28,1.09-8.35a33.72,33.72,0,0,1,20.79-5.21c4,.32,5.81,2.9,5.14,6.81C357.88,703,349.71,709.59,345.33,709.53Z"/><path class="cls-26" d="M199.16,687.15c6.12,0,10.36,3.89,10.44,9.69.07,4.64-7.13,12.37-11.54,12.38-4.17,0-11.7-7.33-11.64-11.36C186.5,692.82,193.19,687.18,199.16,687.15Z"/><path class="cls-30" d="M379,627.82c1,.15,2.87.42,4.75.76,1.49.26,3.33.44,3,2.54s-2.19,1.84-3.63,1.47a26.86,26.86,0,0,0-11.43.08C358.89,635,348.93,645.18,352,659.82a75.12,75.12,0,0,0,5.17,16.39c.66,1.41,1.46,2.94-.44,3.89s-2.61-.71-3.25-2.07a59.2,59.2,0,0,1-6.07-22c-.59-10.39,3.82-18.32,12.88-23.5C365.78,629.36,371.75,627.92,379,627.82Z"/><path class="cls-31" d="M307.67,710.27c-1.6,1.46-3.28,2-5,.21s.16-2.9.9-4.22C306.8,705.74,307.8,707.43,307.67,710.27Z"/><path class="cls-32" d="M369.59,695.46c0,1.63.2,3.31-1.69,4.16a3.09,3.09,0,0,1-3.46-2.21c-.46-1.36.54-2,1.33-2.7C367.32,693.34,368.48,694.35,369.59,695.46Z"/><path class="cls-28" d="M250,719.22c-.15,1.72-1,2.61-2.66,2.55a2.62,2.62,0,0,1-2.66-3,2.3,2.3,0,0,1,2.43-2.29A2.74,2.74,0,0,1,250,719.22Z"/><path class="cls-11" d="M802.05,937.52c-10-4.31-20.5-6.95-30.8-10.26-3.55-1.14-4.11-2.32-2.61-5.6,2.11-4.58,4.47-9.12,5.34-14.18,3.47-12,9.16-23.19,13.57-34.84,2.28-6,4.92-11.91,7.16-18a2.07,2.07,0,0,1,1.53-1.08c5.73-11.82,7.59-24.75,10.58-37.35,5.35-22.55,10.94-45,24.58-64.41a23,23,0,0,1,16.67-10.08c5.26-.61,10.94,3.84,14,10.88,2.6,6,3.34,12.35,4.18,18.72,1.56,11.9,1,23.81-.13,35.65-1.85,19.82-3.35,39.75-9.84,58.81-2.88,8.46-7.5,16.12-11.48,24.08-9.62,15.66-19.62,31.07-30.43,46-2.47,3.41-4.64,4.45-8.36,2.63A19.45,19.45,0,0,0,802.05,937.52Z"/><path class="cls-33" d="M786.27,833.06c4.41,6.32,7,13.53,10,20.54l-.61,1.17c-5.46,3.91-11.55,6.7-17.48,9.77a2.47,2.47,0,0,1-2.73,0c-.07-.12-.2-.23-.2-.35-.63-14.91,0-13.72-14.61-16.37-.56-.87-2.5.65-2.41-1.37,5.55-1.35,10.9-.24,16,1.8"/><path class="cls-34" d="M575.84,921.28c-7.09,2.3-14.46,3.61-21.2,7.15C542.18,935,531,943,521.92,953.89c-2.27,2.73-4.6,5.41-7,8-1.9,2.06-1.68.14-1.78-1,1.49-5.8,5.54-10.11,9.24-14.36C536.42,930.33,554,921.06,575.84,921.28Z"/><path class="cls-35" d="M424.82,892.39c1-5.13-1.89-9-4.16-13.08,5.2,1.27,9,5,13.48,7.61,6.31,3.74,12.22,8.17,18.3,12.31.56.38,1.2.8.41,1.56a129.22,129.22,0,0,0-23.6-7.79C427.79,892.7,426.3,892.59,424.82,892.39Z"/><path class="cls-23" d="M589,921.29H580A10.84,10.84,0,0,1,589,921.29Z"/><path class="cls-36" d="M367.07,848c-.93-.21-2.27-.41-2.21-1.41.09-1.68,1.77-1.74,3.05-2.07Z"/><path class="cls-37" d="M939.55,894.73c1.87,2,4.3.68,6.44,1,1.93.33,4-.6,5.85.61-4.06.06-8.12.15-12.18.18-.67,0-1.81.55-1.71-.84C938,894.94,938.91,894.91,939.55,894.73Z"/><path class="cls-38" d="M358,974.87c7.53-2.32,15.26-3.89,22.57-7,8.09-3.49,15.58-8.07,23.39-12.05s16.05-7.7,25-8.89c.41.54,1.26.18,1.64.79a97.18,97.18,0,0,0-30,11.33,162,162,0,0,1-24.76,11.83c-5.75,2.09-11.58,4.08-17.84,4Z"/><path class="cls-39" d="M454.52,974.9c5.62.82,11.18,1.84,16.12,5.11-11.2-4-22.54-5.07-34.52-1.67,2.82-2.37,5.43-3.13,11-3.45A14.57,14.57,0,0,0,454.52,974.9Z"/><path class="cls-40" d="M443.8,946.88c11,1.84,21.25,5.47,30,12.67a117.88,117.88,0,0,0-20.21-9.24c-3.5-1.2-7.26-1-10.58-2.63A2.22,2.22,0,0,1,443.8,946.88Z"/><path class="cls-41" d="M402.59,971.6c9.7-3.69,19.2-8,29.71-9.07.27.28.76.35.84.83-10.23,1.94-20,5.48-29.71,9C402.55,972.75,402.42,972.33,402.59,971.6Z"/><path class="cls-42" d="M447.92,962.53A56.53,56.53,0,0,1,472.08,972a94.83,94.83,0,0,0-25.81-8.6C446.64,962.73,447.51,963.09,447.92,962.53Z"/><path class="cls-43" d="M447.92,962.53a1.76,1.76,0,0,1-1.65.82H433.14l-.84-.83A51.45,51.45,0,0,1,447.92,962.53Z"/><path class="cls-44" d="M402.59,971.6l.84.81c-4.09,2.49-8.74,3.37-13.39,4.32Z"/><path class="cls-43" d="M443.8,946.88l-.81.8H430.66a1.73,1.73,0,0,1-1.64-.8Z"/><path class="cls-45" d="M478.54,962.64a10.35,10.35,0,0,1,4.42,5Z"/><path class="cls-46" d="M454.52,974.9a7.61,7.61,0,0,1-7.36,0Z"/><path class="cls-38" d="M358,974.86c-1.76,1.67-3.77.4-5.69,0H358Z"/><path class="cls-47" d="M475.42,974.3c1.63.1,2.21.74,2.52,1.88C476.63,976.3,476.19,975.48,475.42,974.3Z"/><path class="cls-38" d="M674,983.12c-13.19.36-25.38-3.69-37.25-8.78-13.71-5.87-27.07-12.6-41.86-15.61-1.68-.34-3.65.34-5.08-1.14.08-.48.57-.54.85-.83,10.09,1.38,19.63,4.6,28.94,8.63,11.92,5.15,23.52,11.1,36.22,14.31A75.5,75.5,0,0,0,674,982.31c.28.18.37.36.28.54S674.09,983.12,674,983.12Z"/><path class="cls-42" d="M562.54,975.24c20.23-8.2,39.66-4.43,58.76,4.14C602.08,972.48,582.65,968.84,562.54,975.24Z"/><path class="cls-48" d="M575.86,957.58c-6.67,1.22-13.33,2.39-19.77,4.7-4,1.43-7.69,3.43-12,5.19,4.24-4.43,16.95-9,29.32-10.7C574.05,957.53,575.22,956.76,575.86,957.58Z"/><path class="cls-42" d="M674,983.12v-.81h22.91a1,1,0,0,1,.77.46C689.78,982.68,682,985.45,674,983.12Z"/><path class="cls-49" d="M575.86,957.58c-.89-.08-1.88.15-2.47-.81a82.39,82.39,0,0,1,17.27,0l-.85.83Z"/><path class="cls-1" d="M775.42,864.51l20.21-9.74C790.82,866.85,786.1,879,781.15,891c-2.28,5.53-3.87,11.38-7.17,16.48l-6.64-16.56c2.38.08,2.4-2,2.81-3.39C772.36,880,774.54,872.38,775.42,864.51Z"/><path class="cls-50" d="M397.73,889.15c-.37-2.63-3.1-6.16.13-7.62s4.31,2.87,6.12,4.87a17.16,17.16,0,0,1,2,3.54A14.23,14.23,0,0,1,397.73,889.15Z"/><path class="cls-51" d="M351.45,878.36c4,1,8.29,1.22,11.59,4.16C358.76,882.3,354.65,881.59,351.45,878.36Z"/><path class="cls-52" d="M406.73,890.59c4.34.73,8.87-.75,13.1,1.2C415.32,892.9,410.9,893.12,406.73,890.59Z"/><path class="cls-53" d="M367.1,883.38c3.53,0,6.81,1.21,10.08,2.37a1.22,1.22,0,0,1-1.83.1A16,16,0,0,1,367.1,883.38Z"/><path class="cls-54" d="M375.35,885.85l1.83-.1a10.14,10.14,0,0,1,4.79.87c.26.19.35.39.26.58s-.18.29-.27.29C379.64,887.41,377.16,888,375.35,885.85Z"/><path class="cls-55" d="M382,887.49c0-.29,0-.58,0-.87,2.76.46,5.63.4,8.21,1.72C387.38,888.63,384.68,887.93,382,887.49Z"/><path class="cls-51" d="M347.31,876.8c1-.54.67-1.48.75-2.3,1.05,1.37,1.79,3,3.42,3.89A4.65,4.65,0,0,1,347.31,876.8Z"/><path class="cls-56" d="M758.2,846.42l2.41,1.37h-6l-.13-.42Z"/><path class="cls-57" d="M397.62,865.26c-2.66,4.33-6.33,5.54-11.23,4.1-6.28-1.83-11.18-5.67-15.75-10.07-1.47-1.41-2.76-3-4.61-5-1.38,4.84-3.45,8.29-7.54,9.86-1.57.6-3.42.86-5-.8,6.87,0,10.22-3.14,11.52-11,3.85,3.14,6.85,6.88,10.72,9.64,2.9,2.06,5.67,4.24,9,5.57,4,1.58,7.7,1.78,11-1.51a5.41,5.41,0,0,1,1.85-.75Z"/><path class="cls-58" d="M628.58,686c-.38,1.45-1.21,2.77-3,2.68A2.63,2.63,0,0,1,623,686a2.67,2.67,0,0,1,3-2.72A2.47,2.47,0,0,1,628.58,686Z"/><path class="cls-59" d="M636.27,702c-2-.21-2.8-1.21-2.63-2.79s1-2.71,2.55-2.66a2.81,2.81,0,0,1,2.84,2.89C639,701.22,637.49,701.82,636.27,702Z"/><path class="cls-60" d="M529.48,994.92c-11.82,8.83-32,9.32-44.12,1.24-1.65-1.1-2.07-1.82-.22-3.23,6.78-5.16,13.46-10.43,20.15-15.69,1.06-.83,1.79-1.23,3.07-.13C515.33,983.11,522.4,989,529.48,994.92Z"/><path class="cls-58" d="M760.58,721.2c0,2-.73,3-2.43,3a2.93,2.93,0,0,1-3.14-2.66c-.21-1.73,1.32-2.39,2.62-2.67C759.6,718.49,760,720.2,760.58,721.2Z"/><path class="cls-59" d="M728.38,713.94c.1,2.2-1.14,3.15-2.72,3.24a2.41,2.41,0,0,1-2.82-2.35c0-1.61.77-2.9,2.73-2.9C727.15,711.94,728.19,712.55,728.38,713.94Z"/><path class="cls-59" d="M740.41,711.06c-1.57-.43-2.85-1.28-2.73-3a2.73,2.73,0,0,1,5.44,0C743.26,709.77,742,710.62,740.41,711.06Z"/><path class="cls-59" d="M293.32,727.19c-1.61-.46-2.93-1.09-2.88-3a2.84,2.84,0,0,1,5.68.13C296.1,726.27,294.68,726.73,293.32,727.19Z"/><path class="cls-58" d="M264,731.39c0,1.72-.74,2.73-2.42,2.72a2.88,2.88,0,0,1-3.13-2.59,2.59,2.59,0,0,1,2.69-2.93C262.76,728.56,263.65,729.86,264,731.39Z"/><path class="cls-61" d="M278.47,715.3a3.2,3.2,0,0,1,2.77,3c.1,1.79-1.3,2.39-2.67,2.5-1.72.14-2.48-1.3-2.54-2.66A2.67,2.67,0,0,1,278.47,715.3Z"/><path class="cls-59" d="M392.78,693.05a2.54,2.54,0,0,1,3,2.53,2.66,2.66,0,0,1-2.69,3,2.63,2.63,0,0,1-2.74-2.55C390.23,694.21,391.68,693.52,392.78,693.05Z"/><path class="cls-29" d="M385.82,709c-.62,1.45-1.15,3-3.08,2.87s-2.52-1.38-2.42-3.09a2.24,2.24,0,0,1,2.77-2.27C384.35,706.7,385.83,707.21,385.82,709Z"/><rect class="cls-62" x="226.07" y="136.37" width="146.33" height="146.33" transform="matrix(0.84, 0.54, -0.54, 0.84, 159.72, -128.08)"/><circle class="cls-62" cx="587.43" cy="324.84" r="73"/><polygon class="cls-62" points="733.79 15.19 575.55 97.71 726.14 193.49 733.79 15.19"/></g></g></svg>