<svg xmlns="http://www.w3.org/2000/svg" viewBox="0 0 610.12 610.41"><defs><style>.cls-1{fill:#e6e6e6;}.cls-2{fill:#93a61c;}.cls-3{fill:#bac66e;}.cls-4{fill:#dae1b7;}.cls-5{fill:#f8faf0;}.cls-6{fill:#f8f9f2;}.cls-7{fill:#ebeed8;}.cls-8{fill:#f7ba8e;}.cls-9{fill:#acc222;}.cls-10{fill:#5c2602;}.cls-11{fill:#353535;}.cls-12{fill:#ef880e;}.cls-13{fill:#4e4d3b;}.cls-14{fill:#4b2c27;}.cls-15{fill:#f3cccb;}.cls-16{fill:#ec6f6a;}.cls-17{fill:#474646;}.cls-18{fill:#e06967;}.cls-19{fill:#e06868;}.cls-20{fill:#e06867;}.cls-21{fill:#e06b68;}.cls-22{fill:#e06a6a;}.cls-23{fill:#604b28;}.cls-24{fill:#ebf0d0;}.cls-25{fill:#fcfcf8;}.cls-26{fill:#ecf1d2;}.cls-27{fill:#ebf0d1;}.cls-28{fill:#e6ecc3;}.cls-29{fill:#f0f4de;}.cls-30{fill:#fefefe;}.cls-31{fill:#49371c;}.cls-32{fill:#fa938d;}.cls-33{fill:#e06b6b;}.cls-34{fill:#de6a6a;}.cls-35{fill:#e06969;}.cls-36{font-size:220.79px;fill:#88a80d;font-family:OpenSans-Bold, Open Sans;font-weight:700;}</style></defs><title>Recommendation_Boy</title><g id="Layer_2" data-name="Layer 2"><g id="Layer_5" data-name="Layer 5"><ellipse class="cls-1" cx="259.29" cy="307.78" rx="259.23" ry="266.5" transform="translate(-23.61 21.56) rotate(-4.55)"/><ellipse class="cls-1" cx="317.62" cy="366.95" rx="292.5" ry="194.5"/><path class="cls-2" d="M157.79,378.8c-2.5-4.77-5.13-9.48-7.47-14.33-8.49-17.57-12.77-36.2-13.74-55.63-.05-.87.32-1.9-.67-2.54l.26-5.64a54.12,54.12,0,0,0,.59-13.15l.29-6.26c1.2-7.39,2-14.84,3.89-22.11,7.07-26.51,19.16-50.32,38.15-70.33a190.47,190.47,0,0,1,57.3-41c22-10.41,45.17-16.34,69.28-18.91a176.6,176.6,0,0,1,21-.69c1.12,0,2.27.46,3.37-.15l1.25.06c2.85.83,5.79.4,8.68.71l3.85.18c1.46.16,3-.08,4.39.4a282,282,0,0,1,33,5.58c20.19,4.78,37.68,14.55,52.83,28.5,24.7,22.75,40.35,50.74,47.46,83.5,3.18,14.59,3.21,29.4,2.78,44.22-.61,2-2.09,2.54-3.64,1.27a4.49,4.49,0,0,1-1.36-2.35c-.45-5.93.18-11.86-.12-17.82a175.68,175.68,0,0,0-2.09-21.48c-.46-2.62-2.06-3.94-4.32-4.88a98.51,98.51,0,0,0-23.89-6.25c-12.95-1.93-25.84-1.17-38.75.22-4.25.46-4.35.36-5.18-3.76-5.58-27.77-14.91-54.13-29.73-78.41a178.32,178.32,0,0,0-12.66-17.52,13.61,13.61,0,0,0-9.93-5.23,225.61,225.61,0,0,0-73.5,4.39,197,197,0,0,0-60.36,24.8,24.35,24.35,0,0,1-3.25,1.86c-.22.19-.65.17-.67.61a5.8,5.8,0,0,1,.85-.11c5,2.16,8.94,5.78,12.79,9.46,8.57,8.19,15,18,20.23,28.5a204.43,204.43,0,0,1,18.79,58.57c.64,3.81.5,4.15-3.17,5.52-23.67,8.84-46.66,19.1-68.16,32.43-15.54,9.63-29.66,21-41.14,35.39-7.17,9-7.31,9-3.09,19.57a109.67,109.67,0,0,0,8.12,15.9c1.44,2,2.24,4.22,1.36,6.71-.36,1-.22,2.62-1.56,2.78C158.15,381.61,158.24,379.87,157.79,378.8Z"/><path class="cls-3" d="M136.76,287.51a28.8,28.8,0,0,1-.59,13.15Z"/><path class="cls-4" d="M340,129.05c-2.93-.26-6,.52-8.78-.91l8.78.39c.2.12.26.24.19.35S340.1,129.06,340,129.05Z"/><path class="cls-5" d="M573.22,501.84h-.59a4.31,4.31,0,0,1,.32-5.65l.52,0Z"/><path class="cls-6" d="M348.17,129.43l-4.38-.21c-.21-.11-.28-.23-.21-.34s.15-.18.22-.17l4.39.19C348.18,129.08,348.17,129.25,348.17,129.43Z"/><path class="cls-7" d="M343.8,128.71c0,.17,0,.34,0,.51l-3.76-.17v-.52Z"/><path class="cls-8" d="M484.4,376.66c-.47.76-1.23,1.34-1,2.44A187,187,0,0,1,486,417.92c0,.28.23.56.35.84,1.36,1.45.25,3,.1,4.45-2.11,19.27-9.53,36.08-23.15,50.09a131.28,131.28,0,0,1-14.57,13.23q-.57.51-1.17,1c-22.58,16.12-47.89,25.29-75.21,29a170.75,170.75,0,0,1-38.74,1,184.94,184.94,0,0,1-49.07-10.87,5.07,5.07,0,0,1-1.09-.61c-.87-2.76-2.87-4.68-4.82-6.72-10.74-11.21-18.39-24.49-25.23-38.27-12.71-25.62-20.31-52.93-26.72-80.63-2-8.64-4.12-17.26-6-25.92-.34-1.55-.79-3.13,1.14-4,7.5-2.15,13-7,17.48-13.11,1.17-1.58,2.34-2.47,4.47-1.45,13.64,6.58,27.87,6.81,42.25,3.3,11.58-2.83,22.06-7.85,30-17.13a36.64,36.64,0,0,0,8.08-16.76c1-4.6,1-4.5,4.54-1.69,15.44,12.17,32.9,17.91,52.62,15.92a30.49,30.49,0,0,0,11.59-3.68c5.05-2.77,8.18-7.05,10.12-12.31,1.66-4.46,1.95-4.61,5.59-1.37a128,128,0,0,0,37.15,23.61c8,3.24,16.09,5.88,24.71,6.84a16.53,16.53,0,0,1,5.75,1.42c1.16,1.09,1.26,2.58,1.5,4q1.85,11,3.91,22C482.61,365.6,483.72,371.1,484.4,376.66Z"/><path class="cls-9" d="M283.31,505.51c8.14,2.59,16.22,5.4,24.61,7.16a191.64,191.64,0,0,0,43.47,4.41,187,187,0,0,0,44.17-6.18,165,165,0,0,0,37.08-15c5.14-2.81,9.93-6.17,14.86-9.31,1.54,1.69.61,3.64.8,5.16a20.45,20.45,0,0,0-.11-5.71c7.74-6.36,15.15-13.05,21.22-21.08,9.42-12.43,14.59-26.51,16.31-41.93.16-1.44.43-2.87.65-4.31,3.23.45,6.11,1.93,9.07,3.12,17.21,6.92,33.51,15.49,48.2,26.9,11.11,8.63,20.53,18.61,26,31.86A54.89,54.89,0,0,1,573,496.17c-.1,1.89-.21,3.77-.32,5.65-2.22,13.53-8.22,24.79-19.85,32.57-8.51,5.7-18,9-28,11.11-1.73.38-3.47.72-5.21,1.08-3,.32-3.78-.23-4.33-3C512,527.52,502,519,485.51,518.13a37.81,37.81,0,0,0-12,1.27c-3.11.85-4.23.06-4.75-2.93a56.87,56.87,0,0,1,7.7-13.54c1.35-1.74,1.12-2.7-.79-3.84a132,132,0,0,0-17.58-8.84c-1.23-.5-2.24-1.13-2.51,1.09-2.48,20.41-12,37.63-24.17,53.77-3.58,4.74-8.65,4.8-13.2,6.12-9.05,2.63-18.54,2.71-27.93,3-13,.45-25.69,2.93-38.55,4.22-9,.9-18.05,1.44-27.07,2.21-3.11.27-6.21.73-9.31,1.11-2,.47-2.51-1.18-3.18-2.37a88.77,88.77,0,0,0-14.25-19.32c-.43-.44-.84-.92-1.29-1.36-2.31-2.22-4.58-3.53-8.28-2.87-5.95,1.06-12,1.48-17.72,3.64-13.65,5.18-23.69,14.14-29.1,27.91-.53,1.34-1,2.79-2.63,3.28-10.06,1.12-20.13,2.27-30.19,3.37-14,1.53-28,2.35-41.77-1C149,568.85,136.47,558.65,132.6,540c-2.3-11.06,0-21.81,4-32.18,8.21-21.27,22.2-38.3,39.56-52.69a92.35,92.35,0,0,1,26.09-15.26,19.11,19.11,0,0,1,2.4-.59c1.54,1.26,1.82,3.23,2.7,4.86a100.31,100.31,0,0,0,25.57,31.31c3.9,3.89,7.74,7.84,11.47,11.89a11.06,11.06,0,0,0,1.32,1.33c10.1,7.51,20.8,13.84,33.3,16.59C280.43,505.56,281.88,505.18,283.31,505.51Z"/><path class="cls-10" d="M476,334.22c-22.11-1.94-41.41-10.82-59-23.9-4.15-3.1-8-6.59-12.18-10.05-1.7,6.59-4.72,12.12-10.56,15.76a33.33,33.33,0,0,1-17.6,4.88c-19.32.13-36.52-5.76-51.15-18.79,0,0-.27.06-.28.16-1.64,15.45-10.81,25.58-24,32.15-17.33,8.65-35.45,10.51-54.08,4-2-.7-4-3-5.91-2.1-1.68.74-2.6,3.13-3.93,4.73a28.89,28.89,0,0,1-15.8,10.14c-1.86-.06-2.05-1.57-2.34-2.85-.76-3.26-1.41-6.54-2.33-9.75-.79-2.79.12-4.51,2.58-5.93,10-5.83,20.19-11.46,30.6-16.62a416,416,0,0,1,51.26-21.24,301,301,0,0,1,75.21-14.91c11.89-.86,23.77-1.05,35.7-1.06,16.55,0,32.66,2.64,48.76,5.82a8.75,8.75,0,0,1,3.24,1.12A28,28,0,0,0,476,292c.06-2-3.35-1.65-2.15-4a7.64,7.64,0,0,1,5.95,1.74c1.41,3.37,2.46,3.71,4.48,1.45,7.37,1.73,14.9,3,21.64,6.7a28.13,28.13,0,0,1,3.92,2.52c6.62,5.22,7.82,12.7,2.95,19.54-5.07,7.13-12.39,10.88-20.66,13-2.4.6-4.9.79-7.35,1.16a6.9,6.9,0,0,1-4.62,1.18C478.68,335.29,477.2,335.33,476,334.22Z"/><path class="cls-11" d="M480.26,334.47l4.5-.34c0,9.84,1.22,19.66.58,29.51-.29,4.34-.62,8.68-.93,13-.29-.26-.79-.49-.84-.8-.91-5.19-1.76-10.39-2.62-15.58-1-7.51-1.21-15.07-1.57-22.62A3.93,3.93,0,0,1,480.26,334.47Z"/><path class="cls-8" d="M238.86,570.72c2-2.6,2.66-5.86,4.22-8.69,8.77-15.93,22.71-23.84,40.28-26.31,2.55-.36,5.23,0,7.65-1.24,1.2-.63,1.94.42,2.73,1,7.92,6.11,13.54,14.1,18.55,22.6.81,1.37,1,3.29,3,3.7-1.83.91-1,2.17-.48,3.42,2.49,6.21,4.44,12.53,3.93,19.36-.56,7.52-6.34,15.51-12.74,17.46a10,10,0,0,1-7.63-.26c-1.93-1-3.15-.39-4.65,1-2.94,2.6-6,4.92-10.23,5.53-2.84.41-5.11-.62-7.5-1.45-1.46-.5-2.56-.69-3.67.5-5.75,6.21-14.37,2-18-3.09-3-4.14-4.28-9-5.7-13.74a85.75,85.75,0,0,0-5.06-14A19.94,19.94,0,0,0,238.86,570.72Z"/><path class="cls-8" d="M468.72,516.47c1,2.3,2.36,2.91,4.94,2.09,14.45-4.58,32,1.55,39.09,13.46a21.77,21.77,0,0,1,3.18,10.63c.07,2.63,1.11,3.86,3.66,3.93-2.31,2.58-1.26,5.65-1.22,8.56.08,6.19.89,12.38-1.06,18.5-2.2,6.9-8.54,10-15,6.83-2.29-1.13-3.88-1.17-5.85.65-3.92,3.62-11.76,3.22-16.46-.73-1.36-1.15-2.62-1.84-4.15-.74-8.85,6.36-17.26,1.82-21.35-6.74-5.38-11.22-4.6-22.52-.83-34C456.64,530.05,461.39,522.41,468.72,516.47Z"/><path class="cls-8" d="M232.59,475.92a83.39,83.39,0,0,1-19.1-20.3c-3.45-5.18-7-10.32-8.87-16.36-.29-2.74-1.49-5.16-2.52-7.65-.53-1.28-1.41-1.26-2.55-1-14.49,3.13-24.93-3.54-33.09-14.45-7.27-9.7-10.33-20.92-9.58-33.1a13.91,13.91,0,0,1,.91-4.25l1.84,2.32c1.63-3.23,1.84-6.19-.31-9.09.89-3.69,3.41-6.15,6.48-8,3.68-2.19,7.65-3.67,12.1-2.76-1.44,6.5,1.55,12.18,3.73,17.84a148.24,148.24,0,0,0,17.69,32.95,19.51,19.51,0,0,0,2.52,2.77c2.51,4.14,3.65,8.85,5.35,13.31a174,174,0,0,0,24.68,44.72C232.55,473.76,233.48,474.64,232.59,475.92Z"/><path class="cls-12" d="M232.59,475.92c-1-2.94-3.2-5.09-5-7.49-10.72-14.63-18.09-30.9-24.07-47.89-.62-1.76-1.39-3.46-2.09-5.19-3.18-6.62-4.7-13.77-6.36-20.84-2.91-12.37-5.51-24.81-7.58-37.35a2,2,0,0,0-.73-1.39,51.88,51.88,0,0,0-5,3.77c-1,.85-1.84,2.06-3.41,1.94-8.24.1-14.75,3.33-19,10.55-4.9-7.45-8.32-15.61-11.22-24a4.48,4.48,0,0,1,.75-4.11,123.72,123.72,0,0,1,24.56-27.32,214,214,0,0,1,38.2-25.42,412.23,412.23,0,0,1,52.93-23.44c2.31-.84,2.66-1.7,2.27-4-3.45-20.6-9.41-40.42-18.93-59-7.77-15.19-17.48-28.94-32.68-37.83-.6.16-.79-.16-.79-.69,5.47-4.22,11.6-7.38,17.69-10.54,21.42-11.14,44.23-17.79,68.16-20.83A219.45,219.45,0,0,1,330.47,133c8.56.09,17,.86,25.52,1.78,4.49.49,6.46,4.07,8.79,7,17.12,21.1,27.65,45.52,35.4,71.26A180.47,180.47,0,0,1,406,237.3c.32,2.06,1,2.19,2.81,1.94a150.89,150.89,0,0,1,34.3-1.12c10.17,1,20.2,2.85,29.72,6.87,3.05,1.29,4.82,3,5.29,6.5a213.62,213.62,0,0,1,1.89,22c.15,5.43,0,10.83-.22,16.25l-6.19-1.3c-3.41.72-6.43-.45-9.36-2-7.41-2.26-15.08-3.26-22.67-4.54-13.45-2.26-27.06-2.66-40.64-2.41-37.64.68-74.39,6.37-109.81,19.76a472.53,472.53,0,0,0-71.45,34.25c-2.09,1.22-2.62,2.41-1.93,4.7,1,3.29,1.58,6.7,2.37,10.05.25,1.08.19,2.35,1.49,2.9-.9.61-.56,1.44-.37,2.23,6.52,27.46,12.17,55.16,22,81.73,6.79,18.36,15.1,36,26.41,52a77.72,77.72,0,0,0,12.3,14.14,4,4,0,0,1,1.38,4.16c-1.58,1.4-3.35.79-5,.4C265.87,503,255,497,245.21,489.13,240.51,485.34,236.77,480.36,232.59,475.92Z"/><path class="cls-13" d="M214.41,166.19l.79.69c-.09.64-.33,1.2-1.08,1.08a1.17,1.17,0,0,1-.78-.7C213.19,166.49,213.79,166.29,214.41,166.19Z"/><path class="cls-14" d="M318.09,405a6.25,6.25,0,0,0,1.38-.65c6.25-4.85,11.48-5.19,18.12-.86,5.5,3.6,10.82,7.46,16.28,11.14,3.58,2.41,7,3.52,11.59,1.39,5.83-2.7,12.24-3.43,18.37.09,5.19,3,7.1,7.78,7.29,13.34.52,15.78-10.42,30-26.57,34-18.94,4.62-34-2.6-46.17-16.7-10.71-12.44-10.86-26.59-1.14-39.84a3.23,3.23,0,0,0,.89-1.94Z"/><path class="cls-15" d="M460.71,377.47c2.32.95,4.64,1.9,5.45,4.62-.79,2.61.85,3.65,2.86,4.44,3.72,6.27,2.74,12.49-1,18.17-8.32,12.71-25.06,12.49-33.51-.21a5.16,5.16,0,0,0-.67-.65c-.63-.22-1.06-.53-.64-1.28-2.35-7.2-2.19-14.09,2.68-20.31,4-5.06,9.37-7.27,15.67-7.67,2.32-.15,3.16.71,2.91,3.07-.16,1.49-.64,3.09.2,4.57,3.53,2.45,4.49,2,5.12-2.18C459.94,379.12,459.87,378.13,460.71,377.47Z"/><path class="cls-15" d="M292.12,408.67c.92,3.68-1.74,6-3.61,8.33-5.13,6.31-15,8.45-22.21,5.27-8.15-3.61-13.11-11.75-12.16-20.24a20.7,20.7,0,0,1,6.25-12.59c.66-.66,1.38-1.81,2.31-.23,1.61,2.35,1.57,5.08,1.82,7.74a3.11,3.11,0,0,1-1.59,2.47c-.8.5-1.6,1.11-1.11,2.22s1.43,1,2.38.94c.71-.06,1.42-.18,2.14-.19,2.78.07,3.31-1.46,2.82-3.82a79.47,79.47,0,0,1-1.72-10c-.09-1.2-.48-2.48.71-3.42a19.78,19.78,0,0,1,24.53,13.79c.49,2,1.18,4.1.22,6.2a1.35,1.35,0,0,1-.91,0c-1.2-.38-2.4-.43-2.79,1s.93,1.6,1.88,1.94A2.14,2.14,0,0,1,292.12,408.67Z"/><path class="cls-10" d="M263.94,397.45q-.62-4.11-1.24-8.24c-.65-7.53-.72-15.07,1.72-22.3,4.87-14.43,16.88-21.87,33.84-21.32,14,.45,24.15,8.08,28.5,21.39a71.61,71.61,0,0,1,3.05,26.58c-.11,2-.72,3.67-3,3.62-2.59-.06-2.76-2-2.65-4.06A67.55,67.55,0,0,0,322.3,372c-4.43-16.6-16.45-23.86-33.28-20-12.57,2.85-19.13,10.3-20.59,23.18-.37,3.33-.85,6.62-.28,10-.23,4.82,1.08,9.43,2,14.08.7,3.58-.51,4.7-4.2,3.89C264.13,401.62,264.46,399.39,263.94,397.45Z"/><path class="cls-10" d="M460.71,377.47c-.09,1.35-.19,2.69-.29,4-.11,1.71-.76,3.1-2.61,3.38s-2.84-.89-3.13-2.67c.72-9.56.27-19-3.63-27.93-5.17-11.79-14-16.67-26.87-15.29a40.67,40.67,0,0,0-7.39,1.27c-10.86,3.21-15.93,11.14-17.68,21.7-1.27,7.62-.48,15.17,1.21,22.65.25,1.12.58,2.23.74,3.36a2.53,2.53,0,0,1-2,3.07c-1.55.43-2.93-.07-3.3-1.57-3.62-14.78-5.31-29.5,3.48-43.24,4.76-7.43,12.11-10.92,20.61-12.28,9.83-1.57,19.21-.87,27.37,5.59,6.63,5.26,9.81,12.55,11.7,20.52C460.28,365.79,460.52,371.63,460.71,377.47Z"/><path class="cls-16" d="M363.17,380.54c3.47.29,7.06-.4,8.14,3.42.95,3.4-1.63,5.52-3.9,7.54-4.74,4.23-14.56,2-17-3.8-.94-2.23-.11-3.8,1.82-5C355.76,380.51,359.71,380.51,363.17,380.54Z"/><path class="cls-17" d="M480.26,334.47q.4,12,.8,23.93c0,.62-.07,1.25-.11,1.88-2.18-8.59-3.2-17.39-4.92-26.06Z"/><path class="cls-18" d="M302,417.43c-1.49-.31-2.63-1-2.38-2.68a2.49,2.49,0,0,1,2.87-2.25,2.53,2.53,0,0,1,2.39,2.76C304.75,416.82,303.5,417.43,302,417.43Z"/><path class="cls-19" d="M469,386.53c-1.36.16-2.7.38-3.57-1.13s-.3-2.37.71-3.31c1.19-.42,2.34-1,3.29.51A2.9,2.9,0,0,1,469,386.53Z"/><path class="cls-20" d="M433.22,402.56c.21.43.43.86.64,1.28-.05,1.76-.68,3-2.68,3a2.38,2.38,0,0,1-2.39-2,2.2,2.2,0,0,1,.74-2.23C430.75,401.44,432,401.93,433.22,402.56Z"/><path class="cls-21" d="M318.13,405c-.36.2-.72.39-1.07.6-1.74,1.06-3,.39-3.74-1.26s.22-2.67,1.66-3.11c1.9-.58,2.93.39,3.13,2.29a11.35,11.35,0,0,1,0,1.54Z"/><path class="cls-20" d="M416.13,392.61c1.52.41,2.67,1.24,2.53,2.81a2.16,2.16,0,0,1-2.63,2.06c-1.55-.18-2.64-1-2.42-2.62A2.48,2.48,0,0,1,416.13,392.61Z"/><path class="cls-22" d="M292.12,408.67c-1.79.36-3.41.1-4-1.85-.39-1.26.61-2.06,1.6-2.69,1.45-.94,2.26.22,3.19,1A4.67,4.67,0,0,1,292.12,408.67Z"/><path class="cls-23" d="M448.19,486.08c2.8,2.28-.35,4.68-.13,7-.19-2.16-.37-4.33-.56-6.49Z"/><path class="cls-24" d="M445.34,510.5c.59-1.67,1.19-3.33,1.78-5,.77,2.32-.27,4.07-1.13,5.87C445.56,511.24,445.54,510.8,445.34,510.5Z"/><path class="cls-25" d="M447.86,504.72a9,9,0,0,1,1.33-5.3A7.2,7.2,0,0,1,447.86,504.72Z"/><path class="cls-26" d="M445.34,510.5l.65.88c-.4,1.22-.47,2.6-1.7,3.41l-.2.05C443.77,513.18,444.91,511.94,445.34,510.5Z"/><path class="cls-27" d="M444.09,514.84l.2-.05a3.89,3.89,0,0,1-1.14,3.17.53.53,0,0,1-.77-.09C442.71,516.72,442.82,515.45,444.09,514.84Z"/><path class="cls-28" d="M442.38,517.87l.76.09a5.44,5.44,0,0,1-1.4,3.14c-.42-.07-.48-.45-.65-.74A3.69,3.69,0,0,1,442.38,517.87Z"/><path class="cls-29" d="M440.83,522.79c-.35.89-.52,1.91-1.71,2.32a3.83,3.83,0,0,1,1.21-2.94A.87.87,0,0,1,440.83,522.79Z"/><path class="cls-30" d="M440.83,522.79l-.5-.62c.25-.61.51-1.21.76-1.81.22.25.44.49.65.74Z"/><path class="cls-31" d="M464.23,286.51a60.15,60.15,0,0,1,9.36,2,18.75,18.75,0,0,0,2.51,1.78c.88.44,1.88.75,1.46,1.95-.36,1-1.49.78-2.18.56C471.26,291.42,467.27,289.79,464.23,286.51Z"/><path class="cls-10" d="M178.36,361.48a64.74,64.74,0,0,1,9.42-7.49c.74,4.21,1.35,8.17,2.14,12.09,3.14,15.63,6.15,31.29,11,46.53.28.89.4,1.83.59,2.74-2.9-2.15-4.65-5.24-6.47-8.21-7.72-12.64-14.47-25.72-18.17-40.2C176.22,364.57,176.13,362.83,178.36,361.48Z"/><path class="cls-32" d="M351.67,460.28a43.87,43.87,0,0,1-24-10.67,1.63,1.63,0,0,1-.29-2.63,15.33,15.33,0,0,1,5.35-4.71c5.61-2.63,10.75,0,12.05,6.19.13.6.1,1.24.18,1.86.17,1.29.49,2.56,2,2.83,1.31.23,2.06-.68,2.74-1.68,2-3,4.46-5.42,8.11-6.51a10.48,10.48,0,0,1,13.61,9.43c.12,1.83-1.1,2.07-2.15,2.56C363.79,459.52,357.92,460.25,351.67,460.28Z"/><path class="cls-19" d="M462.87,399.67c-.34,1.48-1.25,2.39-2.81,2.19a2.31,2.31,0,0,1-2.14-2.83,2.21,2.21,0,0,1,2.59-2.06A2.4,2.4,0,0,1,462.87,399.67Z"/><path class="cls-33" d="M443.69,394a2.37,2.37,0,0,1-2.6,2.5,2.31,2.31,0,0,1-2.32-2.46c0-1.61,1-2.43,2.6-2.4A2.16,2.16,0,0,1,443.69,394Z"/><path class="cls-34" d="M263.94,397.45c1.36,1.63,1.44,3.72,2,5.63a13.61,13.61,0,0,0-1.82.35c-1.78.55-2.87-.3-3.43-1.82s.37-2.41,1.66-2.86C263.11,398.49,263.73,398.27,263.94,397.45Z"/><path class="cls-35" d="M272.82,412.3a2.33,2.33,0,0,1,2.4,2.44,2.28,2.28,0,0,1-2.47,2.58,2.39,2.39,0,0,1-2.57-2.55C270.17,413.17,271.39,412.5,272.82,412.3Z"/><text class="cls-36" transform="matrix(1, -0.02, 0.02, 1, 65.67, 191.32)">?</text></g></g></svg>