<svg xmlns="http://www.w3.org/2000/svg" viewBox="0 0 974 778.06"><defs><style>.cls-1{fill:#e6e6e6;}.cls-2{fill:#f9e7db;}.cls-3{fill:#f7f9ec;}.cls-4{fill:#f7ba8e;}.cls-5{fill:#5c2602;}.cls-6{fill:#acc222;}.cls-7{fill:#d05111;}.cls-8{fill:#eca87a;}.cls-9{fill:#ec6f6a;}.cls-10{fill:#5c2703;}.cls-11{fill:#5c2603;}.cls-12{fill:#5d2703;}.cls-13{fill:#b52820;}.cls-14{fill:#b4261f;}.cls-15{fill:#b3251e;}.cls-16{fill:#b2231c;}.cls-17{fill:#b3241d;}</style></defs><title>Welldone_Boy</title><g id="Layer_2" data-name="Layer 2"><g id="Layer_4" data-name="Layer 4"><circle class="cls-1" cx="461" cy="561.23" r="214"/><circle class="cls-1" cx="715.5" cy="503.73" r="258.5"/><ellipse class="cls-1" cx="174" cy="530.23" rx="174" ry="199"/><path class="cls-2" d="M187,331.2a3.34,3.34,0,0,1-.89-.06V318.46a3.77,3.77,0,0,1,.89,0A11.16,11.16,0,0,1,187,331.2Z"/><path class="cls-3" d="M445.85,778.06c0-.29,0-.59,0-.88a10.92,10.92,0,0,1,12.7,0c0,.3,0,.59,0,.88Z"/><path class="cls-4" d="M430,498.08c-6.08-3.73-13.22-4.09-19.83-6.14-31.68-9.8-61.45-23.24-87.32-44.4-26.73-21.88-45.36-49.26-55.48-82.35-.39-1.3-.69-2.31-2.14-2.56-2-1.72-2.44-4.19-3-6.57-1.69-7.53-3.5-15.08-4-22.77-1.27-18.71-1.8-37.43.75-56.1a5.59,5.59,0,0,1,1-3c4.05-3,2.38-7.91,3.89-11.78,1-2.53.89-5.47,1.29-8.22.67-2.25,2.71-2.62,4.53-3.13,24.57-7,49.36-12.82,75-14.49,2.46-.17,4.86-.9,7.32-.89,9.88.06,8.77-1.36,11-8.7,6.52-21.37,12.37-43,20.89-63.68,2.94-7.15,5.7-14.42,10.24-20.78,1.44-2,3.09-4.37,5.85-3.78,3.07.67,3.53,3.71,3.82,6.33,1,8.65-.59,17.2-1.37,25.76-1.43,15.76-4,31.41-4.65,47.24-.3,7.68,0,7.75,7.73,8.77,30.86,4.07,61.74,8,92.33,13.9,5.09,1,5.73.51,6.46-4.77,2.62-18.81,4.9-37.67,6.45-56.6a49.9,49.9,0,0,0-.53-13.69,17.53,17.53,0,0,1-.21-5.78c.19-1.39.35-2.92,2-3.41s2.66.64,3.62,1.67a33.29,33.29,0,0,1,5,7.44c9.15,17.37,12.3,36.2,13.3,55.5.41,7.72.13,15.49,0,23.23,0,3.59,1.49,5.41,4.94,6.3,19.6,5.05,39,10.74,58.36,16.62,7.92,2.41,15.58,5.52,23.42,8.14,3.07,1,4.42,1.13,4.34-2.79-.51-24.79,1.16-49.62-2.12-74.34-.49-3.68-1.42-7.24-2.15-10.86-.42-2.13-1.72-5,1-6,2.24-.85,3.58,1.78,4.54,3.61,5.12,9.83,10.29,19.65,13.65,30.28,6.85,21.61,11,43.66,10.15,66.43-.21,5.36,2.46,8,6.74,10.12a225.56,225.56,0,0,1,38.39,24.06c1.88,1.46,4.36,2.57,4.23,5.6-1.21,7.38-3,14.7-2.21,22.29,1.28,5-1.16,9.54-2.16,14.22a92.39,92.39,0,0,1-3.7,11.4c-3.78,11.32-8.08,22.42-14.11,32.77a234,234,0,0,1-13.11,21.61c-1.29,1.88-2.52,3.84-4.92,4.53-3.1.11-3.64,3.1-5.08,4.86A200.16,200.16,0,0,1,594.77,483a194.81,194.81,0,0,1-62.57,21.24c-15.54,2.57-31.35,2.8-47.11,2.36-2.11,1.7-4.6,1.6-7,1.34A333.93,333.93,0,0,1,436,501.15C433.73,500.62,431.54,500,430,498.08Z"/><path class="cls-5" d="M699.37,321.5a152.68,152.68,0,0,0-39-25.8C650.6,291.21,648,285.54,648.18,275c.43-31.89-8-61.86-23.42-89.83-.81-1.47-1.51-3.17-3.78-3.76,7.67,30.46,5.12,61.33,5.58,92,.07,4.39-.38,5.83-5.26,4-27.3-10.44-55.49-18-83.71-25.45-4.21-1.11-5.54-2.72-5.25-7.11,1.3-19.78-.11-39.39-5.34-58.58-2.59-9.5-5.78-18.84-12-26.75-.82-1-1.43-2.49-3.43-2.37-1,4.71.68,9.3.69,13.95,0,17.12-2.52,34-4.55,50.93-.73,6.11-1.82,12.18-2.46,18.3-.31,2.91-1.45,3.39-4.12,2.83-33.21-7-66.93-10.73-100.51-15.37-3.66-.51-4.63-1.8-4.54-5.24.45-17.45,3.33-34.66,4.88-52,.69-7.7,1.12-15.43,1.54-23.15a18.23,18.23,0,0,0-.68-4.66c-.28-1.31-.22-3.11-2-3.32-1.49-.18-2.43,1.13-3.32,2.28-4.8,6.2-7.69,13.41-10.61,20.56-9.07,22.17-15.72,45.17-22.16,68.19-1.54,5.5-3.89,6.81-9.28,7-30.57,1.17-60.22,7.54-89.31,16.78-4.47.15-8.44,2.15-12.54,3.56-2.69.92-3.69.32-4.27-2.5-2.63-12.75-2.29-25.6-.71-38.35,4-32.72,13.61-63.72,30.37-92.29C300.42,86.5,331.45,58,372.28,40.48,397,29.87,423,24.55,449.61,21.46,470.79,19,492,17.72,513.29,19.39c33.29,2.59,64.78,10.39,92,30.84,5.15,3.87,9.59,8.71,15.26,13.93-4.12-9.47-8-17.82-11.39-26.37-2.84-7.16-5.44-14.43-6.46-22.17a26.07,26.07,0,0,1,.08-7.33c.56-3.71,2-6.81,5.86-7.93s7,.35,9.53,3c4.55,4.77,7.44,10.62,10,16.6,7.3,17.2,11.44,35.31,15.1,53.55.24,1.19.65,2.34,1.19,4.2,6-4.16,11.6-8.19,17.9-11.1,16.3-7.54,33.21-12.26,51.35-11.36,4.51.22,9.06.5,12.92,3.54,5.41,4.27,5.77,8.17.65,13-4.84,4.53-10.86,7-17,9.07a259.53,259.53,0,0,1-42.85,10.36c-1,.15-2.32-.29-2.8.87-.64,1.55.9,2.06,1.77,2.82,34.2,29.55,49.78,68.34,55.13,112,5,40.82.57,81-9.33,120.67-.37,1.48-.41,3.07-1.77,4.25C706.86,328.2,704.14,323.75,699.37,321.5Z"/><path class="cls-6" d="M458.54,777.18h-12.7c-38.32-1.44-73-13.65-104-36a266.94,266.94,0,0,1-51.43-48.85c-2-2.49-2.65-4.76-1.41-8,12-31.76,27.16-61.79,49.13-87.87,10.87-12.9,23.1-24.55,37.94-33a2,2,0,0,1,2.29.86c9.05,11.2,21.52,17.82,33.44,25.19,9.29,5.73,18.16,12,25,20.75a26.93,26.93,0,0,1,5.58,16,134.75,134.75,0,0,1,19.78-17.37,90.4,90.4,0,0,1,37.35-16.2c8.77-1.67,17.83-2.7,24.25-10.07.33-.38,1-.23,1.47,0,10.13,7.51,18.13,17,25.49,27.11,18.38,25.2,28.18,54,34.32,84.18,1.92,9.46,3,19.1,5,28.52,1,4.65-.63,7-4.11,9.44a265.24,265.24,0,0,1-78.14,37C491.65,773.52,475.19,775.81,458.54,777.18Z"/><path class="cls-7" d="M525.15,582.56c-5.29,6.9-12.84,9.41-21,10.5-23.13,3.09-41.64,14.82-57.9,30.8-1.23,1.21-2.26,2.64-3.26,3.83-.83-.44-1.31-.56-1.33-.73-2.2-18.61-16.51-27.19-30.2-36.06-9.12-5.91-18.48-11.42-27.06-18.16-3.42-2.69-5.39-6.41-8.38-9.33-3.48-13.94-.35-25.79,11.44-34.53,7.25-5.38,15.89-7.35,24.68-8.34,4.17-.47,8.41-.24,12.62-.33,1.68,1.87.9,4,.52,6-1.43,7.61-2.38,15.31-4,22.88-1,4.85.44,8.6,3.61,12,8.51,9.19,19,12.14,31.15,10,.52-.09,1-.25,1.54-.35,10.94-2.1,18.87-6.65,19.09-19.66.12-6.59,1.87-13.21,3.39-19.73.32-1.35.46-2.8,1.66-3.78,13.61,4.11,25.89,10.48,35.51,21.26C526,558.66,530.36,569.5,525.15,582.56Z"/><path class="cls-8" d="M260,274.23c.95,5.79-.89,11.42-1,17.13-.17,11.75-.53,23.54.09,35.27.6,11.12,2.95,22.08,5.62,32.93.25,1,.36,2.05.53,3.07-6.89,2.85-13.13,7.16-20.8,8.22-16.94,2.34-32.61-.17-45.3-12.4a37.48,37.48,0,0,1-11.08-22.13c-.24-1.73-.71-3.42-1.08-5.12V318.41c1.54-8.92,2.49-18,5.94-26.46,9.19-22.47,27.67-30.9,51.45-23.75A109,109,0,0,1,260,274.23Z"/><path class="cls-8" d="M659.16,428.32C665.57,420,670.81,411,676,401.93c3,6.94,7.23,12.74,14.57,15.78,8.43,3.5,16.93,2,23.33-4.41A37.11,37.11,0,0,0,724,393.87c1.9-9.68-2.72-17-12.49-20.34-5.36-1.85-11-2.26-16.58-2.94-1.73-.22-3.55,0-5-1.28,3.21-8.28,5.05-16.95,7.27-25.52,10-.73,19.59.71,28.57,5.19,13,6.49,19.83,17.51,21.06,31.7a81,81,0,0,1-9,44.73c-10.77,20.82-30.73,27.65-52.43,20.33C675.19,442.3,665.9,437.14,659.16,428.32Z"/><path class="cls-8" d="M481.76,527.62c-2,11.73-3.92,23.45-5.92,35.17-.2,1.16-.38,2.37-1.68,3.09-15.53,8.56-35.23,12.27-49.81-3.16-3.94-4.18-5.83-8.48-4.38-14.61,2.17-9.16,3.26-18.59,4.81-27.9,3.38-5.21,2.2-11.49,4-17.07.53-1.64.82-3.37,1.22-5.06,18.1,4.47,36.38,7.8,55.07,8.49C483.69,513.54,482.18,520.5,481.76,527.62Z"/><path class="cls-9" d="M689.89,369.31a59.78,59.78,0,0,1,22.69,3.13c9.29,3.09,13.4,9.34,13.09,19.09-.38,12.05-10.5,25.85-21.06,28.86-13.26,3.79-29.64-8.76-28.6-18.46A193.17,193.17,0,0,0,689.89,369.31Z"/><path class="cls-9" d="M466.12,319.53c12.48.61,24.8,1.86,35.47,9.35,6,4.24,7.39,9.83,3,15.81-6.59,9.06-15.49,14.51-27,15.05-7.52.37-12.66-4.53-18.08-8.57-4.64-3.47-8.76-7.47-11.3-12.92-4.56-9.73-.27-17.59,10.47-18.69C461.19,319.32,463.67,319.53,466.12,319.53Z"/><path class="cls-10" d="M398.57,306.32a102.18,102.18,0,0,1-4.81,28.5c-.6,1.93-1.14,4.75-4,3.67-2.57-.95-1-3.27-.52-5,3.33-12.63,6.22-25.3,3.92-38.51-2.95-16.87-15.8-27.88-35.22-30.19-18.17-2.16-31.41,5.45-38.72,22.36a90.54,90.54,0,0,0-7,32.3c0,.88,0,1.76-.06,2.64-.14,1.6-.33,3.49-2.38,3.46s-2.19-1.86-2.26-3.51c-.29-7.09.87-14.08,2.25-20.95,2.18-10.77,5.88-21.09,13.49-29.36,10.25-11.14,23.24-13.45,37.65-11.23C385.69,264.3,399.78,281.32,398.57,306.32Z"/><path class="cls-11" d="M650.79,354.77c.18,8.57-1.75,17.67-4.49,26.59-.65,2.1-.8,6.06-3.94,5.19-3.36-.94-1.05-4.19-.5-6.31,2.88-11.09,5.12-22.18,3.83-33.8-2.07-18.56-14.34-30.75-33.05-33.32-13.55-1.86-25.57,0-34.83,11-6.53,7.76-9.57,17.13-11.4,26.87a100.59,100.59,0,0,0-2.15,18.82c0,1.57.11,3.41-2.16,3.52s-2.39-1.72-2.34-3.3c.56-17.45,3.18-34.42,14.14-48.72a32.72,32.72,0,0,1,20.68-12.63c13.87-2.43,27.12-.38,38.91,7.3C647,324.82,651.22,338.45,650.79,354.77Z"/><path class="cls-12" d="M490.75,400.11c-29.5-.16-56.79-8-81.69-23.93a11.56,11.56,0,0,1-1.7-1.24c-1.45-1.34-4.37-2.47-2.7-4.85s3.8-.08,5.39,1C432.77,386.44,458,394,485.22,395.37c12.7.63,25.21-1.15,37.69-3.24,2.07-.34,4.65-1.37,5,1.72.31,2.65-2.41,2.44-4.23,2.79C512.81,398.79,501.88,400.33,490.75,400.11Z"/><path class="cls-13" d="M573.37,429.31c-2.56-.29-4.4-1.53-4.5-4.23s1.25-4.62,3.87-4.83a4.12,4.12,0,0,1,4.8,4.37C577.56,427.19,576,428.81,573.37,429.31Z"/><path class="cls-14" d="M638.94,409.12c0-4.14,1.4-5.87,4.06-5.85s4.62,1.5,4.52,4.56a4,4,0,0,1-4.37,4.17C640.69,412,638.9,410.54,638.94,409.12Z"/><path class="cls-14" d="M598.94,411.47c-.27,2.8-1.55,4.87-4.46,4.77a4,4,0,0,1-4.1-4.39c0-2.7,1.43-4.36,4.07-4.35C596.89,407.51,598.73,408.74,598.94,411.47Z"/><path class="cls-14" d="M628.61,428.62c0,3.69-1.43,5.51-4,5.59a4.06,4.06,0,0,1-4.5-4.16,3.94,3.94,0,0,1,4.06-4.53C626.68,425.4,628.57,426.64,628.61,428.62Z"/><path class="cls-14" d="M302,373.17c-2.67-.42-4.16-2-4.23-4.6s1.55-4.44,4.2-4.31a4.33,4.33,0,0,1,4.36,4.42C306.37,371.31,304.48,372.66,302,373.17Z"/><path class="cls-15" d="M378.93,373.65c-2.49-.27-4.07-1.64-4-4.4s1.76-4.27,4.39-4.16,4.34,1.58,4.14,4.38C383.3,372.05,381.91,373.68,378.93,373.65Z"/><path class="cls-14" d="M296.26,340.55c-.25,3-1.58,4.61-4.35,4.52s-4.34-1.5-4.31-4.23a4,4,0,0,1,4.28-4.28C294.57,336.57,295.8,338.41,296.26,340.55Z"/><path class="cls-16" d="M336.08,358.52c2.72.19,4.27,1.65,4.1,4.37-.16,2.56-1.6,4.32-4.37,4.19s-4.09-1.85-4.13-4.46C331.65,359.78,333.49,358.7,336.08,358.52Z"/><path class="cls-17" d="M356,382.4c-.31,2.43-1.63,4.36-4.1,4.55s-4.26-1.17-4.46-4,1.12-4.26,3.82-4.48S355.38,379.88,356,382.4Z"/><path class="cls-15" d="M552,397.7c2.56.54,4,2,4,4.65s-1.62,4.17-4.32,4-4.3-1.66-4.15-4.37S549.45,398.05,552,397.7Z"/><path class="cls-9" d="M257,319c-.18,2.8,0,5.67-.58,8.39-2,10.14-8.59,16.17-18.55,17.45-10.18,1.3-19.56-3.17-23.91-11.84-4.89-9.77-6.46-19.82-2.1-30.41,2.58-6.26,7.64-8.58,13.55-9.38C234,292,242.2,294.4,250,297.69c6.82,2.89,5.14,10.07,6.75,15.52.53,1.77.09,3.84.09,5.78Z"/></g></g></svg>