<svg height="512" viewBox="0 0 512 512" width="512" xmlns="http://www.w3.org/2000/svg"><g id="filled_outline" data-name="filled outline"><g fill="#bb2416"><path d="m88 224h96v32h-96z"/><path d="m312 224h112.001v32h-112.001z"/><path d="m320 328h64v32h-64z"/></g><path d="m384 360 48 24v-32l-48-24z" fill="#f92714"/><path d="m432 384-32-16v72a32 32 0 0 0 32-32z" fill="#fb594b"/><path d="m368 280h64v32h-64z" fill="#bb2416"/><path d="m488 312h-32v64a32 32 0 0 0 32-32z" fill="#fb594b"/><path d="m432 280 56 16v32l-56-16z" fill="#f92714"/><path d="m216 384v8a24 24 0 0 1 -24 24 24 24 0 0 1 -24-24v-8z" fill="#f92714"/><path d="m168 384v56h-4a28 28 0 0 1 -28-28 28 28 0 0 1 28-28z" fill="#fb594b"/><path d="m172.971 444.971 14.058 14.058a16.972 16.972 0 0 1 4.971 12 16.971 16.971 0 0 1 -16.971 16.971 16.972 16.972 0 0 1 -12-4.971l-14.058-14.058a16.972 16.972 0 0 1 -4.971-12 16.971 16.971 0 0 1 16.971-16.971 16.972 16.972 0 0 1 12 4.971z" fill="#f92714"/><path d="m296 384v8a24 24 0 0 0 24 24 24 24 0 0 0 24-24v-8z" fill="#f92714"/><path d="m344 384v56h4a28 28 0 0 0 28-28 28 28 0 0 0 -28-28z" fill="#fb594b"/><path d="m339.029 444.971-14.058 14.058a16.972 16.972 0 0 0 -4.971 12 16.971 16.971 0 0 0 16.971 16.971 16.972 16.972 0 0 0 12-4.971l14.058-14.058a16.972 16.972 0 0 0 4.971-12 16.971 16.971 0 0 0 -16.971-16.971 16.972 16.972 0 0 0 -12 4.971z" fill="#f92714"/><path d="m120 136 48 96h48l-39.155-78.311a32 32 0 0 0 -28.622-17.689z" fill="#bb2416"/><path d="m120 136v-80a32 32 0 0 1 32-32v64h24v24a24 24 0 0 1 -24 24z" fill="#f92714"/><path d="m176 88a33.941 33.941 0 0 0 0-48l-24 24v24z" fill="#fb594b"/><path d="m392 136-48 96h-48l39.155-78.311a32 32 0 0 1 28.622-17.689z" fill="#bb2416"/><path d="m392 136v-80a32 32 0 0 0 -32-32v64h-24v24a24 24 0 0 0 24 24z" fill="#f92714"/><path d="m336 88a33.941 33.941 0 0 1 0-48l24 24v24z" fill="#fb594b"/><path d="m88 224-64-32v32l64 32z" fill="#f92714"/><path d="m24 192 32 16v-80a32 32 0 0 0 -32 32z" fill="#fb594b"/><path d="m128 328h64v32h-64z" fill="#bb2416"/><path d="m128 360-48 24v-32l48-24z" fill="#f92714"/><path d="m80 384 32-16v72a32 32 0 0 1 -32-32z" fill="#fb594b"/><path d="m424 224 64-32v32l-64 32z" fill="#f92714"/><path d="m488 192-32 16v-80a32 32 0 0 1 32 32z" fill="#fb594b"/><path d="m80 280h64v32h-64z" fill="#bb2416"/><path d="m132.955 246.124 11.867-10.878a164.537 164.537 0 0 1 111.178-43.246 164.537 164.537 0 0 1 111.178 43.246l11.867 10.878a48 48 0 0 1 1.506 69.325l-47.463 47.463a72 72 0 0 1 -50.911 21.088h-52.354a72 72 0 0 1 -50.911-21.088l-47.463-47.463a48 48 0 0 1 1.506-69.325z" fill="#ef3c07"/><path d="m24 312h32v64a32 32 0 0 1 -32-32z" fill="#fb594b"/><path d="m80 280-56 16v32l56-16z" fill="#f92714"/><path d="m379.045 246.124-11.867-10.878q-6.032-5.528-12.539-10.39a400.422 400.422 0 0 1 -188.4 125.378l12.678 12.678a72 72 0 0 0 50.906 21.088h52.354a72 72 0 0 0 50.911-21.088l47.463-47.463a48 48 0 0 0 -1.506-69.325z" fill="#fc3f07"/><path d="m456 120a8 8 0 0 0 -8 8v75.056l-25.889 12.944h-61.167l38.211-76.422a7.989 7.989 0 0 0 .845-3.578v-80a40.045 40.045 0 0 0 -40-40 8 8 0 0 0 -8 8v20.686l-10.343-10.343a8 8 0 0 0 -11.314 0 42 42 0 0 0 -2.343 56.771v20.886a31.877 31.877 0 0 0 8.31 21.491l-29.123 58.248q-6.171-1.916-12.488-3.365a8 8 0 1 0 -14.519-2.683 173.723 173.723 0 0 0 -48.36 0 8 8 0 1 0 -14.519 2.683q-6.312 1.449-12.488 3.365l-29.123-58.248a31.877 31.877 0 0 0 8.31-21.491v-20.886a42 42 0 0 0 -2.343-56.771 8 8 0 0 0 -11.314 0l-10.343 10.343v-20.686a8 8 0 0 0 -8-8 40.045 40.045 0 0 0 -40 40v80a7.989 7.989 0 0 0 .844 3.578l38.212 76.422h-61.167l-25.889-12.944v-75.056a8 8 0 0 0 -8-8 40.045 40.045 0 0 0 -40 40v64a8 8 0 0 0 4.422 7.155l63.887 31.945a7.97 7.97 0 0 0 3.691.9h24.159a55.625 55.625 0 0 0 -1.971 8h-30.188a7.994 7.994 0 0 0 -2.339.348l-55.861 15.96a8 8 0 0 0 -5.8 7.692v48a40.045 40.045 0 0 0 40 40 8 8 0 0 0 8-8v-51.108l17.122-4.892h43.593c.16.169.322.337.484.5a7.981 7.981 0 0 0 -.89.4l-47.887 23.945a8 8 0 0 0 -4.422 7.155v56a40.045 40.045 0 0 0 40 40 8 8 0 0 0 8-8v-67.056l9.889-4.944h42.8l.569.569a81.187 81.187 0 0 0 8.542 7.431h-17.8a35.988 35.988 0 0 0 -21.858 64.587 24.949 24.949 0 0 0 1.171 34.041l14.059 14.059a24.971 24.971 0 0 0 35.315-35.315l-14.059-14.059a25.428 25.428 0 0 0 -2.628-2.289v-17.319a31.989 31.989 0 0 0 48-27.705v-.208q2.892.207 5.823.208h52.354q2.928 0 5.823-.208v.208a31.989 31.989 0 0 0 48 27.7v17.319a25.428 25.428 0 0 0 -2.628 2.289l-14.059 14.059a24.971 24.971 0 0 0 35.315 35.315l14.059-14.059a24.949 24.949 0 0 0 1.171-34.041 35.988 35.988 0 0 0 -21.858-64.582h-17.8a81.187 81.187 0 0 0 8.543-7.431l.569-.569h42.8l9.888 4.944v67.056a8 8 0 0 0 8 8 40.045 40.045 0 0 0 40-40v-56a8 8 0 0 0 -4.422-7.155l-47.887-23.945a7.981 7.981 0 0 0 -.89-.4c.162-.167.324-.335.484-.5h43.593l17.122 4.892v51.108a8 8 0 0 0 8 8 40.045 40.045 0 0 0 40-40v-48a8 8 0 0 0 -5.8-7.692l-55.859-15.96a7.994 7.994 0 0 0 -2.341-.348h-30.188a55.625 55.625 0 0 0 -1.971-8h24.159a7.963 7.963 0 0 0 3.708-.91l63.869-31.935a8 8 0 0 0 4.423-7.155v-64a40.045 40.045 0 0 0 -40-40zm-296 272.4v39.2a20 20 0 0 1 0-39.2zm21.372 72.286a8.97 8.97 0 1 1 -12.685 12.685l-14.059-14.059a8.97 8.97 0 1 1 12.685-12.685zm10.628-56.686a16.019 16.019 0 0 1 -16-16h32a16.019 16.019 0 0 1 -16 16zm165.372 55.313-14.059 14.059a8.97 8.97 0 1 1 -12.685-12.685l14.059-14.059a8.97 8.97 0 1 1 12.685 12.685zm10.628-51.313a20.038 20.038 0 0 1 -16 19.6v-39.2a20.038 20.038 0 0 1 16 19.6zm-48-4a16.019 16.019 0 0 1 -16-16h32a16.019 16.019 0 0 1 -16 16zm144-270.629a24.042 24.042 0 0 1 16 22.629v27.056l-16 8zm-96-104a24.042 24.042 0 0 1 16 22.629v72h-24a16.019 16.019 0 0 1 -16-16v-16h16a8 8 0 0 0 8-8zm-31.107 18.835 15.107 15.107v12.687h-12.421a26.013 26.013 0 0 1 -2.686-27.794zm12.051 91.794h30.112l-32.751 65.5a171.9 171.9 0 0 0 -23.975-12.272zm-173.837-91.794a26.013 26.013 0 0 1 -2.686 27.794h-12.421v-12.687zm-31.107-18.835v54.629a8 8 0 0 0 8 8h16v16a16.019 16.019 0 0 1 -16 16h-24v-72a24.042 24.042 0 0 1 16-22.629zm19.056 110.629 26.614 53.228a171.793 171.793 0 0 0 -23.97 12.272l-32.756-65.5zm-115.056-6.629v57.685l-16-8v-27.056a24.042 24.042 0 0 1 16-22.629zm-16 67.573 48 24v14.112l-48-24zm64 43.056v-16h40.524l-8.974 8.227a56.775 56.775 0 0 0 -7.056 7.773zm-64 54.034 40-11.428v15.359l-40 11.435zm16 64.6a24.042 24.042 0 0 1 -16-22.634v-9.965l16-4.572zm40-62.634v-16h21.754a55.351 55.351 0 0 0 4.3 16zm0 52.944 32-16v14.112l-32 16zm16 73.685a24.042 24.042 0 0 1 -16-22.629v-19.056l16-8zm32-78.629v-16h4.686l16 16zm93.823 24a63.579 63.579 0 0 1 -45.254-18.745l-47.463-47.463a40 40 0 0 1 1.255-57.771l11.868-10.877a156.53 156.53 0 0 1 211.544 0l11.867 10.877a40 40 0 0 1 1.255 57.771l-47.463 47.463a63.579 63.579 0 0 1 -45.255 18.745zm146.177-24h-20.686l16-16h4.686zm32 78.629v-49.685l16 8v19.056a24.042 24.042 0 0 1 -16 22.629zm16-59.573-32-16v-14.112l32 16zm40-4.427v-37.166l16 4.572v9.965a24.042 24.042 0 0 1 -16 22.629zm16-49.229-40-11.43v-15.364l40 11.428zm-56-13.4h-26.059a55.351 55.351 0 0 0 4.305-16h21.754zm-8-56h-24v.669a56.745 56.745 0 0 0 -7.55-8.442l-8.974-8.227h40.524zm64-28.944-48 24v-14.112l48-24z"/></g></svg>