<svg height="512" viewBox="0 0 512 512" width="512" xmlns="http://www.w3.org/2000/svg"><g id="filled_outline" data-name="filled outline"><path d="m320 336v72l24 24-8 56h24l16-64v-8l-16-16v-64z" fill="#c37c02"/><path d="m240 344v16l8 128h24v-128-16z" fill="#c37c02"/><path d="m448 264a32 32 0 0 0 32 32h8v12a20 20 0 0 1 -20 20 20 20 0 0 1 -20-20z" fill="#fbd79a"/><path d="m168 184v24a24 24 0 0 0 24 24h208a56 56 0 0 1 56 56v16a56 56 0 0 1 -56 56v32l32 32-16 64h-24l8-48-40-40v-40h-144v128h-24l-16-128a56 56 0 0 1 -56-56v-120z" fill="#f69c03"/><g fill="#f8b035"><path d="m110.833 232h18.334a24 24 0 0 0 21.466-13.267l17.367-34.733v-48a16 16 0 0 0 -16-16h-64a16 16 0 0 0 -16 16v48l17.367 34.733a24 24 0 0 0 21.466 13.267z"/><path d="m72 136h-16a32 32 0 0 1 -32-32h16a32 32 0 0 1 32 32z"/><path d="m168 136h16a32 32 0 0 0 32-32h-16a32 32 0 0 0 -32 32z"/></g><path d="m96 216a24 24 0 0 1 24-24 24 24 0 0 1 24 24 16 16 0 0 1 -16 16h-16a16 16 0 0 1 -16-16z" fill="#774b01"/><path d="m488 288h-8a24.02 24.02 0 0 1 -16.318-6.4 64.091 64.091 0 0 0 -63.682-57.6h-208a16.019 16.019 0 0 1 -16-16v-64h8a40.045 40.045 0 0 0 40-40 8 8 0 0 0 -8-8h-16a39.964 39.964 0 0 0 -31.98 16h-24.02v-20.687l11.314-11.313h36.686a8 8 0 0 0 5.657-2.343l16-16-11.314-11.314-13.656 13.657h-17.373l18.343-18.343a8 8 0 0 0 2.343-5.657v-24h-16v20.687l-45.657 45.656a8 8 0 0 0 -2.343 5.657v24h-16v-24a8 8 0 0 0 -2.343-5.657l-45.657-45.656v-20.687h-16v24a8 8 0 0 0 2.343 5.657l18.343 18.343h-17.373l-13.656-13.657-11.314 11.314 16 16a8 8 0 0 0 5.657 2.343h36.686l11.314 11.313v20.687h-24.02a39.964 39.964 0 0 0 -31.98-16h-16a8 8 0 0 0 -8 8 40.045 40.045 0 0 0 40 40h8v40a7.987 7.987 0 0 0 .845 3.577l17.366 34.735a31.826 31.826 0 0 0 28.622 17.688h1.167v64a64.093 64.093 0 0 0 56.889 63.607l15.173 121.385a8 8 0 0 0 7.938 7.008h24a8 8 0 0 0 8-8v-120h8.484l7.532 120.5a8 8 0 0 0 7.984 7.5h24a8 8 0 0 0 8-8v-120h32v40a8 8 0 0 0 2.343 5.657l21.172 21.171-7.435 52.04a8 8 0 0 0 7.92 9.132h24a8 8 0 0 0 7.761-6.06l14.173-56.692 9.5 9.5-7.324 43.939a8 8 0 0 0 7.89 9.313h24a8 8 0 0 0 7.761-6.06l16-64a8 8 0 0 0 -2.1-7.6l-29.661-29.653v-21.187a64.157 64.157 0 0 0 48.728-33.892 27.963 27.963 0 0 0 39.272-25.608v-12a8 8 0 0 0 -8-8zm-288-176h6.629a24.042 24.042 0 0 1 -22.629 16h-6.629a24.042 24.042 0 0 1 22.629-16zm-144 16a24.042 24.042 0 0 1 -22.629-16h6.629a24.042 24.042 0 0 1 22.629 16zm24 54.111v-54.111h80v54.111l-10.613 21.227a32 32 0 0 0 -58.774 0zm24 33.889a16 16 0 0 1 32 0 8.009 8.009 0 0 1 -8 8h-16a8.009 8.009 0 0 1 -8-8zm160 264h-8.484l-7-112h15.484zm104-56.984-14.246 56.984h-8.53l6.7-46.868a8 8 0 0 0 -2.263-6.789l-21.661-21.656v-36.687h24v32a8 8 0 0 0 2.343 5.657l13.657 13.657zm32-71.016a8 8 0 0 0 -8 8v32a8 8 0 0 0 2.343 5.657l28.8 28.8-13.389 53.543h-8.311l6.449-38.685a8.008 8.008 0 0 0 -2.235-6.972l-23.976-23.976-.024-.024-13.657-13.656v-36.687a8 8 0 0 0 -8-8h-144a8 8 0 0 0 -8 8v120h-8.938l-15.124-120.992a8 8 0 0 0 -7.938-7.008 48.053 48.053 0 0 1 -48-48v-64h1.167a31.825 31.825 0 0 0 28.622-17.689l3.2-6.4a32.056 32.056 0 0 0 31.011 24.089h208a48.053 48.053 0 0 1 48 48v16a48.053 48.053 0 0 1 -48 48zm80-44a12.018 12.018 0 0 1 -17.677 10.584 63.916 63.916 0 0 0 1.677-14.584v-3.343a39.987 39.987 0 0 0 16 3.343z"/><circle cx="104" cy="152" r="8"/><circle cx="136" cy="152" r="8"/><path d="m192 256h16v16h-16z"/><path d="m232 272h16v16h-16z"/><path d="m272 248h16v16h-16z"/><path d="m312 264h16v16h-16z"/><path d="m352 248h16v16h-16z"/><path d="m392 264h16v16h-16z"/><path d="m368 296h16v16h-16z"/></g></svg>