<?xml version="1.0" encoding="iso-8859-1"?>
<!-- Generator: Adobe Illustrator 19.0.0, SVG Export Plug-In . SVG Version: 6.00 Build 0)  -->
<svg version="1.1" id="Capa_1" xmlns="http://www.w3.org/2000/svg" xmlns:xlink="http://www.w3.org/1999/xlink" x="0px" y="0px"
	 viewBox="0 0 472 472" style="enable-background:new 0 0 472 472;" xml:space="preserve">
<g>
	<path style="fill:#FBA69C;" d="M444,196h-28v-16h28c6.627,0,12-5.373,12-12s-5.373-12-12-12h-12v-16h12c15.464,0,28,12.536,28,28
		S459.464,196,444,196L444,196z"/>
	<path style="fill:#FBA69C;" d="M144,324h48v80h-48V324z"/>
	<path style="fill:#FBA69C;" d="M288,324h48v80h-48V324z"/>
</g>
<path style="fill:#FDD3CE;" d="M464,260c0-61.856-50.144-112-112-112H112v112c0.012,49.521,32.544,93.155,80,107.304V420h48v-48h96
	v48h48v-52.696C431.456,353.155,463.988,309.521,464,260z"/>
<path style="fill:#FDCAC4;" d="M32,68v96c0,44.183,35.817,80,80,80h32c44.183,0,80-35.817,80-80V68H32z"/>
<g>
	<path style="fill:#FBA69C;" d="M205.488,52h37.016c7.449-0.004,13.492,6.031,13.496,13.48c0,0.003,0,0.005,0,0.008
		c0.001,16.974-6.742,33.253-18.744,45.256l-1.944,1.944c-6.248,6.246-16.376,6.246-22.624,0l-1.944-1.944
		C198.742,98.741,191.999,82.462,192,65.488C192,58.039,198.039,52,205.488,52L205.488,52L205.488,52z"/>
	<path style="fill:#FBA69C;" d="M13.488,52h37.024C57.961,52,64,58.039,64,65.488c0.001,16.974-6.742,33.253-18.744,45.256
		l-1.944,1.944c-6.248,6.246-16.376,6.246-22.624,0l-1.944-1.944C6.742,98.741-0.001,82.462,0,65.488C0,58.039,6.039,52,13.488,52z"
		/>
	<path style="fill:#FBA69C;" d="M112,148h32c17.673,0,32,14.327,32,32l0,0c0,17.673-14.327,32-32,32h-32c-17.673,0-32-14.327-32-32
		l0,0C80,162.327,94.327,148,112,148z"/>
</g>
<g>
	<path style="fill:#FDD3CE;" d="M112,172L112,172c4.418,0,8,3.582,8,8l0,0c0,4.418-3.582,8-8,8l0,0c-4.418,0-8-3.582-8-8l0,0
		C104,175.582,107.582,172,112,172z"/>
	<path style="fill:#FDD3CE;" d="M144,172L144,172c4.418,0,8,3.582,8,8l0,0c0,4.418-3.582,8-8,8l0,0c-4.418,0-8-3.582-8-8l0,0
		C136,175.582,139.582,172,144,172z"/>
</g>
<g>
	<path style="fill:#FBA69C;" d="M120,124h-16v-8c0-4.418-3.582-8-8-8s-8,3.582-8,8v8H72v-8c0-13.255,10.745-24,24-24
		s24,10.745,24,24V124z"/>
	<path style="fill:#FBA69C;" d="M184,124h-16v-8c0-4.418-3.582-8-8-8s-8,3.582-8,8v8h-16v-8c0-13.255,10.745-24,24-24
		s24,10.745,24,24V124z"/>
</g>
<g>
</g>
<g>
</g>
<g>
</g>
<g>
</g>
<g>
</g>
<g>
</g>
<g>
</g>
<g>
</g>
<g>
</g>
<g>
</g>
<g>
</g>
<g>
</g>
<g>
</g>
<g>
</g>
<g>
</g>
</svg>
