<svg id="filled_outline" height="512" viewBox="0 0 512 512" width="512" xmlns="http://www.w3.org/2000/svg" data-name="filled outline"><path d="m365.372 182.971-18.789-46.971h-26.583v-16h32a8 8 0 0 1 7.428 5.029l20.8 52z" fill="#b6b6ff"/><path d="m296 184h48v16h-48z" fill="#0a0f7d"/><path d="m360.5 416 63.5-64-45.509-140.077-12.312 4.7a49.811 49.811 0 0 0 -25.5 60.235l6.735 20.612a66.023 66.023 0 0 1 -16.072 67.192 66.023 66.023 0 0 1 -46.69 19.338h-20.552a32.1 32.1 0 0 1 -32.1-32.1v-55.9h-104v120z" fill="#f9a72d"/><path d="m350.179 240.623a12.528 12.528 0 0 1 16.384 7.833l39.51 121.612 17.927-18.068-45.509-140.077-12.312 4.7a49.737 49.737 0 0 0 -25.811 30.3 49.867 49.867 0 0 1 9.811-6.3z" fill="#fab645"/><path d="m47.657 64h152.343a0 0 0 0 1 0 0v208a0 0 0 0 1 0 0h-152.343a23.657 23.657 0 0 1 -23.657-23.657v-160.686a23.657 23.657 0 0 1 23.657-23.657z" fill="#fc3360"/><path d="m79.657 240a23.658 23.658 0 0 1 -23.657-23.657v-152.343h-8.343a23.658 23.658 0 0 0 -23.657 23.657v160.686a23.658 23.658 0 0 0 23.657 23.657h152.343v-32z" fill="#f01b4c"/><path d="m88 272h160v32h-160z" fill="#3735c7"/><path d="m88 288h160v16h-160z" fill="#0a0f7d"/><path d="m88 192h48v48h-48z" fill="#fab645"/><path d="m88 192h16v48h-16z" fill="#f9a72d"/><path d="m168 152a56 56 0 0 1 -112 0z" fill="#fab645"/><path d="m128 200a56 56 0 0 1 -55.422-48h-16.578a55.985 55.985 0 0 0 88.65 45.483 55.973 55.973 0 0 1 -16.65 2.517z" fill="#f9a72d"/><path d="m47.657 64a23.658 23.658 0 0 0 -23.657 23.657v24.343h176v-48z" fill="#fdb3bb"/><path d="m79.657 64h-32a23.658 23.658 0 0 0 -23.657 23.657v24.343h32v-24.343a23.658 23.658 0 0 1 23.657-23.657z" fill="#fda0aa"/><path d="m87.949 304h88.157a23.894 23.894 0 0 1 23.894 23.894v88.106a0 0 0 0 1 0 0h-144a0 0 0 0 1 0 0v-80.051a31.949 31.949 0 0 1 31.949-31.949z" fill="#f96f3c"/><path d="m176.106 304h-88.157a31.946 31.946 0 0 0 -29.126 18.823 31.818 31.818 0 0 1 13.126-2.823h88.157a23.894 23.894 0 0 1 23.894 23.894v72.106h16v-88.106a23.894 23.894 0 0 0 -23.894-23.894z" fill="#fc8c25"/><path d="m40 336h16a0 0 0 0 1 0 0v32a0 0 0 0 1 0 0h-16a16 16 0 0 1 -16-16 16 16 0 0 1 16-16z" fill="#fb3260"/><circle cx="128" cy="424" fill="#0a0f7d" r="48"/><circle cx="128" cy="424" fill="#b6b6ff" r="16"/><circle cx="424" cy="424" fill="#0a0f7d" r="48"/><path d="m144 456a48.007 48.007 0 0 1 -40.988-72.988 48 48 0 1 0 65.976 65.976 47.775 47.775 0 0 1 -24.988 7.012z"/><path d="m440 456a48.007 48.007 0 0 1 -40.988-72.988 48 48 0 1 0 65.976 65.976 47.775 47.775 0 0 1 -24.988 7.012z"/><circle cx="424" cy="424" fill="#b6b6ff" r="16"/><path d="m392 224-40.616-11.6a21.212 21.212 0 0 1 -15.384-20.4 21.212 21.212 0 0 1 15.384-20.4l40.616-11.6a32 32 0 0 1 32 32 32 32 0 0 1 -32 32z" fill="#f9a72d"/><path d="m392 160-40.616 11.6a21.2 21.2 0 0 0 -14.838 15.669l31.286-8.939c19.305-5.516 39.231 8.144 40.135 28.2q.033.729.033 1.465a31.87 31.87 0 0 1 -2.835 13.165 32 32 0 0 0 18.835-29.16 32 32 0 0 0 -32-32z" fill="#fab645"/><path d="m360 416a64 64 0 0 1 128 0z" fill="#f96f3c"/><path d="m408 368a64.027 64.027 0 0 1 61.984 48h18.016a63.992 63.992 0 0 0 -116.535-36.535 63.688 63.688 0 0 1 36.535-11.465z" fill="#fc8c25"/><path d="m392 160a71.556 71.556 0 0 0 0 64 32 32 0 0 0 32-32 32 32 0 0 0 -32-32z" fill="#a9edff"/><path d="m392 160a71.586 71.586 0 0 0 -4.249 10.526 32 32 0 0 1 26.249 31.474 31.842 31.842 0 0 1 -4.935 17.065 31.969 31.969 0 0 0 14.935-27.065 32 32 0 0 0 -32-32z" fill="#e9f6fc"/><ellipse cx="320" cy="128" fill="#b6b6ff" rx="16" ry="24"/><g fill="#f9e083"><path d="m77.657 157.657-11.314-11.314 8-8a3.317 3.317 0 0 0 0-4.686 19.335 19.335 0 0 1 0-27.314l8-8 11.314 11.314-8 8a3.317 3.317 0 0 0 0 4.686 19.335 19.335 0 0 1 0 27.314z"/><path d="m109.657 157.657-11.314-11.314 8-8a3.317 3.317 0 0 0 0-4.686 19.335 19.335 0 0 1 0-27.314l8-8 11.314 11.314-8 8a3.317 3.317 0 0 0 0 4.686 19.337 19.337 0 0 1 0 27.314z"/><path d="m141.657 157.657-11.314-11.314 8-8a3.317 3.317 0 0 0 0-4.686 19.335 19.335 0 0 1 0-27.314l8-8 11.314 11.314-8 8a3.317 3.317 0 0 0 0 4.686 19.337 19.337 0 0 1 0 27.314z"/></g><path d="m168 144h-14.445a19.328 19.328 0 0 0 -3.9-21.657 3.317 3.317 0 0 1 0-4.686l8-8-11.312-11.314-8 8a19.335 19.335 0 0 0 0 27.314 3.317 3.317 0 0 1 0 4.686l-5.656 5.657h-11.132a19.328 19.328 0 0 0 -3.9-21.657 3.317 3.317 0 0 1 0-4.686l8-8-11.312-11.314-8 8a19.335 19.335 0 0 0 0 27.314 3.317 3.317 0 0 1 0 4.686l-5.656 5.657h-11.132a19.328 19.328 0 0 0 -3.9-21.657 3.317 3.317 0 0 1 0-4.686l8-8-11.312-11.314-8 8a19.335 19.335 0 0 0 0 27.314 3.317 3.317 0 0 1 0 4.686l-5.656 5.657h-12.687a8 8 0 0 0 -8 8 64.023 64.023 0 0 0 32 55.39v32.61a8 8 0 0 0 8 8h48a8 8 0 0 0 8-8v-32.61a64.023 64.023 0 0 0 32-55.39 8 8 0 0 0 -8-8zm-40 88h-32v-18.025a64.222 64.222 0 0 0 32 0zm-16-32a48.078 48.078 0 0 1 -47.333-40h94.666a48.078 48.078 0 0 1 -47.333 40z"/><path d="m128 400a24 24 0 1 0 24 24 24.027 24.027 0 0 0 -24-24zm0 32a8 8 0 1 1 8-8 8.009 8.009 0 0 1 -8 8z"/><path d="m429.9 344.261-36.483-112.3a39.994 39.994 0 0 0 -1.417-79.961 8.013 8.013 0 0 0 -2.2.308l-17.466 4.99-12.908-32.269a8 8 0 0 0 -7.426-5.029h-8.728c-2.6-13.951-11.893-24-23.272-24-13.458 0-24 14.056-24 32s10.542 32 24 32c11.379 0 20.672-10.049 23.272-24h3.312l10.287 25.717-7.684 2.195a29.341 29.341 0 0 0 -20.035 20.088h-33.152v16h33.152a29.348 29.348 0 0 0 18.866 19.7 58.1 58.1 0 0 0 -14.947 59.642l6.735 20.612a58.024 58.024 0 0 1 -55.154 76.046h-20.552a24.127 24.127 0 0 1 -24.1-24.1v-39.9h8a8 8 0 0 0 8-8v-32a8 8 0 0 0 -8-8h-40v-200a8 8 0 0 0 -8-8h-152.343a31.693 31.693 0 0 0 -31.657 31.657v160.686a31.693 31.693 0 0 0 31.657 31.657h32.343v16.8a40.062 40.062 0 0 0 -31.2 31.2h-8.8a24 24 0 0 0 0 48h8v40a8 8 0 0 0 8 8h16a56 56 0 0 0 112 0h184a56 56 0 0 0 112 0h8a8 8 0 0 0 8-8 72.083 72.083 0 0 0 -66.1-71.739zm-109.9-200.261c-3.262 0-8-6.233-8-16s4.738-16 8-16 8 6.233 8 16-4.738 16-8 16zm-280 216a8 8 0 0 1 0-16h8v16zm376-168a24.034 24.034 0 0 1 -19.027 23.475 63.936 63.936 0 0 1 0-46.95 24.034 24.034 0 0 1 19.027 23.475zm-62.418-12.7 25.438-7.268a80.256 80.256 0 0 0 0 39.942l-25.438-7.274a13.211 13.211 0 0 1 0-25.406zm-321.582 69.043v-128.343h24v-16h-24v-16.343a15.674 15.674 0 0 1 15.657-15.657h144.343v32h-24v16h24v144h-144.343a15.674 15.674 0 0 1 -15.657-15.657zm208 31.657v16h-144v-16zm-112 184a40 40 0 1 1 40-40 40.045 40.045 0 0 1 -40 40zm64-56h-10.341a55.991 55.991 0 0 0 -107.318 0h-10.341v-72.051a23.976 23.976 0 0 1 23.949-23.949h88.156a15.912 15.912 0 0 1 15.895 15.9zm160.455 0h-144.455v-80.1a31.69 31.69 0 0 0 -4.26-15.9h20.26v39.9a40.146 40.146 0 0 0 40.1 40.1h20.552a74.024 74.024 0 0 0 70.363-97.015l-6.735-20.611a42 42 0 0 1 18.82-49.169l8.046 2.3 38.109 117.3a72.144 72.144 0 0 0 -60.8 63.195zm71.545 56a40.045 40.045 0 0 1 -40-40h16a24 24 0 0 0 48 0h16a40.045 40.045 0 0 1 -40 40zm8-40a8 8 0 0 1 -16 0zm-63.43-16a56.005 56.005 0 0 1 110.86 0z"/></svg>