<svg id="fill" height="512" viewBox="0 0 64 64" width="512" xmlns="http://www.w3.org/2000/svg"><path d="m44.452 11.645-1.252-5.645h-5.087v-2h5.887a1 1 0 0 1 .977.783l1.428 6.428z" fill="#895e7a"/><path d="m22.956 51.083-1.994-.166c.025-.3.038-.607.038-.917a11 11 0 0 0 -17.149-9.122l-1.12-1.656a13 13 0 0 1 20.269 10.778c0 .364-.015.726-.044 1.083z" fill="#35d7fd"/><circle cx="54" cy="50" fill="#7dd491" r="7"/><circle cx="54" cy="50" fill="#ffe8ae" r="4"/><circle cx="10" cy="50" fill="#7dd491" r="7"/><circle cx="10" cy="50" fill="#ffe8ae" r="4"/><path d="m55.959 49.6-8.559-39.766-3.961.561 8.574 39.79h.01a2 2 0 1 0 3.941-.586z" fill="#ffd257"/><path d="m53.584 50.183h-.01l-8.574-39.783 2.441-.346-.041-.22-3.961.561 8.574 39.79h.01a1.991 1.991 0 0 0 2.77 1.655 2 2 0 0 1 -1.209-1.657z" fill="#f89c5b"/><path d="m33 49 16-16 3.158-1.053 1.273 5.909-3.431 1.144-10 10z" fill="#e94561"/><path d="m48.569 38.053-10 10h-4.622l-.947.947h7l10-10 3.431-1.144-.287-1.328z" fill="#895e7a"/><path d="m10 48h31a0 0 0 0 1 0 0v.976a3.024 3.024 0 0 1 -3.024 3.024h-27.976a2 2 0 0 1 -2-2 2 2 0 0 1 2-2z" fill="#e94561"/><path d="m37.976 50h-27.976a1.994 1.994 0 0 1 -1.723-1 1.988 1.988 0 0 0 1.723 3h27.976a3.024 3.024 0 0 0 3.024-3.024v-.976h-.19a3.015 3.015 0 0 1 -2.834 2z" fill="#895e7a"/><rect fill="#aa889f" height="4" rx="2" width="10" x="29" y="3"/><circle cx="31" cy="5" fill="#895e7a" r="2"/><path d="m55.371 42.118-7-32.5a1 1 0 0 0 -1.118-.779l-1.333.188-.944-4.249a1 1 0 0 0 -.976-.778h-4.184a3 3 0 0 0 -2.816-2h-6a3 3 0 0 0 0 6h6a3 3 0 0 0 2.816-2h3.384l.736 3.314-.64.09a1 1 0 0 0 -.837 1.2l4.879 22.644-13.752 13.752h-10.944a13 13 0 0 0 -19.831-7.833l1.107 1.666a11 11 0 0 1 16.662 6.167h-3.191a8 8 0 1 0 0 6h20.587a4.03 4.03 0 0 0 4.024-4.024v-.562l7.079-7.079.442 2.054a7.983 7.983 0 1 0 5.85-1.271zm-18.371-36.118h-6a1 1 0 0 1 0-2h6a1 1 0 0 1 0 2zm12.521 27.893.019-.019 1.875-.625.849 3.943-1.9.632zm3.167 5.265 2.292 10.642a.958.958 0 0 1 .02.2 1 1 0 0 1 -1 1 .989.989 0 0 1 -.985-.908 1.014 1.014 0 0 0 -.056-.245l-2.167-10.057zm-6.075-28.2 4.378 20.328-1.9.633-4.452-20.685zm-36.613 45.042a6 6 0 1 1 5.174-9h-5.174a3 3 0 0 0 0 6h5.174a6.031 6.031 0 0 1 -5.174 3zm27.976-5h-27.976a1 1 0 0 1 0-2h30a2.027 2.027 0 0 1 -2.024 2zm2.61-4h-4.172l11.424-11.424.74 3.432zm13.414 9a5.99 5.99 0 0 1 -4.012-10.447l1.043 4.847.012.047a2.995 2.995 0 0 0 5.957-.447 2.915 2.915 0 0 0 -.063-.607v-.007l-1.1-5.09a6 6 0 0 1 -1.837 11.704z"/></svg>