<svg id="fill" height="512" viewBox="0 0 64 64" width="512" xmlns="http://www.w3.org/2000/svg"><path d="m46 17h6v10h-6z" fill="#58a066"/><path d="m46 17h2v10h-2z" fill="#7dd491"/><path d="m29 26h24v14h-24z" fill="#aa889f"/><path d="m44 14h10v4h-10z" fill="#f89c5b"/><path d="m44 14h8a0 0 0 0 1 0 0 4 4 0 0 1 -4 4h-4a0 0 0 0 1 0 0v-4a0 0 0 0 1 0 0z" fill="#ffd257"/><path d="m5 18h24v22h-24z" fill="#7dd491"/><path d="m5 18h22a0 0 0 0 1 0 0v6.576a13.424 13.424 0 0 1 -13.424 13.424h-8.576a0 0 0 0 1 0 0v-20a0 0 0 0 1 0 0z" fill="#c6ec6b"/><path d="m9 12h16a6 6 0 0 1 6 6 0 0 0 0 1 0 0h-28a0 0 0 0 1 0 0 6 6 0 0 1 6-6z" fill="#ffd257"/><path d="m26.629 12.23.043.033a2.675 2.675 0 0 1 -1.718 4.737h-21.864a6 6 0 0 0 -.09 1h28a6 6 0 0 0 -4.371-5.77z" fill="#f89c5b"/><path d="m11 22h12v10h-12z" fill="#35d7fd"/><path d="m11 22h12a0 0 0 0 1 0 0 10 10 0 0 1 -10 10h-2a0 0 0 0 1 0 0v-10a0 0 0 0 1 0 0z" fill="#bbf9ff"/><path d="m3 41.013v5.974a1.014 1.014 0 0 0 1.013 1.013h55.348a1.013 1.013 0 0 0 .906-1.466l-3.267-6.534h-52.987a1.014 1.014 0 0 0 -1.013 1.013z" fill="#03b3e2"/><g fill="#895e7a"><path d="m36 31h2v2h-2z"/><path d="m40 31h2v2h-2z"/><path d="m44 31h2v2h-2z"/></g><path d="m53 26c2.209 0 4 3.134 4 7s-1.791 7-4 7z" fill="#e94561"/><path d="m32 31h2v2h-2z" fill="#895e7a"/><circle cx="51" cy="49" fill="#e94561" r="4"/><path d="m52.64 45.36a3.985 3.985 0 0 1 -5.28 5.28 3.995 3.995 0 1 0 5.28-5.28z" fill="#b72c4b"/><circle cx="37" cy="49" fill="#e94561" r="4"/><path d="m37.707 45.071a3.977 3.977 0 0 1 -3.414 6.858 3.992 3.992 0 1 0 3.414-6.858z" fill="#b72c4b"/><circle cx="16" cy="45" fill="#e94561" r="8"/><path d="m21.133 38.867a8 8 0 0 1 -11.266 11.266 8 8 0 1 0 11.266-11.266z" fill="#b72c4b"/><rect fill="#f89c5b" height="4" rx="2" transform="matrix(.97 .243 -.243 .97 11.828 -5.756)" width="20" x="19.239" y="43.055"/><path d="m12 25.266v-1.548a.717.717 0 0 1 .718-.718h1.548a.718.718 0 0 1 .508 1.226l-1.548 1.548a.718.718 0 0 1 -1.226-.508z" fill="#fff"/><path d="m5 18h2v20h-2z" fill="#efffc2"/><path d="m51 26v6.992a5.008 5.008 0 0 1 -5.008 5.008h-16.992v2h24v-14z" fill="#895e7a"/><rect fill="#fff" height="2" rx="1" width="18" x="31" y="28"/><circle cx="16" cy="45" fill="#ffe8ae" r="2"/><path d="m16.82 43.18a1.992 1.992 0 0 1 -2.64 2.64 2 2 0 1 0 2.64-2.64z" fill="#ffd257"/><path d="m11 33h12a1 1 0 0 0 1-1v-10a1 1 0 0 0 -1-1h-12a1 1 0 0 0 -1 1v10a1 1 0 0 0 1 1zm1-10h10v8h-10z"/><path d="m4.013 49h3.937a8.987 8.987 0 0 0 16.813-1.974l7.246 1.816c0 .053-.009.105-.009.158a5 5 0 0 0 10 0h4a5 5 0 0 0 10 0h3.361a2.014 2.014 0 0 0 1.8-2.914l-3.261-6.533a1 1 0 0 0 -.9-.553h-.668a10.538 10.538 0 0 0 1.668-6c0-4.486-2.2-8-5-8v-6h1a1 1 0 0 0 1-1v-4a1 1 0 0 0 -1-1h-10a1 1 0 0 0 -1 1v4a1 1 0 0 0 1 1h1v6h-15v-6h1a1 1 0 0 0 1-1 7.008 7.008 0 0 0 -7-7h-16a7.008 7.008 0 0 0 -7 7 1 1 0 0 0 1 1h1v20a2.016 2.016 0 0 0 -2 2.012v5.974a2.015 2.015 0 0 0 2.013 2.014zm11.987 3a7 7 0 1 1 5.033-11.858 3.007 3.007 0 0 0 -2.464 2.239 2.944 2.944 0 0 0 -.066.972 2.995 2.995 0 1 0 .497 1.647c0-.088-.019-.172-.026-.258a2.983 2.983 0 0 0 1.776 1.279l2.075.519a6.966 6.966 0 0 1 -6.825 5.46zm21.243-5.97a1 1 0 0 1 -.487 1.939l-15.52-3.889a1 1 0 1 1 .486-1.939zm-20.243-1.03a1 1 0 1 1 -1-1 1 1 0 0 1 1 1zm20 7a2.994 2.994 0 0 1 -2.965-2.65l2.235.56a2.986 2.986 0 0 0 3.547-1.91 2.967 2.967 0 0 1 .183 1 3 3 0 0 1 -3 3zm14 0a3 3 0 1 1 3-3 3 3 0 0 1 -3 3zm8.361-5h-3.785a4.99 4.99 0 0 0 -9.152 0h-4.858a5 5 0 0 0 -4.014-2.955l-12.152-3.045h30.98zm-5.361-19.613c1.072.824 2 2.9 2 5.613s-.928 4.789-2 5.613zm-9-12.387h8v2h-8zm2 4h4v6h-4zm5 8v12h-22v-12zm-43-14h16a5.008 5.008 0 0 1 4.9 4h-25.8a5.008 5.008 0 0 1 4.9-4zm19 6v20h-5.29a8.981 8.981 0 0 0 -13.4 0h-3.31v-20zm-23.987 22h3.937a8.845 8.845 0 0 0 -.719 6l-3.231-.013z"/><path d="m36 31h2v2h-2z"/><path d="m40 31h2v2h-2z"/><path d="m44 31h2v2h-2z"/><path d="m32 31h2v2h-2z"/></svg>