<?xml version="1.0" encoding="iso-8859-1"?>
<!-- Generator: Adobe Illustrator 19.0.0, SVG Export Plug-In . SVG Version: 6.00 Build 0)  -->
<svg version="1.1" id="Capa_1" xmlns="http://www.w3.org/2000/svg" xmlns:xlink="http://www.w3.org/1999/xlink" x="0px" y="0px"
	 viewBox="0 0 480 480" style="enable-background:new 0 0 480 480;" xml:space="preserve">
<path style="fill:#D3B585;" d="M104,120h160v168H104V120z"/>
<path style="fill:#B4833F;" d="M264,288H104c81.506-14.387,145.095-78.584,158.704-160.224L264,120L264,288z"/>
<path style="fill:#FFD884;" d="M144,80c8.837,0,16,7.163,16,16v104l24-24l24,24l24-24V96.288
	c-0.004-8.994-7.294-16.284-16.288-16.288H144z"/>
<path style="fill:#2BB3CE;" d="M408,168H296v112H56v80h240h32h48h64V249.232L408,168z"/>
<g>
	<circle style="fill:#5A6570;" cx="120" cy="360" r="24"/>
	<circle style="fill:#5A6570;" cx="352" cy="360" r="24"/>
</g>
<path style="fill:#8D9AA5;" d="M0,384h480v16H0V384z"/>
<path style="fill:#1D5C88;" d="M328,272h16v16h-16V272z"/>
<path style="fill:#D1E3EE;" d="M328,200h56l16,48l-72-8V200z"/>
<g>
	<path style="fill:#B4833F;" d="M128,240h16v16h-16V240z"/>
	<path style="fill:#B4833F;" d="M160,240h16v16h-16V240z"/>
</g>
<g>
	<path style="fill:#D1E3EE;" d="M408,296h32v64h-32V296z"/>
	<path style="fill:#D1E3EE;" d="M40,328h16l0,0v32l0,0H40c-8.837,0-16-7.163-16-16S31.163,328,40,328z"/>
</g>
<g>
	<path style="fill:#B4833F;" d="M64,144h16v16H64V144z"/>
	<path style="fill:#B4833F;" d="M64,176h16v16H64V176z"/>
	<path style="fill:#B4833F;" d="M48,160h16v16H48V160z"/>
	<path style="fill:#B4833F;" d="M48,192h16v16H48V192z"/>
	<path style="fill:#B4833F;" d="M80,160h48v16H80V160z"/>
	<path style="fill:#B4833F;" d="M80,192h56v16H80V192z"/>
	<path style="fill:#B4833F;" d="M16,176h16v16H16V176z"/>
	<path style="fill:#B4833F;" d="M24,144h16v16H24V144z"/>
	<path style="fill:#B4833F;" d="M0,120h16v16H0V120z"/>
</g>
<g>
</g>
<g>
</g>
<g>
</g>
<g>
</g>
<g>
</g>
<g>
</g>
<g>
</g>
<g>
</g>
<g>
</g>
<g>
</g>
<g>
</g>
<g>
</g>
<g>
</g>
<g>
</g>
<g>
</g>
</svg>
