<svg height="512" viewBox="0 0 512 512" width="512" xmlns="http://www.w3.org/2000/svg"><g id="flat"><rect fill="#ccc" height="240" rx="120" width="400" x="56" y="184"/><path d="m400.849 203.017a401.267 401.267 0 0 1 -231.549 220.794c2.217.122 4.449.189 6.7.189h160a120 120 0 0 0 120-120 119.9 119.9 0 0 0 -55.151-100.983z" fill="#999"/><rect fill="#fdb62f" height="48" rx="24" width="80" x="232" y="184"/><rect fill="#fdb62f" height="48" rx="24" width="80" x="232" y="248"/><rect fill="#fdb62f" height="48" rx="24" width="80" x="232" y="312"/><rect fill="#fdb62f" height="48" rx="24" width="80" x="232" y="376"/><path d="m216 184v240h-40a120 120 0 0 1 -120-120 120 120 0 0 1 120-120z" fill="#eaeaea"/><g fill="#00341c"><path d="m112 232h16v16h-16z"/><path d="m160 264h16v16h-16z"/><path d="m128 288h16v16h-16z"/><path d="m104 320h16v16h-16z"/><path d="m152 344h16v16h-16z"/><path d="m152 208h16v16h-16z"/><path d="m176 384h16v16h-16z"/><path d="m120 368h16v16h-16z"/><path d="m80 272h16v16h-16z"/></g><path d="m288 176h-32a32 32 0 0 0 0 64h32a32 32 0 0 0 0-64zm7.9 45.893c.059-.624.1-1.254.1-1.893a20.023 20.023 0 0 0 -20-20h-20v16h20a4 4 0 0 1 0 8h-20a16 16 0 0 1 0-32h32a15.988 15.988 0 0 1 7.9 29.893z" fill="#f69c03"/><path d="m288 240h-32a32 32 0 0 0 0 64h32a32 32 0 0 0 0-64zm7.9 45.893c.059-.624.1-1.254.1-1.893a20.023 20.023 0 0 0 -20-20h-20v16h20a4 4 0 0 1 0 8h-20a16 16 0 0 1 0-32h32a15.988 15.988 0 0 1 7.9 29.893z" fill="#f69c03"/><path d="m288 304h-32a32 32 0 0 0 0 64h32a32 32 0 0 0 0-64zm7.9 45.893c.059-.624.1-1.254.1-1.893a20.023 20.023 0 0 0 -20-20h-20v16h20a4 4 0 0 1 0 8h-20a16 16 0 0 1 0-32h32a15.988 15.988 0 0 1 7.9 29.893z" fill="#f69c03"/><path d="m288 368h-32a32 32 0 0 0 0 64h32a32 32 0 0 0 0-64zm7.9 45.893c.059-.624.1-1.254.1-1.893a20.023 20.023 0 0 0 -20-20h-20v16h20a4 4 0 0 1 0 8h-20a16 16 0 0 1 0-32h32a15.988 15.988 0 0 1 7.9 29.893z" fill="#f69c03"/><rect fill="#f76012" height="48" rx="16" width="88" x="328" y="304"/><rect fill="#f76012" height="48" rx="16" width="88" x="328" y="256"/><rect fill="#f76012" height="48" rx="16" width="88" x="328" y="352"/><rect fill="#f76012" height="48" rx="16" width="88" x="328" y="208"/><rect fill="#f76012" height="48" rx="16" width="88" x="328" y="208"/><path d="m356.686 208 47.442 47.443a16 16 0 0 0 11.314-11.314l-36.128-36.129z" fill="#f7af7c"/><path d="m356.686 256 47.442 47.443a16 16 0 0 0 11.314-11.314l-36.128-36.129z" fill="#f7af7c"/><path d="m328.558 267.871 36.128 36.129h22.628l-47.442-47.443a16 16 0 0 0 -11.314 11.314z" fill="#f7af7c"/><path d="m356.686 304 47.442 47.443a16 16 0 0 0 11.314-11.314l-36.128-36.129z" fill="#f7af7c"/><path d="m328.558 315.871 36.128 36.129h22.628l-47.442-47.443a16 16 0 0 0 -11.314 11.314z" fill="#f7af7c"/><path d="m356.686 352 47.442 47.443a16 16 0 0 0 11.314-11.314l-36.128-36.129z" fill="#f7af7c"/><path d="m488 120-464-8v-24h464z" fill="#a65a14"/><path d="m24 88h464v-32l-464 8z" fill="#763a02"/><path d="m328.558 219.871 36.128 36.129h22.628l-47.442-47.443a16 16 0 0 0 -11.314 11.314z" fill="#f7af7c"/><path d="m328.558 363.871 36.128 36.129h22.628l-47.442-47.443a16 16 0 0 0 -11.314 11.314z" fill="#f7af7c"/><path d="m336 152h-160a152 152 0 0 0 -152 152 152 152 0 0 0 152 152h160a152 152 0 0 0 152-152 152 152 0 0 0 -152-152zm120 152a120 120 0 0 1 -120 120h-160a120 120 0 0 1 -120-120 120 120 0 0 1 120-120h160a120 120 0 0 1 120 120z" fill="#a65a14"/><path d="m412.245 172.485q-5.09 15.555-11.4 30.532a119.9 119.9 0 0 1 55.155 100.983 120 120 0 0 1 -120 120h-160c-2.248 0-4.479-.067-6.7-.189a397.032 397.032 0 0 1 -60.122 16.742 151.362 151.362 0 0 0 66.822 15.447h160a152 152 0 0 0 152-152 151.931 151.931 0 0 0 -75.755-131.515z" fill="#7d440f"/><path d="m169.3 423.811c2.217.122 4.449.189 6.7.189h40v-20.747a397.964 397.964 0 0 1 -46.7 20.558z" fill="#b7b7b7"/></g></svg>