<svg height="512" viewBox="0 0 512 512" width="512" xmlns="http://www.w3.org/2000/svg"><g id="flat"><path d="m24 136h464v352h-464z" fill="#fdb62f"/><ellipse cx="152" cy="340" fill="#fda909" rx="96" ry="20"/><rect fill="#eaeaea" height="96" rx="48" width="240" x="72" y="248"/><ellipse cx="292" cy="452" fill="#fda909" rx="116" ry="20"/><rect fill="#eaeaea" height="96" rx="48" width="240" x="200" y="360"/><path d="m200 152v56a24 24 0 0 0 24 24h16a24 24 0 0 0 24-24v-56z" fill="#00341c"/><rect fill="#eaeaea" height="64" rx="32" width="64" x="200" y="120"/><path d="m224 144h16v16h-16z" fill="#f92714"/><path d="m296 152v56a24 24 0 0 0 24 24h16a24 24 0 0 0 24-24v-56z" fill="#00341c"/><rect fill="#eaeaea" height="64" rx="32" width="64" x="296" y="120"/><path d="m320 144h16v16h-16z" fill="#f92714"/><path d="m392 152v56a24 24 0 0 0 24 24h16a24 24 0 0 0 24-24v-56z" fill="#00341c"/><rect fill="#eaeaea" height="64" rx="32" width="64" x="392" y="120"/><path d="m416 144h16v16h-16z" fill="#f92714"/><path d="m80 280h224a24 24 0 0 0 24-24 40 40 0 0 0 -40-40h-192a40 40 0 0 0 -40 40 24 24 0 0 0 24 24z" fill="#f76012"/><path d="m128 296h16v16h-16z" fill="#c2bfc4"/><path d="m256 304h16v16h-16z" fill="#c2bfc4"/><path d="m488 88-464-8v-24h464z" fill="#a65a14"/><path d="m24 56h464v-32l-464 8z" fill="#763a02"/><path d="m168 216h48v128h-48z" fill="#052d1a"/><g fill="#c2bfc4"><path d="m240 408h16v16h-16z"/><path d="m280 416h16v16h-16z"/><path d="m328 408h16v16h-16z"/><path d="m384 408h16v16h-16z"/></g><ellipse cx="88" cy="436" fill="#fda909" rx="40" ry="12"/><path d="m96 440a24 24 0 0 0 24-24 38.628 38.628 0 0 0 -11.314-27.314l-12.686-12.686-12.686 12.686a38.628 38.628 0 0 0 -11.314 27.314 24 24 0 0 0 24 24z" fill="#8cc63f"/><path d="m208 392h224a24 24 0 0 0 24-24 40 40 0 0 0 -40-40h-192a40 40 0 0 0 -40 40 24 24 0 0 0 24 24z" fill="#f76012"/><path d="m431.149 330.978a398.166 398.166 0 0 1 -199.149 53.022 404.51 404.51 0 0 1 -43.753-2.373 23.968 23.968 0 0 0 19.753 10.373h224a24 24 0 0 0 24-24 40 40 0 0 0 -24.851-37.022z" fill="#c44c0e"/><path d="m202.776 334.089 57.91 57.911h22.627l-63.755-63.755a39.748 39.748 0 0 0 -16.782 5.844z" fill="#f7af7c"/><path d="m356.686 328 64 64h11.314a23.918 23.918 0 0 0 9.4-1.912l-62.087-62.088z" fill="#f7af7c"/><path d="m343.958 392h24.084l-72-64h-24.084z" fill="#f7af7c"/><path d="m383.145 354.458 37.542 37.542h11.313a23.918 23.918 0 0 0 9.4-1.912l-42.48-42.482q-7.801 3.587-15.775 6.852z" fill="#c48b62"/><path d="m323.2 373.551 20.758 18.449h24.084l-26.186-23.276q-9.237 2.633-18.656 4.827z" fill="#c48b62"/><path d="m252.184 383.5 8.5 8.5h22.626l-10.1-10.1q-10.435 1.069-21.026 1.6z" fill="#c48b62"/><path d="m306.566 220.572a398.2 398.2 0 0 1 -194.566 50.428 403.6 403.6 0 0 1 -53.067-3.5 23.994 23.994 0 0 0 21.067 12.5h224a24 24 0 0 0 24-24 39.986 39.986 0 0 0 -21.434-35.428z" fill="#c44c0e"/><path d="m228.687 216 64 64h11.313a23.918 23.918 0 0 0 9.4-1.912l-62.087-62.088z" fill="#f7af7c"/><path d="m256.7 244.016 35.987 35.984h11.313a23.918 23.918 0 0 0 9.4-1.912l-40.686-40.688q-7.914 3.478-16.014 6.616z" fill="#c48b62"/><path d="m215.958 280h24.084l-72-64h-24.084z" fill="#f7af7c"/><path d="m195.908 262.178 20.05 17.822h24.084l-25.159-22.363q-9.399 2.495-18.975 4.541z" fill="#c48b62"/><path d="m168 216h48v64h-48z" fill="#00341c"/><path d="m168 267.111v12.889h48v-22.658a397.851 397.851 0 0 1 -48 9.769z" fill="#052d1a"/><path d="m74.776 222.089 57.911 57.911h22.626l-63.755-63.755a39.748 39.748 0 0 0 -16.782 5.844z" fill="#f7af7c"/><path d="m123.518 270.832 9.169 9.168h22.626l-10.346-10.347q-10.649.869-21.449 1.179z" fill="#c48b62"/></g></svg>