<svg height="472pt" viewBox="0 -68 472 472" width="472pt" xmlns="http://www.w3.org/2000/svg"><g fill="#f80"><path d="m32 31.789062h-24c-4.417969 0-8-3.582031-8-8 0-4.417968 3.582031-8 8-8h24c4.417969 0 8 3.582032 8 8 0 4.417969-3.582031 8-8 8zm0 0"/><path d="m32 319.789062h-24c-4.417969 0-8-3.582031-8-8 0-4.417968 3.582031-8 8-8h24c4.417969 0 8 3.582032 8 8 0 4.417969-3.582031 8-8 8zm0 0"/><path d="m32 79.789062h-24c-4.417969 0-8-3.582031-8-8 0-4.417968 3.582031-8 8-8h24c4.417969 0 8 3.582032 8 8 0 4.417969-3.582031 8-8 8zm0 0"/><path d="m32 127.789062h-24c-4.417969 0-8-3.582031-8-8 0-4.417968 3.582031-8 8-8h24c4.417969 0 8 3.582032 8 8 0 4.417969-3.582031 8-8 8zm0 0"/><path d="m32 175.789062h-24c-4.417969 0-8-3.582031-8-8 0-4.417968 3.582031-8 8-8h24c4.417969 0 8 3.582032 8 8 0 4.417969-3.582031 8-8 8zm0 0"/><path d="m32 223.789062h-24c-4.417969 0-8-3.582031-8-8 0-4.417968 3.582031-8 8-8h24c4.417969 0 8 3.582032 8 8 0 4.417969-3.582031 8-8 8zm0 0"/><path d="m32 271.789062h-24c-4.417969 0-8-3.582031-8-8 0-4.417968 3.582031-8 8-8h24c4.417969 0 8 3.582032 8 8 0 4.417969-3.582031 8-8 8zm0 0"/></g><path d="m32 23.789062h400v288h-400zm0 0" fill="#ffa900"/><path d="m128 279.789062c0-35.347656-28.652344-64-64-64v-96c35.347656 0 64-28.65625 64-64h248v224zm0 0" fill="#ffdaaa"/><path d="m96 71.789062c0 8.835938-7.164062 16-16 16s-16-7.164062-16-16c0-8.835937 7.164062-16 16-16s16 7.164063 16 16zm0 0" fill="#a65a14"/><path d="m96 263.789062c0 8.835938-7.164062 16-16 16s-16-7.164062-16-16c0-8.835937 7.164062-16 16-16s16 7.164063 16 16zm0 0" fill="#a65a14"/><path d="m104 167.785156 80-80 80 80-80 80zm0 0" fill="#fdb62f"/><path d="m152.003906 167.785156 32.003906-32 32 32-32 32zm0 0" fill="#f80"/><path d="m264.003906 167.785156 79.996094-80 80 80-80 80zm0 0" fill="#fdb62f"/><path d="m312.007812 167.785156 32-32 32 32-32 32zm0 0" fill="#f80"/><path d="m376 7.789062v320c31.15625 10.382813 64.84375 10.382813 96 0v-320c-31.15625-10.386718-64.84375-10.386718-96 0zm0 0" fill="#f80"/><path d="m280 103.789062c0 8.835938-7.164062 16-16 16s-16-7.164062-16-16c0-8.835937 7.164062-16 16-16s16 7.164063 16 16zm0 0" fill="#a65a14"/><path d="m280 231.789062c0 8.835938-7.164062 16-16 16s-16-7.164062-16-16c0-8.835937 7.164062-16 16-16s16 7.164063 16 16zm0 0" fill="#a65a14"/></svg>