<svg height="464pt" viewBox="-104 0 464 464" width="464pt" xmlns="http://www.w3.org/2000/svg"><path d="m24 248v216h32v-168h144v168h32v-216zm0 0" fill="#a65a14"/><g fill="#763a02"><path d="m103.96875 231.3125-16-184-2.023438-23.3125h-16.058593l2.144531 24.6875 16 184 1.328125 15.3125h16.066406zm0 0"/><path d="m120 32h16v208h-16zm0 0"/><path d="m167.96875 232.6875 16-184 2.144531-24.6875h-16.058593l-2.023438 23.3125-16 184-1.457031 16.6875h16.066406zm0 0"/><path d="m199.878906 233.367188 32-184 4.417969-25.367188h-16.242187l-3.933594 22.632812-32 184-3.023438 17.367188h16.238282zm0 0"/><path d="m71.886719 230.679688.113281 1.320312-.121094-1.367188-32-184-3.765625-22.632812h-16.226562l4.226562 25.320312-.113281-1.320312.121094 1.367188 32 184 2.4375 14.632812h16.21875zm0 0"/></g><path d="m0 0v48h256v-48zm0 0" fill="#a65a14"/><path d="m24 232h208c8.835938 0 16 7.164062 16 16s-7.164062 16-16 16h-208c-8.835938 0-16-7.164062-16-16s7.164062-16 16-16zm0 0" fill="#592c02"/></svg>