<svg height="464pt" viewBox="-104 0 464 464" width="464pt" xmlns="http://www.w3.org/2000/svg"><path d="m40 192h176v272h-176zm0 0" fill="#a65a14"/><path d="m72 288h112v144h-112zm0 0" fill="#fdb62f"/><path d="m256 128c0 70.691406-57.308594 128-128 128s-128-57.308594-128-128 57.308594-128 128-128 128 57.308594 128 128zm0 0" fill="#fdb62f"/><path d="m120 288h16v80h-16zm0 0" fill="#e6e6e6"/><path d="m224 128c0 53.019531-42.980469 96-96 96s-96-42.980469-96-96 42.980469-96 96-96 96 42.980469 96 96zm0 0" fill="#ffe9cc"/><path d="m128 136c-2.121094 0-4.15625-.84375-5.65625-2.34375l-24-24c-3.03125-3.140625-2.988281-8.128906.097656-11.214844 3.085938-3.085937 8.074219-3.128906 11.214844-.097656l18.34375 18.34375 34.34375-34.34375c3.140625-3.03125 8.128906-2.988281 11.214844.097656 3.085937 3.085938 3.128906 8.074219.097656 11.214844l-40 40c-1.5 1.5-3.535156 2.34375-5.65625 2.34375zm0 0" fill="#592c02"/><path d="m152 376c0 13.253906-10.746094 24-24 24s-24-10.746094-24-24 10.746094-24 24-24 24 10.746094 24 24zm0 0" fill="#763a02"/></svg>