<svg height="464pt" viewBox="-88 0 464 464" width="464pt" xmlns="http://www.w3.org/2000/svg"><path d="m128 168h32v56c0 20.488281 8.136719 40.136719 22.625 54.625l34.75 34.75c14.488281 14.488281 22.625 34.136719 22.625 54.625s-8.136719 40.136719-22.625 54.625l-41.375 41.375h-64l-41.375-41.375c-14.488281-14.488281-22.625-34.136719-22.625-54.625s8.136719-40.136719 22.625-54.625l34.75-34.75c14.488281-14.488281 22.625-34.136719 22.625-54.625zm0 0" fill="#a7d6dd"/><path d="m40 256c-4.417969 0-8-3.582031-8-8v-64c0-4.417969 3.582031-8 8-8s8 3.582031 8 8v64c0 4.417969-3.582031 8-8 8zm0 0" fill="#ffe9cc"/><path d="m48 0-48 184h288l-48-184zm0 0" fill="#fdb62f"/><path d="m90.527344 442.527344 21.472656 21.472656h64l41.375-41.375c25.949219-25.945312 30.054688-66.566406 9.824219-97.175781-36.117188 48.855469-82.847657 88.886719-136.671875 117.078125zm0 0" fill="#6cbbc7"/></svg>